G04 Layer: TopSolderMaskLayer*
G04 EasyEDA v6.3.22, 2020-02-26T16:32:33+01:00*
G04 ac0fba72113b465c8b3373fc4e38c277,2f1dc3ff27c442d188d0821d71f234e9,10*
G04 Gerber Generator version 0.2*
G04 Scale: 100 percent, Rotated: No, Reflected: No *
G04 Dimensions in millimeters *
G04 leading zeros omitted , absolute positions ,3 integer and 3 decimal *
%FSLAX33Y33*%
%MOMM*%
G90*
G71D02*

%ADD18C,1.727200*%
%ADD20C,1.778000*%

%LPD*%
G54D18*
G01X24638Y41783D03*
G01X24638Y39243D03*
G01X24638Y36703D03*
G01X24638Y34163D03*
G01X24638Y31623D03*
G01X24638Y29083D03*
G01X24638Y26543D03*
G01X24638Y24003D03*
G01X24638Y21463D03*
G01X24638Y18923D03*
G01X24638Y16383D03*
G01X24638Y13843D03*
G01X24638Y11303D03*
G01X24638Y8763D03*
G01X24638Y6223D03*
G01X1778Y6223D03*
G01X1778Y8763D03*
G01X1778Y11303D03*
G01X1778Y13843D03*
G01X1778Y16383D03*
G01X1778Y18923D03*
G01X1778Y21463D03*
G01X1778Y24003D03*
G01X1778Y26543D03*
G01X1778Y29083D03*
G01X1778Y31623D03*
G01X1778Y34163D03*
G01X1778Y36703D03*
G01X1778Y39243D03*
G01X1778Y41783D03*
G36*
G01X11303Y51562D02*
G01X11303Y53340D01*
G01X13081Y53340D01*
G01X13081Y51562D01*
G01X11303Y51562D01*
G37*
G54D20*
G01X14732Y52451D03*
G01X12192Y54991D03*
G01X14732Y54991D03*
G01X12192Y57531D03*
G01X14732Y57531D03*
G01X12192Y60071D03*
G01X14732Y60071D03*
G01X12192Y62611D03*
G01X14732Y62611D03*
G36*
G01X3916Y50083D02*
G01X3347Y50652D01*
G01X3347Y51455D01*
G01X3916Y52024D01*
G01X4719Y52024D01*
G01X5288Y51455D01*
G01X5288Y50652D01*
G01X4719Y50083D01*
G01X3916Y50083D01*
G37*
G36*
G01X1376Y50083D02*
G01X807Y50652D01*
G01X807Y51455D01*
G01X1376Y52024D01*
G01X2179Y52024D01*
G01X2748Y51455D01*
G01X2748Y50652D01*
G01X2179Y50083D01*
G01X1376Y50083D01*
G37*
G36*
G01X3916Y52623D02*
G01X3347Y53192D01*
G01X3347Y53995D01*
G01X3916Y54564D01*
G01X4719Y54564D01*
G01X5288Y53995D01*
G01X5288Y53192D01*
G01X4719Y52623D01*
G01X3916Y52623D01*
G37*
G36*
G01X1376Y52623D02*
G01X807Y53192D01*
G01X807Y53995D01*
G01X1376Y54564D01*
G01X2179Y54564D01*
G01X2748Y53995D01*
G01X2748Y53192D01*
G01X2179Y52623D01*
G01X1376Y52623D01*
G37*
G36*
G01X3916Y55163D02*
G01X3347Y55732D01*
G01X3347Y56535D01*
G01X3916Y57104D01*
G01X4719Y57104D01*
G01X5288Y56535D01*
G01X5288Y55732D01*
G01X4719Y55163D01*
G01X3916Y55163D01*
G37*
G36*
G01X1376Y55163D02*
G01X807Y55732D01*
G01X807Y56535D01*
G01X1376Y57104D01*
G01X2179Y57104D01*
G01X2748Y56535D01*
G01X2748Y55732D01*
G01X2179Y55163D01*
G01X1376Y55163D01*
G37*
G36*
G01X3916Y57703D02*
G01X3347Y58272D01*
G01X3347Y59075D01*
G01X3916Y59644D01*
G01X4719Y59644D01*
G01X5288Y59075D01*
G01X5288Y58272D01*
G01X4719Y57703D01*
G01X3916Y57703D01*
G37*
G36*
G01X1376Y57703D02*
G01X807Y58272D01*
G01X807Y59075D01*
G01X1376Y59644D01*
G01X2179Y59644D01*
G01X2748Y59075D01*
G01X2748Y58272D01*
G01X2179Y57703D01*
G01X1376Y57703D01*
G37*
G36*
G01X3916Y60243D02*
G01X3347Y60812D01*
G01X3347Y61615D01*
G01X3916Y62184D01*
G01X4719Y62184D01*
G01X5288Y61615D01*
G01X5288Y60812D01*
G01X4719Y60243D01*
G01X3916Y60243D01*
G37*
G36*
G01X1376Y60243D02*
G01X807Y60812D01*
G01X807Y61615D01*
G01X1376Y62184D01*
G01X2179Y62184D01*
G01X2748Y61615D01*
G01X2748Y60812D01*
G01X2179Y60243D01*
G01X1376Y60243D01*
G37*
G36*
G01X3916Y62783D02*
G01X3347Y63352D01*
G01X3347Y64155D01*
G01X3916Y64724D01*
G01X4719Y64724D01*
G01X5288Y64155D01*
G01X5288Y63352D01*
G01X4719Y62783D01*
G01X3916Y62783D01*
G37*
G36*
G01X1376Y62783D02*
G01X807Y63352D01*
G01X807Y64155D01*
G01X1376Y64724D01*
G01X2179Y64724D01*
G01X2748Y64155D01*
G01X2748Y63352D01*
G01X2179Y62783D01*
G01X1376Y62783D01*
G37*
G36*
G01X24236Y50083D02*
G01X23667Y50652D01*
G01X23667Y51455D01*
G01X24236Y52024D01*
G01X25039Y52024D01*
G01X25608Y51455D01*
G01X25608Y50652D01*
G01X25039Y50083D01*
G01X24236Y50083D01*
G37*
G36*
G01X21696Y50083D02*
G01X21127Y50652D01*
G01X21127Y51455D01*
G01X21696Y52024D01*
G01X22499Y52024D01*
G01X23068Y51455D01*
G01X23068Y50652D01*
G01X22499Y50083D01*
G01X21696Y50083D01*
G37*
G36*
G01X24236Y52623D02*
G01X23667Y53192D01*
G01X23667Y53995D01*
G01X24236Y54564D01*
G01X25039Y54564D01*
G01X25608Y53995D01*
G01X25608Y53192D01*
G01X25039Y52623D01*
G01X24236Y52623D01*
G37*
G36*
G01X21696Y52623D02*
G01X21127Y53192D01*
G01X21127Y53995D01*
G01X21696Y54564D01*
G01X22499Y54564D01*
G01X23068Y53995D01*
G01X23068Y53192D01*
G01X22499Y52623D01*
G01X21696Y52623D01*
G37*
G36*
G01X24236Y55163D02*
G01X23667Y55732D01*
G01X23667Y56535D01*
G01X24236Y57104D01*
G01X25039Y57104D01*
G01X25608Y56535D01*
G01X25608Y55732D01*
G01X25039Y55163D01*
G01X24236Y55163D01*
G37*
G36*
G01X21696Y55163D02*
G01X21127Y55732D01*
G01X21127Y56535D01*
G01X21696Y57104D01*
G01X22499Y57104D01*
G01X23068Y56535D01*
G01X23068Y55732D01*
G01X22499Y55163D01*
G01X21696Y55163D01*
G37*
G36*
G01X24236Y57703D02*
G01X23667Y58272D01*
G01X23667Y59075D01*
G01X24236Y59644D01*
G01X25039Y59644D01*
G01X25608Y59075D01*
G01X25608Y58272D01*
G01X25039Y57703D01*
G01X24236Y57703D01*
G37*
G36*
G01X21696Y57703D02*
G01X21127Y58272D01*
G01X21127Y59075D01*
G01X21696Y59644D01*
G01X22499Y59644D01*
G01X23068Y59075D01*
G01X23068Y58272D01*
G01X22499Y57703D01*
G01X21696Y57703D01*
G37*
G36*
G01X24236Y60243D02*
G01X23667Y60812D01*
G01X23667Y61615D01*
G01X24236Y62184D01*
G01X25039Y62184D01*
G01X25608Y61615D01*
G01X25608Y60812D01*
G01X25039Y60243D01*
G01X24236Y60243D01*
G37*
G36*
G01X21696Y60243D02*
G01X21127Y60812D01*
G01X21127Y61615D01*
G01X21696Y62184D01*
G01X22499Y62184D01*
G01X23068Y61615D01*
G01X23068Y60812D01*
G01X22499Y60243D01*
G01X21696Y60243D01*
G37*
G36*
G01X24236Y62783D02*
G01X23667Y63352D01*
G01X23667Y64155D01*
G01X24236Y64724D01*
G01X25039Y64724D01*
G01X25608Y64155D01*
G01X25608Y63352D01*
G01X25039Y62783D01*
G01X24236Y62783D01*
G37*
G36*
G01X21696Y62783D02*
G01X21127Y63352D01*
G01X21127Y64155D01*
G01X21696Y64724D01*
G01X22499Y64724D01*
G01X23068Y64155D01*
G01X23068Y63352D01*
G01X22499Y62783D01*
G01X21696Y62783D01*
G37*
M00*
M02*
