;Layer: Drill PTH
;EasyEDA v6.3.22, 2020-02-26T16:32:33+01:00
;ac0fba72113b465c8b3373fc4e38c277,2f1dc3ff27c442d188d0821d71f234e9,10
;Gerber Generator version 0.2
M48
METRIC,LZ,000.000
;Holesize 1 = 0.310 METRIC
T01C0.310
;Holesize 2 = 0.889 METRIC
T02C0.889
;Holesize 3 = 0.915 METRIC
T03C0.915
;Holesize 4 = 1.016 METRIC
T04C1.016
%
G05
G90
T01
X+016606Y+058666
X+012918Y+043916
T02
X+012192Y+052451
X+014732Y+052451
X+012192Y+054991
X+014732Y+054991
X+012192Y+057531
X+014732Y+057531
X+012192Y+060071
X+014732Y+060071
X+012192Y+062611
X+014732Y+062611
T03
X+024638Y+041783
X+024638Y+039243
X+024638Y+036703
X+024638Y+034163
X+024638Y+031623
X+024638Y+029083
X+024638Y+026543
X+024638Y+024003
X+024638Y+021463
X+024638Y+018923
X+024638Y+016383
X+024638Y+013843
X+024638Y+011303
X+024638Y+008763
X+024638Y+006223
X+001778Y+006223
X+001778Y+008763
X+001778Y+011303
X+001778Y+013843
X+001778Y+016383
X+001778Y+018923
X+001778Y+021463
X+001778Y+024003
X+001778Y+026543
X+001778Y+029083
X+001778Y+031623
X+001778Y+034163
X+001778Y+036703
X+001778Y+039243
X+001778Y+041783
T04
X+004318Y+051051G85X+004318Y+051056
X+001778Y+051051G85X+001778Y+051056
X+004318Y+053591G85X+004318Y+053596
X+001778Y+053591G85X+001778Y+053596
X+004318Y+056131G85X+004318Y+056136
X+001778Y+056131G85X+001778Y+056136
X+004318Y+058671G85X+004318Y+058676
X+001778Y+058671G85X+001778Y+058676
X+004318Y+061211G85X+004318Y+061216
X+001778Y+061211G85X+001778Y+061216
X+004318Y+063751G85X+004318Y+063756
X+001778Y+063751G85X+001778Y+063756
X+024638Y+051051G85X+024638Y+051056
X+022098Y+051051G85X+022098Y+051056
X+024638Y+053591G85X+024638Y+053596
X+022098Y+053591G85X+022098Y+053596
X+024638Y+056131G85X+024638Y+056136
X+022098Y+056131G85X+022098Y+056136
X+024638Y+058671G85X+024638Y+058676
X+022098Y+058671G85X+022098Y+058676
X+024638Y+061211G85X+024638Y+061216
X+022098Y+061211G85X+022098Y+061216
X+024638Y+063751G85X+024638Y+063756
X+022098Y+063751G85X+022098Y+063756
M30
