G04 Layer: TopLayer*
G04 EasyEDA v6.3.22, 2020-02-26T16:32:33+01:00*
G04 ac0fba72113b465c8b3373fc4e38c277,2f1dc3ff27c442d188d0821d71f234e9,10*
G04 Gerber Generator version 0.2*
G04 Scale: 100 percent, Rotated: No, Reflected: No *
G04 Dimensions in millimeters *
G04 leading zeros omitted , absolute positions ,3 integer and 3 decimal *
%FSLAX33Y33*%
%MOMM*%
G90*
G71D02*

%ADD11C,0.499999*%
%ADD12C,0.159995*%
%ADD13C,0.610006*%
%ADD14C,1.524000*%
%ADD16C,1.574800*%

%LPD*%
G36*
G01X12868Y54156D02*
G01X12853Y54157D01*
G01X12838Y54156D01*
G01X12822Y54152D01*
G01X12808Y54147D01*
G01X12794Y54139D01*
G01X12754Y54111D01*
G01X12711Y54085D01*
G01X12668Y54061D01*
G01X12623Y54040D01*
G01X12578Y54021D01*
G01X12531Y54003D01*
G01X12484Y53988D01*
G01X12436Y53976D01*
G01X12388Y53965D01*
G01X12339Y53957D01*
G01X12290Y53951D01*
G01X12241Y53948D01*
G01X12192Y53947D01*
G01X12140Y53948D01*
G01X12089Y53952D01*
G01X12038Y53958D01*
G01X11988Y53967D01*
G01X11938Y53978D01*
G01X11888Y53992D01*
G01X11839Y54008D01*
G01X11792Y54026D01*
G01X11773Y54032D01*
G01X11753Y54034D01*
G01X11737Y54032D01*
G01X11722Y54029D01*
G01X11707Y54023D01*
G01X11693Y54015D01*
G01X11681Y54004D01*
G01X11488Y53811D01*
G01X11478Y53799D01*
G01X11470Y53786D01*
G01X11464Y53771D01*
G01X11460Y53756D01*
G01X11458Y53740D01*
G01X11458Y53596D01*
G01X11460Y53582D01*
G01X11463Y53568D01*
G01X11468Y53554D01*
G01X11475Y53541D01*
G01X11483Y53529D01*
G01X11494Y53519D01*
G01X11505Y53511D01*
G01X11518Y53504D01*
G01X11532Y53499D01*
G01X11546Y53495D01*
G01X11560Y53494D01*
G01X11734Y53494D01*
G01X11734Y52908D01*
G01X11560Y52908D01*
G01X11546Y52907D01*
G01X11532Y52904D01*
G01X11518Y52899D01*
G01X11505Y52891D01*
G01X11494Y52883D01*
G01X11483Y52873D01*
G01X11475Y52861D01*
G01X11468Y52848D01*
G01X11463Y52835D01*
G01X11460Y52820D01*
G01X11458Y52806D01*
G01X11458Y52095D01*
G01X11460Y52081D01*
G01X11463Y52066D01*
G01X11468Y52053D01*
G01X11475Y52040D01*
G01X11483Y52028D01*
G01X11494Y52018D01*
G01X11505Y52010D01*
G01X11518Y52002D01*
G01X11532Y51997D01*
G01X11546Y51994D01*
G01X11560Y51993D01*
G01X11734Y51993D01*
G01X11734Y51407D01*
G01X11560Y51407D01*
G01X11546Y51406D01*
G01X11532Y51402D01*
G01X11518Y51397D01*
G01X11505Y51390D01*
G01X11494Y51382D01*
G01X11483Y51372D01*
G01X11475Y51360D01*
G01X11468Y51347D01*
G01X11463Y51333D01*
G01X11460Y51319D01*
G01X11458Y51305D01*
G01X11458Y45893D01*
G01X11460Y45877D01*
G01X11464Y45862D01*
G01X11470Y45847D01*
G01X11478Y45834D01*
G01X11488Y45822D01*
G01X12804Y44506D01*
G01X12816Y44496D01*
G01X12830Y44488D01*
G01X12844Y44482D01*
G01X12860Y44477D01*
G01X12876Y44476D01*
G01X12882Y44476D01*
G01X12918Y44477D01*
G01X12952Y44476D01*
G01X12986Y44473D01*
G01X13020Y44468D01*
G01X13054Y44461D01*
G01X13087Y44452D01*
G01X13119Y44440D01*
G01X13150Y44427D01*
G01X13181Y44412D01*
G01X13211Y44395D01*
G01X13240Y44377D01*
G01X13267Y44356D01*
G01X13293Y44334D01*
G01X13318Y44311D01*
G01X13341Y44285D01*
G01X13362Y44259D01*
G01X13383Y44232D01*
G01X13401Y44203D01*
G01X13410Y44190D01*
G01X13420Y44179D01*
G01X13432Y44170D01*
G01X13445Y44162D01*
G01X13459Y44157D01*
G01X13473Y44154D01*
G01X13488Y44153D01*
G01X13503Y44154D01*
G01X13517Y44157D01*
G01X13531Y44162D01*
G01X13543Y44169D01*
G01X13555Y44178D01*
G01X13565Y44188D01*
G01X13574Y44200D01*
G01X13581Y44212D01*
G01X13586Y44225D01*
G01X13589Y44240D01*
G01X13590Y44254D01*
G01X13590Y52199D01*
G01X13589Y52214D01*
G01X13585Y52230D01*
G01X13579Y52245D01*
G01X13571Y52258D01*
G01X13560Y52271D01*
G01X13409Y52422D01*
G01X13103Y52727D01*
G01X13077Y52756D01*
G01X13053Y52786D01*
G01X13031Y52819D01*
G01X13011Y52853D01*
G01X13003Y52866D01*
G01X12993Y52878D01*
G01X12981Y52888D01*
G01X12967Y52897D01*
G01X12952Y52903D01*
G01X12937Y52907D01*
G01X12921Y52908D01*
G01X12649Y52908D01*
G01X12649Y53494D01*
G01X12853Y53494D01*
G01X12868Y53495D01*
G01X12882Y53499D01*
G01X12896Y53504D01*
G01X12908Y53511D01*
G01X12920Y53519D01*
G01X12930Y53529D01*
G01X12939Y53541D01*
G01X12946Y53554D01*
G01X12951Y53568D01*
G01X12954Y53582D01*
G01X12955Y53596D01*
G01X12955Y54055D01*
G01X12954Y54070D01*
G01X12951Y54084D01*
G01X12946Y54098D01*
G01X12939Y54111D01*
G01X12930Y54122D01*
G01X12920Y54132D01*
G01X12908Y54141D01*
G01X12896Y54148D01*
G01X12882Y54153D01*
G01X12868Y54156D01*
G37*

%LPC*%
G36*
G01X13235Y51993D02*
G01X12649Y51993D01*
G01X12649Y51407D01*
G01X12979Y51407D01*
G01X13003Y51408D01*
G01X13026Y51411D01*
G01X13049Y51416D01*
G01X13071Y51424D01*
G01X13093Y51433D01*
G01X13114Y51445D01*
G01X13133Y51458D01*
G01X13152Y51474D01*
G01X13168Y51490D01*
G01X13184Y51509D01*
G01X13197Y51528D01*
G01X13209Y51549D01*
G01X13218Y51571D01*
G01X13226Y51593D01*
G01X13231Y51616D01*
G01X13234Y51639D01*
G01X13235Y51663D01*
G01X13235Y51993D01*
G37*

%LPD*%
G36*
G01X24416Y65910D02*
G01X1999Y65910D01*
G01X1940Y65909D01*
G01X1881Y65906D01*
G01X1821Y65901D01*
G01X1762Y65894D01*
G01X1703Y65885D01*
G01X1645Y65873D01*
G01X1586Y65860D01*
G01X1529Y65845D01*
G01X1472Y65828D01*
G01X1416Y65809D01*
G01X1360Y65789D01*
G01X1305Y65766D01*
G01X1251Y65741D01*
G01X1197Y65714D01*
G01X1145Y65686D01*
G01X1094Y65656D01*
G01X1043Y65624D01*
G01X994Y65591D01*
G01X946Y65556D01*
G01X899Y65519D01*
G01X853Y65481D01*
G01X809Y65441D01*
G01X725Y65357D01*
G01X685Y65313D01*
G01X647Y65267D01*
G01X610Y65220D01*
G01X575Y65172D01*
G01X542Y65123D01*
G01X510Y65072D01*
G01X480Y65021D01*
G01X452Y64969D01*
G01X425Y64915D01*
G01X400Y64861D01*
G01X377Y64806D01*
G01X357Y64750D01*
G01X338Y64694D01*
G01X321Y64637D01*
G01X306Y64580D01*
G01X293Y64521D01*
G01X281Y64463D01*
G01X272Y64404D01*
G01X265Y64345D01*
G01X260Y64285D01*
G01X257Y64226D01*
G01X256Y64167D01*
G01X256Y1999D01*
G01X257Y1940D01*
G01X260Y1881D01*
G01X265Y1821D01*
G01X272Y1762D01*
G01X281Y1703D01*
G01X293Y1645D01*
G01X306Y1586D01*
G01X321Y1529D01*
G01X338Y1472D01*
G01X357Y1416D01*
G01X377Y1360D01*
G01X400Y1305D01*
G01X425Y1251D01*
G01X452Y1197D01*
G01X480Y1145D01*
G01X510Y1094D01*
G01X542Y1043D01*
G01X575Y994D01*
G01X610Y946D01*
G01X647Y899D01*
G01X685Y853D01*
G01X725Y809D01*
G01X809Y725D01*
G01X853Y685D01*
G01X899Y647D01*
G01X946Y610D01*
G01X994Y575D01*
G01X1043Y542D01*
G01X1094Y510D01*
G01X1145Y480D01*
G01X1197Y452D01*
G01X1251Y425D01*
G01X1305Y400D01*
G01X1360Y377D01*
G01X1416Y357D01*
G01X1472Y338D01*
G01X1529Y321D01*
G01X1586Y306D01*
G01X1645Y293D01*
G01X1703Y281D01*
G01X1762Y272D01*
G01X1821Y265D01*
G01X1881Y260D01*
G01X1940Y257D01*
G01X1999Y256D01*
G01X24416Y256D01*
G01X24475Y257D01*
G01X24534Y260D01*
G01X24594Y265D01*
G01X24653Y272D01*
G01X24712Y281D01*
G01X24770Y293D01*
G01X24829Y306D01*
G01X24886Y321D01*
G01X24943Y338D01*
G01X24999Y357D01*
G01X25055Y377D01*
G01X25110Y400D01*
G01X25164Y425D01*
G01X25218Y452D01*
G01X25270Y480D01*
G01X25321Y510D01*
G01X25372Y542D01*
G01X25421Y575D01*
G01X25469Y610D01*
G01X25516Y647D01*
G01X25562Y685D01*
G01X25606Y725D01*
G01X25690Y809D01*
G01X25730Y853D01*
G01X25768Y899D01*
G01X25805Y946D01*
G01X25840Y994D01*
G01X25873Y1043D01*
G01X25905Y1094D01*
G01X25935Y1145D01*
G01X25963Y1197D01*
G01X25990Y1251D01*
G01X26015Y1305D01*
G01X26038Y1360D01*
G01X26058Y1416D01*
G01X26077Y1472D01*
G01X26094Y1529D01*
G01X26109Y1586D01*
G01X26122Y1645D01*
G01X26134Y1703D01*
G01X26143Y1762D01*
G01X26150Y1821D01*
G01X26155Y1881D01*
G01X26158Y1940D01*
G01X26159Y1999D01*
G01X26159Y15607D01*
G01X26158Y15622D01*
G01X26155Y15636D01*
G01X26150Y15649D01*
G01X26143Y15662D01*
G01X26134Y15674D01*
G01X26124Y15684D01*
G01X26112Y15693D01*
G01X26100Y15700D01*
G01X26086Y15705D01*
G01X26072Y15708D01*
G01X26057Y15709D01*
G01X26042Y15707D01*
G01X26026Y15704D01*
G01X26011Y15698D01*
G01X25997Y15689D01*
G01X25985Y15679D01*
G01X25394Y15086D01*
G01X25375Y15068D01*
G01X25354Y15052D01*
G01X25332Y15037D01*
G01X25309Y15024D01*
G01X25285Y15012D01*
G01X25260Y15003D01*
G01X25234Y14996D01*
G01X25208Y14991D01*
G01X25182Y14988D01*
G01X25156Y14987D01*
G01X25047Y14987D01*
G01X25032Y14986D01*
G01X25018Y14982D01*
G01X25005Y14977D01*
G01X24992Y14971D01*
G01X24980Y14962D01*
G01X24970Y14951D01*
G01X24961Y14940D01*
G01X24954Y14928D01*
G01X24949Y14914D01*
G01X24946Y14900D01*
G01X24945Y14885D01*
G01X24946Y14870D01*
G01X24950Y14855D01*
G01X24956Y14841D01*
G01X24963Y14828D01*
G01X24972Y14816D01*
G01X24983Y14806D01*
G01X24996Y14797D01*
G01X25010Y14790D01*
G01X25053Y14773D01*
G01X25095Y14752D01*
G01X25137Y14730D01*
G01X25177Y14707D01*
G01X25216Y14681D01*
G01X25254Y14653D01*
G01X25291Y14624D01*
G01X25326Y14593D01*
G01X25360Y14561D01*
G01X25392Y14527D01*
G01X25423Y14491D01*
G01X25452Y14454D01*
G01X25479Y14416D01*
G01X25505Y14377D01*
G01X25528Y14336D01*
G01X25550Y14295D01*
G01X25570Y14252D01*
G01X25588Y14209D01*
G01X25604Y14165D01*
G01X25617Y14120D01*
G01X25629Y14075D01*
G01X25639Y14029D01*
G01X25646Y13983D01*
G01X25652Y13936D01*
G01X25655Y13889D01*
G01X25656Y13843D01*
G01X25655Y13797D01*
G01X25652Y13751D01*
G01X25647Y13706D01*
G01X25640Y13661D01*
G01X25631Y13616D01*
G01X25619Y13572D01*
G01X25606Y13528D01*
G01X25591Y13484D01*
G01X25574Y13442D01*
G01X25555Y13401D01*
G01X25535Y13360D01*
G01X25512Y13320D01*
G01X25487Y13281D01*
G01X25461Y13244D01*
G01X25434Y13208D01*
G01X25405Y13172D01*
G01X25374Y13138D01*
G01X25342Y13106D01*
G01X25308Y13075D01*
G01X25273Y13046D01*
G01X25236Y13019D01*
G01X25199Y12993D01*
G01X25160Y12968D01*
G01X25120Y12945D01*
G01X25079Y12925D01*
G01X25038Y12906D01*
G01X24996Y12889D01*
G01X24952Y12874D01*
G01X24908Y12861D01*
G01X24864Y12849D01*
G01X24819Y12840D01*
G01X24774Y12833D01*
G01X24729Y12828D01*
G01X24683Y12825D01*
G01X24638Y12824D01*
G01X24592Y12825D01*
G01X24546Y12828D01*
G01X24501Y12833D01*
G01X24456Y12840D01*
G01X24411Y12849D01*
G01X24367Y12861D01*
G01X24323Y12874D01*
G01X24279Y12889D01*
G01X24237Y12906D01*
G01X24196Y12925D01*
G01X24155Y12945D01*
G01X24115Y12968D01*
G01X24076Y12993D01*
G01X24039Y13019D01*
G01X24003Y13046D01*
G01X23967Y13075D01*
G01X23933Y13106D01*
G01X23901Y13138D01*
G01X23870Y13172D01*
G01X23841Y13208D01*
G01X23814Y13244D01*
G01X23788Y13281D01*
G01X23763Y13320D01*
G01X23740Y13360D01*
G01X23720Y13401D01*
G01X23701Y13442D01*
G01X23684Y13484D01*
G01X23669Y13528D01*
G01X23656Y13572D01*
G01X23644Y13616D01*
G01X23635Y13661D01*
G01X23628Y13706D01*
G01X23623Y13751D01*
G01X23620Y13797D01*
G01X23619Y13843D01*
G01X23620Y13889D01*
G01X23624Y13936D01*
G01X23629Y13983D01*
G01X23636Y14029D01*
G01X23646Y14075D01*
G01X23658Y14121D01*
G01X23672Y14166D01*
G01X23688Y14210D01*
G01X23705Y14253D01*
G01X23725Y14296D01*
G01X23747Y14337D01*
G01X23771Y14378D01*
G01X23796Y14417D01*
G01X23824Y14455D01*
G01X23853Y14492D01*
G01X23884Y14527D01*
G01X23916Y14561D01*
G01X23950Y14594D01*
G01X23985Y14625D01*
G01X24022Y14654D01*
G01X24060Y14682D01*
G01X24100Y14707D01*
G01X24140Y14731D01*
G01X24181Y14753D01*
G01X24224Y14773D01*
G01X24267Y14791D01*
G01X24281Y14798D01*
G01X24294Y14807D01*
G01X24305Y14817D01*
G01X24314Y14829D01*
G01X24322Y14842D01*
G01X24327Y14856D01*
G01X24331Y14871D01*
G01X24332Y14886D01*
G01X24331Y14901D01*
G01X24327Y14916D01*
G01X24322Y14931D01*
G01X24314Y14944D01*
G01X24304Y14956D01*
G01X24293Y14966D01*
G01X24280Y14974D01*
G01X24266Y14981D01*
G01X24251Y14986D01*
G01X24236Y14988D01*
G01X24209Y14990D01*
G01X24183Y14995D01*
G01X24156Y15002D01*
G01X24131Y15011D01*
G01X24106Y15022D01*
G01X24082Y15035D01*
G01X24060Y15050D01*
G01X24039Y15067D01*
G01X24019Y15086D01*
G01X23297Y15807D01*
G01X23279Y15826D01*
G01X23263Y15847D01*
G01X23248Y15869D01*
G01X23235Y15892D01*
G01X23224Y15916D01*
G01X23215Y15941D01*
G01X23208Y15966D01*
G01X23203Y15992D01*
G01X23200Y16018D01*
G01X23199Y16045D01*
G01X23199Y17820D01*
G01X23200Y17847D01*
G01X23203Y17873D01*
G01X23208Y17899D01*
G01X23215Y17924D01*
G01X23224Y17949D01*
G01X23235Y17973D01*
G01X23248Y17996D01*
G01X23263Y18018D01*
G01X23279Y18039D01*
G01X23297Y18058D01*
G01X23671Y18431D01*
G01X23681Y18443D01*
G01X23689Y18457D01*
G01X23695Y18472D01*
G01X23699Y18488D01*
G01X23700Y18503D01*
G01X23699Y18523D01*
G01X23693Y18542D01*
G01X23676Y18587D01*
G01X23661Y18633D01*
G01X23648Y18681D01*
G01X23638Y18728D01*
G01X23630Y18777D01*
G01X23624Y18825D01*
G01X23620Y18874D01*
G01X23619Y18923D01*
G01X23620Y18968D01*
G01X23623Y19014D01*
G01X23628Y19059D01*
G01X23635Y19104D01*
G01X23644Y19149D01*
G01X23656Y19193D01*
G01X23669Y19237D01*
G01X23684Y19281D01*
G01X23701Y19323D01*
G01X23720Y19364D01*
G01X23740Y19405D01*
G01X23763Y19445D01*
G01X23788Y19484D01*
G01X23814Y19521D01*
G01X23841Y19558D01*
G01X23870Y19593D01*
G01X23901Y19627D01*
G01X23933Y19659D01*
G01X23967Y19690D01*
G01X24003Y19719D01*
G01X24039Y19746D01*
G01X24076Y19772D01*
G01X24115Y19797D01*
G01X24155Y19820D01*
G01X24196Y19840D01*
G01X24237Y19859D01*
G01X24279Y19876D01*
G01X24323Y19891D01*
G01X24367Y19904D01*
G01X24411Y19916D01*
G01X24456Y19925D01*
G01X24501Y19932D01*
G01X24546Y19937D01*
G01X24592Y19940D01*
G01X24638Y19941D01*
G01X24685Y19940D01*
G01X24731Y19936D01*
G01X24778Y19931D01*
G01X24825Y19924D01*
G01X24871Y19914D01*
G01X24917Y19902D01*
G01X24962Y19888D01*
G01X25006Y19872D01*
G01X25049Y19854D01*
G01X25092Y19834D01*
G01X25134Y19812D01*
G01X25174Y19788D01*
G01X25191Y19779D01*
G01X25210Y19774D01*
G01X25228Y19773D01*
G01X25243Y19774D01*
G01X25257Y19777D01*
G01X25270Y19782D01*
G01X25283Y19789D01*
G01X25294Y19798D01*
G01X25305Y19808D01*
G01X25314Y19820D01*
G01X25320Y19832D01*
G01X25325Y19846D01*
G01X25328Y19860D01*
G01X25330Y19874D01*
G01X25330Y20511D01*
G01X25328Y20525D01*
G01X25325Y20539D01*
G01X25320Y20553D01*
G01X25314Y20565D01*
G01X25305Y20577D01*
G01X25294Y20587D01*
G01X25283Y20596D01*
G01X25270Y20603D01*
G01X25257Y20608D01*
G01X25243Y20611D01*
G01X25228Y20612D01*
G01X25210Y20611D01*
G01X25191Y20606D01*
G01X25174Y20597D01*
G01X25134Y20573D01*
G01X25092Y20551D01*
G01X25049Y20531D01*
G01X25006Y20513D01*
G01X24962Y20497D01*
G01X24917Y20483D01*
G01X24871Y20471D01*
G01X24825Y20461D01*
G01X24778Y20454D01*
G01X24731Y20449D01*
G01X24685Y20445D01*
G01X24638Y20444D01*
G01X24592Y20445D01*
G01X24546Y20448D01*
G01X24501Y20453D01*
G01X24456Y20460D01*
G01X24411Y20469D01*
G01X24367Y20481D01*
G01X24323Y20494D01*
G01X24279Y20509D01*
G01X24237Y20526D01*
G01X24196Y20545D01*
G01X24155Y20565D01*
G01X24115Y20588D01*
G01X24076Y20613D01*
G01X24039Y20639D01*
G01X24003Y20666D01*
G01X23967Y20695D01*
G01X23933Y20726D01*
G01X23901Y20758D01*
G01X23870Y20792D01*
G01X23841Y20828D01*
G01X23814Y20864D01*
G01X23788Y20901D01*
G01X23763Y20940D01*
G01X23740Y20980D01*
G01X23720Y21021D01*
G01X23701Y21062D01*
G01X23684Y21104D01*
G01X23669Y21148D01*
G01X23656Y21192D01*
G01X23644Y21236D01*
G01X23635Y21281D01*
G01X23628Y21326D01*
G01X23623Y21371D01*
G01X23620Y21417D01*
G01X23619Y21463D01*
G01X23620Y21511D01*
G01X23624Y21560D01*
G01X23630Y21608D01*
G01X23638Y21657D01*
G01X23648Y21704D01*
G01X23661Y21752D01*
G01X23676Y21798D01*
G01X23693Y21844D01*
G01X23699Y21862D01*
G01X23700Y21882D01*
G01X23699Y21897D01*
G01X23695Y21913D01*
G01X23689Y21928D01*
G01X23681Y21942D01*
G01X23671Y21954D01*
G01X16005Y29619D01*
G01X15987Y29639D01*
G01X15971Y29660D01*
G01X15956Y29681D01*
G01X15943Y29704D01*
G01X15932Y29728D01*
G01X15923Y29753D01*
G01X15916Y29778D01*
G01X15911Y29804D01*
G01X15908Y29831D01*
G01X15907Y29857D01*
G01X15907Y52050D01*
G01X15905Y52064D01*
G01X15902Y52079D01*
G01X15897Y52092D01*
G01X15890Y52105D01*
G01X15882Y52116D01*
G01X15871Y52126D01*
G01X15860Y52135D01*
G01X15847Y52142D01*
G01X15833Y52147D01*
G01X15819Y52150D01*
G01X15805Y52151D01*
G01X15789Y52150D01*
G01X15774Y52147D01*
G01X15760Y52141D01*
G01X15746Y52133D01*
G01X15735Y52123D01*
G01X15725Y52112D01*
G01X15716Y52099D01*
G01X15709Y52085D01*
G01X15692Y52042D01*
G01X15673Y51999D01*
G01X15651Y51957D01*
G01X15629Y51916D01*
G01X15604Y51876D01*
G01X15577Y51838D01*
G01X15548Y51801D01*
G01X15518Y51765D01*
G01X15487Y51730D01*
G01X15454Y51697D01*
G01X15419Y51665D01*
G01X15383Y51635D01*
G01X15346Y51607D01*
G01X15307Y51580D01*
G01X15267Y51555D01*
G01X15227Y51532D01*
G01X15185Y51510D01*
G01X15142Y51491D01*
G01X15099Y51473D01*
G01X15055Y51458D01*
G01X15009Y51444D01*
G01X14964Y51433D01*
G01X14918Y51423D01*
G01X14872Y51416D01*
G01X14825Y51411D01*
G01X14778Y51408D01*
G01X14732Y51407D01*
G01X14705Y51407D01*
G01X14690Y51406D01*
G01X14676Y51403D01*
G01X14662Y51398D01*
G01X14650Y51391D01*
G01X14638Y51382D01*
G01X14628Y51372D01*
G01X14619Y51360D01*
G01X14612Y51348D01*
G01X14607Y51334D01*
G01X14604Y51320D01*
G01X14603Y51305D01*
G01X14603Y28702D01*
G01X14602Y28668D01*
G01X14599Y28635D01*
G01X14593Y28602D01*
G01X14586Y28570D01*
G01X14576Y28538D01*
G01X14564Y28507D01*
G01X14551Y28477D01*
G01X14535Y28448D01*
G01X14518Y28420D01*
G01X14498Y28393D01*
G01X14478Y28368D01*
G01X14455Y28343D01*
G01X2801Y16689D01*
G01X2790Y16677D01*
G01X2782Y16664D01*
G01X2776Y16649D01*
G01X2772Y16633D01*
G01X2771Y16618D01*
G01X2773Y16596D01*
G01X2783Y16544D01*
G01X2790Y16490D01*
G01X2795Y16436D01*
G01X2796Y16383D01*
G01X2795Y16337D01*
G01X2792Y16291D01*
G01X2787Y16246D01*
G01X2780Y16201D01*
G01X2771Y16156D01*
G01X2759Y16112D01*
G01X2746Y16068D01*
G01X2731Y16024D01*
G01X2714Y15982D01*
G01X2695Y15941D01*
G01X2675Y15900D01*
G01X2652Y15860D01*
G01X2627Y15821D01*
G01X2601Y15784D01*
G01X2574Y15748D01*
G01X2545Y15712D01*
G01X2514Y15678D01*
G01X2482Y15646D01*
G01X2448Y15615D01*
G01X2413Y15586D01*
G01X2376Y15559D01*
G01X2339Y15533D01*
G01X2300Y15508D01*
G01X2260Y15485D01*
G01X2219Y15465D01*
G01X2178Y15446D01*
G01X2136Y15429D01*
G01X2092Y15414D01*
G01X2048Y15401D01*
G01X2004Y15389D01*
G01X1959Y15380D01*
G01X1914Y15373D01*
G01X1869Y15368D01*
G01X1823Y15365D01*
G01X1778Y15364D01*
G01X1732Y15365D01*
G01X1686Y15368D01*
G01X1641Y15373D01*
G01X1596Y15380D01*
G01X1551Y15389D01*
G01X1507Y15401D01*
G01X1463Y15414D01*
G01X1419Y15429D01*
G01X1377Y15446D01*
G01X1336Y15465D01*
G01X1295Y15485D01*
G01X1255Y15508D01*
G01X1216Y15533D01*
G01X1179Y15559D01*
G01X1143Y15586D01*
G01X1107Y15615D01*
G01X1073Y15646D01*
G01X1041Y15678D01*
G01X1010Y15712D01*
G01X981Y15748D01*
G01X954Y15784D01*
G01X928Y15821D01*
G01X903Y15860D01*
G01X880Y15900D01*
G01X860Y15941D01*
G01X841Y15982D01*
G01X824Y16024D01*
G01X809Y16068D01*
G01X796Y16112D01*
G01X784Y16156D01*
G01X775Y16201D01*
G01X768Y16246D01*
G01X763Y16291D01*
G01X760Y16337D01*
G01X759Y16383D01*
G01X760Y16428D01*
G01X763Y16474D01*
G01X768Y16519D01*
G01X775Y16564D01*
G01X784Y16609D01*
G01X796Y16653D01*
G01X809Y16697D01*
G01X824Y16741D01*
G01X841Y16783D01*
G01X860Y16824D01*
G01X880Y16865D01*
G01X903Y16905D01*
G01X928Y16944D01*
G01X954Y16981D01*
G01X981Y17018D01*
G01X1010Y17053D01*
G01X1041Y17087D01*
G01X1073Y17119D01*
G01X1107Y17150D01*
G01X1143Y17179D01*
G01X1179Y17206D01*
G01X1216Y17232D01*
G01X1255Y17257D01*
G01X1295Y17280D01*
G01X1336Y17300D01*
G01X1377Y17319D01*
G01X1419Y17336D01*
G01X1463Y17351D01*
G01X1507Y17364D01*
G01X1551Y17376D01*
G01X1596Y17385D01*
G01X1641Y17392D01*
G01X1686Y17397D01*
G01X1732Y17400D01*
G01X1778Y17401D01*
G01X1831Y17400D01*
G01X1885Y17395D01*
G01X1939Y17388D01*
G01X1991Y17378D01*
G01X2013Y17376D01*
G01X2028Y17377D01*
G01X2044Y17381D01*
G01X2059Y17387D01*
G01X2072Y17395D01*
G01X2084Y17406D01*
G01X13560Y28881D01*
G01X13571Y28894D01*
G01X13579Y28907D01*
G01X13585Y28922D01*
G01X13589Y28938D01*
G01X13590Y28953D01*
G01X13590Y43578D01*
G01X13589Y43593D01*
G01X13586Y43607D01*
G01X13581Y43620D01*
G01X13574Y43633D01*
G01X13565Y43644D01*
G01X13555Y43654D01*
G01X13543Y43664D01*
G01X13531Y43670D01*
G01X13517Y43675D01*
G01X13503Y43678D01*
G01X13488Y43679D01*
G01X13473Y43678D01*
G01X13459Y43675D01*
G01X13445Y43670D01*
G01X13432Y43662D01*
G01X13420Y43653D01*
G01X13410Y43642D01*
G01X13401Y43630D01*
G01X13383Y43601D01*
G01X13362Y43573D01*
G01X13341Y43547D01*
G01X13318Y43521D01*
G01X13293Y43498D01*
G01X13267Y43476D01*
G01X13240Y43455D01*
G01X13211Y43437D01*
G01X13181Y43420D01*
G01X13150Y43405D01*
G01X13119Y43392D01*
G01X13087Y43380D01*
G01X13054Y43371D01*
G01X13020Y43364D01*
G01X12986Y43359D01*
G01X12952Y43356D01*
G01X12918Y43355D01*
G01X12884Y43356D01*
G01X12850Y43359D01*
G01X12817Y43364D01*
G01X12783Y43371D01*
G01X12751Y43380D01*
G01X12719Y43391D01*
G01X12687Y43404D01*
G01X12657Y43419D01*
G01X12627Y43436D01*
G01X12599Y43454D01*
G01X12571Y43474D01*
G01X12546Y43496D01*
G01X12521Y43519D01*
G01X12498Y43544D01*
G01X12476Y43570D01*
G01X12456Y43597D01*
G01X12437Y43626D01*
G01X12421Y43655D01*
G01X12406Y43685D01*
G01X12393Y43717D01*
G01X12382Y43749D01*
G01X12373Y43781D01*
G01X12366Y43815D01*
G01X12361Y43849D01*
G01X12358Y43882D01*
G01X12357Y43916D01*
G01X12358Y43952D01*
G01X12358Y43958D01*
G01X12357Y43974D01*
G01X12353Y43990D01*
G01X12346Y44004D01*
G01X12338Y44018D01*
G01X12328Y44030D01*
G01X10884Y45474D01*
G01X10866Y45493D01*
G01X10850Y45514D01*
G01X10835Y45536D01*
G01X10822Y45559D01*
G01X10811Y45583D01*
G01X10802Y45608D01*
G01X10795Y45633D01*
G01X10790Y45659D01*
G01X10787Y45685D01*
G01X10786Y45712D01*
G01X10786Y53921D01*
G01X10787Y53948D01*
G01X10790Y53974D01*
G01X10795Y54000D01*
G01X10802Y54025D01*
G01X10811Y54050D01*
G01X10822Y54074D01*
G01X10835Y54097D01*
G01X10850Y54119D01*
G01X10866Y54140D01*
G01X10884Y54159D01*
G01X11205Y54480D01*
G01X11216Y54492D01*
G01X11224Y54506D01*
G01X11230Y54521D01*
G01X11233Y54536D01*
G01X11235Y54552D01*
G01X11233Y54572D01*
G01X11227Y54591D01*
G01X11209Y54638D01*
G01X11193Y54687D01*
G01X11179Y54737D01*
G01X11168Y54787D01*
G01X11159Y54837D01*
G01X11153Y54888D01*
G01X11149Y54939D01*
G01X11148Y54991D01*
G01X11149Y55037D01*
G01X11152Y55084D01*
G01X11157Y55131D01*
G01X11164Y55177D01*
G01X11174Y55223D01*
G01X11185Y55268D01*
G01X11199Y55313D01*
G01X11214Y55357D01*
G01X11231Y55401D01*
G01X11251Y55444D01*
G01X11272Y55485D01*
G01X11295Y55526D01*
G01X11320Y55566D01*
G01X11347Y55604D01*
G01X11375Y55641D01*
G01X11405Y55677D01*
G01X11437Y55712D01*
G01X11470Y55745D01*
G01X11505Y55777D01*
G01X11541Y55807D01*
G01X11578Y55835D01*
G01X11616Y55862D01*
G01X11656Y55887D01*
G01X11697Y55910D01*
G01X11738Y55931D01*
G01X11781Y55951D01*
G01X11825Y55968D01*
G01X11869Y55983D01*
G01X11914Y55997D01*
G01X11959Y56008D01*
G01X12005Y56018D01*
G01X12051Y56025D01*
G01X12098Y56030D01*
G01X12145Y56033D01*
G01X12192Y56034D01*
G01X12241Y56033D01*
G01X12290Y56030D01*
G01X12339Y56024D01*
G01X12388Y56016D01*
G01X12436Y56005D01*
G01X12484Y55993D01*
G01X12531Y55978D01*
G01X12578Y55960D01*
G01X12623Y55941D01*
G01X12668Y55920D01*
G01X12711Y55896D01*
G01X12754Y55870D01*
G01X12794Y55842D01*
G01X12808Y55834D01*
G01X12822Y55829D01*
G01X12838Y55825D01*
G01X12853Y55824D01*
G01X12868Y55825D01*
G01X12882Y55828D01*
G01X12896Y55833D01*
G01X12908Y55840D01*
G01X12920Y55849D01*
G01X12930Y55859D01*
G01X12939Y55870D01*
G01X12946Y55883D01*
G01X12951Y55897D01*
G01X12954Y55911D01*
G01X12955Y55926D01*
G01X12955Y56595D01*
G01X12954Y56610D01*
G01X12951Y56624D01*
G01X12946Y56638D01*
G01X12939Y56651D01*
G01X12930Y56662D01*
G01X12920Y56672D01*
G01X12908Y56681D01*
G01X12896Y56688D01*
G01X12882Y56693D01*
G01X12868Y56696D01*
G01X12853Y56697D01*
G01X12838Y56696D01*
G01X12822Y56692D01*
G01X12808Y56687D01*
G01X12794Y56679D01*
G01X12754Y56651D01*
G01X12711Y56625D01*
G01X12668Y56601D01*
G01X12623Y56580D01*
G01X12578Y56561D01*
G01X12531Y56543D01*
G01X12484Y56528D01*
G01X12436Y56516D01*
G01X12388Y56505D01*
G01X12339Y56497D01*
G01X12290Y56491D01*
G01X12241Y56488D01*
G01X12192Y56487D01*
G01X12145Y56488D01*
G01X12098Y56491D01*
G01X12051Y56496D01*
G01X12005Y56503D01*
G01X11959Y56513D01*
G01X11914Y56524D01*
G01X11869Y56538D01*
G01X11825Y56553D01*
G01X11781Y56570D01*
G01X11738Y56590D01*
G01X11697Y56611D01*
G01X11656Y56634D01*
G01X11616Y56659D01*
G01X11578Y56686D01*
G01X11541Y56714D01*
G01X11505Y56744D01*
G01X11470Y56776D01*
G01X11437Y56809D01*
G01X11405Y56844D01*
G01X11375Y56880D01*
G01X11347Y56917D01*
G01X11320Y56955D01*
G01X11295Y56995D01*
G01X11272Y57036D01*
G01X11251Y57077D01*
G01X11231Y57120D01*
G01X11214Y57164D01*
G01X11199Y57208D01*
G01X11185Y57253D01*
G01X11174Y57298D01*
G01X11164Y57344D01*
G01X11157Y57390D01*
G01X11152Y57437D01*
G01X11149Y57484D01*
G01X11148Y57531D01*
G01X11149Y57577D01*
G01X11152Y57624D01*
G01X11157Y57671D01*
G01X11164Y57717D01*
G01X11174Y57763D01*
G01X11185Y57808D01*
G01X11199Y57853D01*
G01X11214Y57897D01*
G01X11231Y57941D01*
G01X11251Y57984D01*
G01X11272Y58025D01*
G01X11295Y58066D01*
G01X11320Y58106D01*
G01X11347Y58144D01*
G01X11375Y58181D01*
G01X11405Y58217D01*
G01X11437Y58252D01*
G01X11470Y58285D01*
G01X11505Y58317D01*
G01X11541Y58347D01*
G01X11578Y58375D01*
G01X11616Y58402D01*
G01X11656Y58427D01*
G01X11697Y58450D01*
G01X11738Y58471D01*
G01X11781Y58491D01*
G01X11825Y58508D01*
G01X11869Y58523D01*
G01X11914Y58537D01*
G01X11959Y58548D01*
G01X12005Y58558D01*
G01X12051Y58565D01*
G01X12098Y58570D01*
G01X12145Y58573D01*
G01X12192Y58574D01*
G01X12241Y58573D01*
G01X12290Y58570D01*
G01X12339Y58564D01*
G01X12388Y58556D01*
G01X12436Y58545D01*
G01X12484Y58533D01*
G01X12531Y58518D01*
G01X12578Y58500D01*
G01X12623Y58481D01*
G01X12668Y58460D01*
G01X12711Y58436D01*
G01X12754Y58410D01*
G01X12794Y58382D01*
G01X12808Y58374D01*
G01X12822Y58369D01*
G01X12838Y58365D01*
G01X12853Y58364D01*
G01X12868Y58365D01*
G01X12882Y58368D01*
G01X12896Y58373D01*
G01X12908Y58380D01*
G01X12920Y58389D01*
G01X12930Y58399D01*
G01X12939Y58410D01*
G01X12946Y58423D01*
G01X12951Y58437D01*
G01X12954Y58451D01*
G01X12955Y58466D01*
G01X12955Y59135D01*
G01X12954Y59150D01*
G01X12951Y59164D01*
G01X12946Y59178D01*
G01X12939Y59191D01*
G01X12930Y59202D01*
G01X12920Y59212D01*
G01X12908Y59221D01*
G01X12896Y59228D01*
G01X12882Y59233D01*
G01X12868Y59236D01*
G01X12853Y59237D01*
G01X12838Y59236D01*
G01X12822Y59232D01*
G01X12808Y59227D01*
G01X12794Y59219D01*
G01X12754Y59191D01*
G01X12711Y59165D01*
G01X12668Y59141D01*
G01X12623Y59120D01*
G01X12578Y59101D01*
G01X12531Y59083D01*
G01X12484Y59068D01*
G01X12436Y59056D01*
G01X12388Y59045D01*
G01X12339Y59037D01*
G01X12290Y59031D01*
G01X12241Y59028D01*
G01X12192Y59027D01*
G01X12145Y59028D01*
G01X12098Y59031D01*
G01X12051Y59036D01*
G01X12005Y59043D01*
G01X11959Y59053D01*
G01X11914Y59064D01*
G01X11869Y59078D01*
G01X11825Y59093D01*
G01X11781Y59110D01*
G01X11738Y59130D01*
G01X11697Y59151D01*
G01X11656Y59174D01*
G01X11616Y59199D01*
G01X11578Y59226D01*
G01X11541Y59254D01*
G01X11505Y59284D01*
G01X11470Y59316D01*
G01X11437Y59349D01*
G01X11405Y59384D01*
G01X11375Y59420D01*
G01X11347Y59457D01*
G01X11320Y59495D01*
G01X11295Y59535D01*
G01X11272Y59576D01*
G01X11251Y59617D01*
G01X11231Y59660D01*
G01X11214Y59704D01*
G01X11199Y59748D01*
G01X11185Y59793D01*
G01X11174Y59838D01*
G01X11164Y59884D01*
G01X11157Y59930D01*
G01X11152Y59977D01*
G01X11149Y60024D01*
G01X11148Y60071D01*
G01X11149Y60117D01*
G01X11152Y60164D01*
G01X11157Y60211D01*
G01X11164Y60257D01*
G01X11174Y60303D01*
G01X11185Y60348D01*
G01X11199Y60393D01*
G01X11214Y60437D01*
G01X11231Y60481D01*
G01X11251Y60524D01*
G01X11272Y60565D01*
G01X11295Y60606D01*
G01X11320Y60646D01*
G01X11347Y60684D01*
G01X11375Y60721D01*
G01X11405Y60757D01*
G01X11437Y60792D01*
G01X11470Y60825D01*
G01X11505Y60857D01*
G01X11541Y60887D01*
G01X11578Y60915D01*
G01X11616Y60942D01*
G01X11656Y60967D01*
G01X11697Y60990D01*
G01X11738Y61011D01*
G01X11781Y61031D01*
G01X11825Y61048D01*
G01X11869Y61063D01*
G01X11914Y61077D01*
G01X11959Y61088D01*
G01X12005Y61098D01*
G01X12051Y61105D01*
G01X12098Y61110D01*
G01X12145Y61113D01*
G01X12192Y61114D01*
G01X12241Y61113D01*
G01X12290Y61110D01*
G01X12339Y61104D01*
G01X12388Y61096D01*
G01X12436Y61085D01*
G01X12484Y61073D01*
G01X12531Y61058D01*
G01X12578Y61040D01*
G01X12623Y61021D01*
G01X12668Y61000D01*
G01X12711Y60976D01*
G01X12754Y60950D01*
G01X12794Y60922D01*
G01X12808Y60914D01*
G01X12822Y60909D01*
G01X12838Y60905D01*
G01X12853Y60904D01*
G01X12868Y60905D01*
G01X12882Y60908D01*
G01X12896Y60913D01*
G01X12908Y60920D01*
G01X12920Y60929D01*
G01X12930Y60939D01*
G01X12939Y60950D01*
G01X12946Y60963D01*
G01X12951Y60977D01*
G01X12954Y60991D01*
G01X12955Y61006D01*
G01X12955Y61089D01*
G01X12954Y61104D01*
G01X12950Y61120D01*
G01X12944Y61135D01*
G01X12936Y61148D01*
G01X12925Y61161D01*
G01X12520Y61566D01*
G01X12507Y61576D01*
G01X12494Y61584D01*
G01X12480Y61590D01*
G01X12464Y61595D01*
G01X12448Y61596D01*
G01X12425Y61593D01*
G01X12379Y61583D01*
G01X12333Y61576D01*
G01X12285Y61571D01*
G01X12239Y61568D01*
G01X12192Y61567D01*
G01X12145Y61568D01*
G01X12098Y61571D01*
G01X12051Y61576D01*
G01X12005Y61583D01*
G01X11959Y61593D01*
G01X11914Y61604D01*
G01X11869Y61618D01*
G01X11825Y61633D01*
G01X11781Y61650D01*
G01X11738Y61670D01*
G01X11697Y61691D01*
G01X11656Y61714D01*
G01X11616Y61739D01*
G01X11578Y61766D01*
G01X11541Y61794D01*
G01X11505Y61824D01*
G01X11470Y61856D01*
G01X11437Y61889D01*
G01X11405Y61924D01*
G01X11375Y61960D01*
G01X11347Y61997D01*
G01X11320Y62035D01*
G01X11295Y62075D01*
G01X11272Y62116D01*
G01X11251Y62157D01*
G01X11231Y62200D01*
G01X11214Y62244D01*
G01X11199Y62288D01*
G01X11185Y62333D01*
G01X11174Y62378D01*
G01X11164Y62424D01*
G01X11157Y62470D01*
G01X11152Y62517D01*
G01X11149Y62564D01*
G01X11148Y62611D01*
G01X11149Y62657D01*
G01X11152Y62704D01*
G01X11157Y62751D01*
G01X11164Y62797D01*
G01X11174Y62843D01*
G01X11185Y62888D01*
G01X11199Y62933D01*
G01X11214Y62977D01*
G01X11231Y63021D01*
G01X11251Y63064D01*
G01X11272Y63105D01*
G01X11295Y63146D01*
G01X11320Y63186D01*
G01X11347Y63224D01*
G01X11375Y63261D01*
G01X11405Y63297D01*
G01X11437Y63332D01*
G01X11470Y63365D01*
G01X11505Y63397D01*
G01X11541Y63427D01*
G01X11578Y63455D01*
G01X11616Y63482D01*
G01X11656Y63507D01*
G01X11697Y63530D01*
G01X11738Y63551D01*
G01X11781Y63571D01*
G01X11825Y63588D01*
G01X11869Y63603D01*
G01X11914Y63617D01*
G01X11959Y63628D01*
G01X12005Y63638D01*
G01X12051Y63645D01*
G01X12098Y63650D01*
G01X12145Y63653D01*
G01X12192Y63654D01*
G01X12238Y63653D01*
G01X12285Y63650D01*
G01X12332Y63645D01*
G01X12378Y63638D01*
G01X12424Y63628D01*
G01X12469Y63617D01*
G01X12514Y63603D01*
G01X12558Y63588D01*
G01X12602Y63571D01*
G01X12645Y63551D01*
G01X12686Y63530D01*
G01X12727Y63507D01*
G01X12767Y63482D01*
G01X12805Y63455D01*
G01X12842Y63427D01*
G01X12878Y63397D01*
G01X12913Y63365D01*
G01X12946Y63332D01*
G01X12978Y63297D01*
G01X13008Y63261D01*
G01X13036Y63224D01*
G01X13063Y63186D01*
G01X13088Y63146D01*
G01X13111Y63105D01*
G01X13132Y63064D01*
G01X13152Y63021D01*
G01X13169Y62977D01*
G01X13184Y62933D01*
G01X13198Y62888D01*
G01X13209Y62843D01*
G01X13219Y62797D01*
G01X13226Y62751D01*
G01X13231Y62704D01*
G01X13234Y62657D01*
G01X13235Y62611D01*
G01X13234Y62563D01*
G01X13231Y62517D01*
G01X13226Y62469D01*
G01X13219Y62423D01*
G01X13209Y62377D01*
G01X13206Y62354D01*
G01X13208Y62338D01*
G01X13212Y62322D01*
G01X13218Y62308D01*
G01X13226Y62295D01*
G01X13236Y62282D01*
G01X13820Y61699D01*
G01X13843Y61674D01*
G01X13863Y61649D01*
G01X13883Y61622D01*
G01X13900Y61594D01*
G01X13916Y61565D01*
G01X13929Y61535D01*
G01X13941Y61504D01*
G01X13951Y61472D01*
G01X13958Y61440D01*
G01X13964Y61407D01*
G01X13967Y61374D01*
G01X13968Y61341D01*
G01X13968Y61006D01*
G01X13969Y60991D01*
G01X13972Y60977D01*
G01X13977Y60963D01*
G01X13984Y60950D01*
G01X13993Y60939D01*
G01X14003Y60929D01*
G01X14015Y60920D01*
G01X14027Y60913D01*
G01X14041Y60908D01*
G01X14055Y60905D01*
G01X14070Y60904D01*
G01X14085Y60905D01*
G01X14101Y60909D01*
G01X14115Y60914D01*
G01X14129Y60922D01*
G01X14169Y60950D01*
G01X14212Y60976D01*
G01X14255Y61000D01*
G01X14300Y61021D01*
G01X14345Y61040D01*
G01X14392Y61058D01*
G01X14439Y61073D01*
G01X14487Y61085D01*
G01X14535Y61096D01*
G01X14584Y61104D01*
G01X14633Y61110D01*
G01X14682Y61113D01*
G01X14732Y61114D01*
G01X14778Y61113D01*
G01X14825Y61110D01*
G01X14872Y61105D01*
G01X14918Y61098D01*
G01X14964Y61088D01*
G01X15009Y61077D01*
G01X15054Y61063D01*
G01X15098Y61048D01*
G01X15142Y61031D01*
G01X15185Y61011D01*
G01X15226Y60990D01*
G01X15267Y60967D01*
G01X15307Y60942D01*
G01X15345Y60915D01*
G01X15382Y60887D01*
G01X15418Y60857D01*
G01X15453Y60825D01*
G01X15486Y60792D01*
G01X15518Y60757D01*
G01X15548Y60721D01*
G01X15576Y60684D01*
G01X15603Y60646D01*
G01X15628Y60606D01*
G01X15651Y60565D01*
G01X15672Y60524D01*
G01X15692Y60481D01*
G01X15709Y60437D01*
G01X15724Y60393D01*
G01X15738Y60348D01*
G01X15749Y60303D01*
G01X15759Y60257D01*
G01X15766Y60211D01*
G01X15771Y60164D01*
G01X15774Y60117D01*
G01X15775Y60071D01*
G01X15774Y60024D01*
G01X15771Y59977D01*
G01X15766Y59930D01*
G01X15759Y59884D01*
G01X15749Y59838D01*
G01X15738Y59793D01*
G01X15724Y59748D01*
G01X15709Y59704D01*
G01X15692Y59660D01*
G01X15672Y59617D01*
G01X15651Y59576D01*
G01X15628Y59535D01*
G01X15603Y59495D01*
G01X15576Y59457D01*
G01X15548Y59420D01*
G01X15518Y59384D01*
G01X15486Y59349D01*
G01X15453Y59316D01*
G01X15418Y59284D01*
G01X15382Y59254D01*
G01X15345Y59226D01*
G01X15307Y59199D01*
G01X15267Y59174D01*
G01X15226Y59151D01*
G01X15185Y59130D01*
G01X15142Y59110D01*
G01X15098Y59093D01*
G01X15054Y59078D01*
G01X15009Y59064D01*
G01X14964Y59053D01*
G01X14918Y59043D01*
G01X14872Y59036D01*
G01X14825Y59031D01*
G01X14778Y59028D01*
G01X14732Y59027D01*
G01X14682Y59028D01*
G01X14633Y59031D01*
G01X14584Y59037D01*
G01X14535Y59045D01*
G01X14487Y59056D01*
G01X14439Y59068D01*
G01X14392Y59083D01*
G01X14345Y59101D01*
G01X14300Y59120D01*
G01X14255Y59141D01*
G01X14212Y59165D01*
G01X14169Y59191D01*
G01X14129Y59219D01*
G01X14115Y59227D01*
G01X14101Y59232D01*
G01X14085Y59236D01*
G01X14070Y59237D01*
G01X14055Y59236D01*
G01X14041Y59233D01*
G01X14027Y59228D01*
G01X14015Y59221D01*
G01X14003Y59212D01*
G01X13993Y59202D01*
G01X13984Y59191D01*
G01X13977Y59178D01*
G01X13972Y59164D01*
G01X13969Y59150D01*
G01X13968Y59135D01*
G01X13968Y58466D01*
G01X13969Y58451D01*
G01X13972Y58437D01*
G01X13977Y58423D01*
G01X13984Y58410D01*
G01X13993Y58399D01*
G01X14003Y58389D01*
G01X14015Y58380D01*
G01X14027Y58373D01*
G01X14041Y58368D01*
G01X14055Y58365D01*
G01X14070Y58364D01*
G01X14085Y58365D01*
G01X14101Y58369D01*
G01X14115Y58374D01*
G01X14129Y58382D01*
G01X14169Y58410D01*
G01X14212Y58436D01*
G01X14255Y58460D01*
G01X14300Y58481D01*
G01X14345Y58500D01*
G01X14392Y58518D01*
G01X14439Y58533D01*
G01X14487Y58545D01*
G01X14535Y58556D01*
G01X14584Y58564D01*
G01X14633Y58570D01*
G01X14682Y58573D01*
G01X14732Y58574D01*
G01X14778Y58573D01*
G01X14825Y58570D01*
G01X14872Y58565D01*
G01X14918Y58558D01*
G01X14964Y58548D01*
G01X15009Y58537D01*
G01X15054Y58523D01*
G01X15098Y58508D01*
G01X15142Y58491D01*
G01X15185Y58471D01*
G01X15226Y58450D01*
G01X15267Y58427D01*
G01X15307Y58402D01*
G01X15345Y58375D01*
G01X15382Y58347D01*
G01X15418Y58317D01*
G01X15453Y58285D01*
G01X15486Y58252D01*
G01X15518Y58217D01*
G01X15548Y58181D01*
G01X15576Y58144D01*
G01X15603Y58106D01*
G01X15628Y58066D01*
G01X15651Y58025D01*
G01X15672Y57984D01*
G01X15692Y57941D01*
G01X15709Y57897D01*
G01X15724Y57853D01*
G01X15738Y57808D01*
G01X15749Y57763D01*
G01X15759Y57717D01*
G01X15766Y57671D01*
G01X15771Y57624D01*
G01X15774Y57577D01*
G01X15775Y57531D01*
G01X15774Y57484D01*
G01X15771Y57437D01*
G01X15766Y57390D01*
G01X15759Y57344D01*
G01X15749Y57298D01*
G01X15738Y57253D01*
G01X15724Y57208D01*
G01X15709Y57164D01*
G01X15692Y57120D01*
G01X15672Y57077D01*
G01X15651Y57036D01*
G01X15628Y56995D01*
G01X15603Y56955D01*
G01X15576Y56917D01*
G01X15548Y56880D01*
G01X15518Y56844D01*
G01X15486Y56809D01*
G01X15453Y56776D01*
G01X15418Y56744D01*
G01X15382Y56714D01*
G01X15345Y56686D01*
G01X15307Y56659D01*
G01X15267Y56634D01*
G01X15226Y56611D01*
G01X15185Y56590D01*
G01X15142Y56570D01*
G01X15098Y56553D01*
G01X15054Y56538D01*
G01X15009Y56524D01*
G01X14964Y56513D01*
G01X14918Y56503D01*
G01X14872Y56496D01*
G01X14825Y56491D01*
G01X14778Y56488D01*
G01X14732Y56487D01*
G01X14682Y56488D01*
G01X14633Y56491D01*
G01X14584Y56497D01*
G01X14535Y56505D01*
G01X14487Y56516D01*
G01X14439Y56528D01*
G01X14392Y56543D01*
G01X14345Y56561D01*
G01X14300Y56580D01*
G01X14255Y56601D01*
G01X14212Y56625D01*
G01X14169Y56651D01*
G01X14129Y56679D01*
G01X14115Y56687D01*
G01X14101Y56692D01*
G01X14085Y56696D01*
G01X14070Y56697D01*
G01X14055Y56696D01*
G01X14041Y56693D01*
G01X14027Y56688D01*
G01X14015Y56681D01*
G01X14003Y56672D01*
G01X13993Y56662D01*
G01X13984Y56651D01*
G01X13977Y56638D01*
G01X13972Y56624D01*
G01X13969Y56610D01*
G01X13968Y56595D01*
G01X13968Y55926D01*
G01X13969Y55911D01*
G01X13972Y55897D01*
G01X13977Y55883D01*
G01X13984Y55870D01*
G01X13993Y55859D01*
G01X14003Y55849D01*
G01X14015Y55840D01*
G01X14027Y55833D01*
G01X14041Y55828D01*
G01X14055Y55825D01*
G01X14070Y55824D01*
G01X14085Y55825D01*
G01X14101Y55829D01*
G01X14115Y55834D01*
G01X14129Y55842D01*
G01X14169Y55870D01*
G01X14212Y55896D01*
G01X14255Y55920D01*
G01X14300Y55941D01*
G01X14345Y55960D01*
G01X14392Y55978D01*
G01X14439Y55993D01*
G01X14487Y56005D01*
G01X14535Y56016D01*
G01X14584Y56024D01*
G01X14633Y56030D01*
G01X14682Y56033D01*
G01X14732Y56034D01*
G01X14783Y56033D01*
G01X14834Y56029D01*
G01X14885Y56023D01*
G01X14935Y56014D01*
G01X14986Y56003D01*
G01X15035Y55989D01*
G01X15084Y55973D01*
G01X15131Y55955D01*
G01X15150Y55949D01*
G01X15170Y55947D01*
G01X15186Y55949D01*
G01X15201Y55952D01*
G01X15216Y55958D01*
G01X15230Y55966D01*
G01X15242Y55977D01*
G01X16240Y56975D01*
G01X16250Y56987D01*
G01X16259Y57000D01*
G01X16265Y57015D01*
G01X16268Y57031D01*
G01X16270Y57046D01*
G01X16270Y58168D01*
G01X16269Y58182D01*
G01X16266Y58196D01*
G01X16261Y58210D01*
G01X16245Y58234D01*
G01X16235Y58244D01*
G01X16210Y58268D01*
G01X16187Y58293D01*
G01X16165Y58318D01*
G01X16145Y58346D01*
G01X16126Y58374D01*
G01X16109Y58404D01*
G01X16094Y58435D01*
G01X16081Y58466D01*
G01X16070Y58498D01*
G01X16061Y58531D01*
G01X16054Y58564D01*
G01X16049Y58598D01*
G01X16046Y58632D01*
G01X16045Y58666D01*
G01X16046Y58700D01*
G01X16049Y58733D01*
G01X16054Y58767D01*
G01X16061Y58801D01*
G01X16070Y58833D01*
G01X16081Y58865D01*
G01X16094Y58897D01*
G01X16109Y58927D01*
G01X16125Y58956D01*
G01X16144Y58985D01*
G01X16164Y59012D01*
G01X16186Y59038D01*
G01X16209Y59063D01*
G01X16234Y59086D01*
G01X16260Y59108D01*
G01X16287Y59128D01*
G01X16315Y59146D01*
G01X16345Y59163D01*
G01X16375Y59178D01*
G01X16407Y59191D01*
G01X16439Y59202D01*
G01X16471Y59211D01*
G01X16505Y59218D01*
G01X16538Y59223D01*
G01X16572Y59226D01*
G01X16606Y59227D01*
G01X16640Y59226D01*
G01X16674Y59223D01*
G01X16707Y59218D01*
G01X16741Y59211D01*
G01X16773Y59202D01*
G01X16805Y59191D01*
G01X16837Y59178D01*
G01X16867Y59163D01*
G01X16897Y59146D01*
G01X16925Y59128D01*
G01X16952Y59108D01*
G01X16978Y59086D01*
G01X17003Y59063D01*
G01X17026Y59038D01*
G01X17048Y59012D01*
G01X17068Y58985D01*
G01X17087Y58956D01*
G01X17103Y58927D01*
G01X17118Y58897D01*
G01X17131Y58865D01*
G01X17142Y58833D01*
G01X17151Y58801D01*
G01X17158Y58767D01*
G01X17163Y58733D01*
G01X17166Y58700D01*
G01X17167Y58666D01*
G01X17166Y58632D01*
G01X17163Y58598D01*
G01X17158Y58564D01*
G01X17151Y58531D01*
G01X17142Y58498D01*
G01X17131Y58466D01*
G01X17118Y58435D01*
G01X17103Y58404D01*
G01X17086Y58374D01*
G01X17067Y58346D01*
G01X17047Y58318D01*
G01X17025Y58293D01*
G01X17002Y58268D01*
G01X16977Y58244D01*
G01X16967Y58234D01*
G01X16951Y58210D01*
G01X16946Y58196D01*
G01X16943Y58182D01*
G01X16942Y58168D01*
G01X16942Y56865D01*
G01X16941Y56839D01*
G01X16938Y56812D01*
G01X16933Y56786D01*
G01X16926Y56761D01*
G01X16917Y56736D01*
G01X16906Y56712D01*
G01X16893Y56689D01*
G01X16878Y56667D01*
G01X16862Y56647D01*
G01X16844Y56627D01*
G01X15718Y55501D01*
G01X15707Y55489D01*
G01X15699Y55475D01*
G01X15693Y55460D01*
G01X15690Y55445D01*
G01X15688Y55429D01*
G01X15690Y55409D01*
G01X15696Y55390D01*
G01X15714Y55343D01*
G01X15730Y55294D01*
G01X15744Y55245D01*
G01X15755Y55194D01*
G01X15764Y55144D01*
G01X15770Y55093D01*
G01X15774Y55042D01*
G01X15775Y54991D01*
G01X15774Y54939D01*
G01X15770Y54888D01*
G01X15764Y54837D01*
G01X15755Y54787D01*
G01X15744Y54737D01*
G01X15730Y54687D01*
G01X15714Y54638D01*
G01X15696Y54591D01*
G01X15690Y54572D01*
G01X15688Y54552D01*
G01X15690Y54536D01*
G01X15693Y54521D01*
G01X15699Y54506D01*
G01X15707Y54492D01*
G01X15718Y54480D01*
G01X16481Y53717D01*
G01X16499Y53698D01*
G01X16515Y53677D01*
G01X16530Y53655D01*
G01X16543Y53632D01*
G01X16554Y53608D01*
G01X16563Y53583D01*
G01X16570Y53558D01*
G01X16575Y53532D01*
G01X16578Y53506D01*
G01X16579Y53479D01*
G01X16579Y30039D01*
G01X16581Y30023D01*
G01X16584Y30007D01*
G01X16590Y29992D01*
G01X16599Y29979D01*
G01X16609Y29967D01*
G01X24146Y22429D01*
G01X24158Y22419D01*
G01X24172Y22411D01*
G01X24187Y22405D01*
G01X24203Y22401D01*
G01X24218Y22400D01*
G01X24238Y22401D01*
G01X24257Y22407D01*
G01X24302Y22424D01*
G01X24348Y22439D01*
G01X24396Y22452D01*
G01X24443Y22462D01*
G01X24492Y22470D01*
G01X24540Y22476D01*
G01X24589Y22480D01*
G01X24638Y22481D01*
G01X24685Y22480D01*
G01X24731Y22476D01*
G01X24778Y22471D01*
G01X24825Y22464D01*
G01X24871Y22454D01*
G01X24917Y22442D01*
G01X24962Y22428D01*
G01X25006Y22412D01*
G01X25049Y22394D01*
G01X25092Y22374D01*
G01X25134Y22352D01*
G01X25174Y22328D01*
G01X25191Y22319D01*
G01X25210Y22314D01*
G01X25228Y22313D01*
G01X25243Y22314D01*
G01X25257Y22317D01*
G01X25270Y22322D01*
G01X25283Y22329D01*
G01X25294Y22338D01*
G01X25305Y22348D01*
G01X25314Y22360D01*
G01X25320Y22372D01*
G01X25325Y22386D01*
G01X25328Y22400D01*
G01X25330Y22414D01*
G01X25330Y23051D01*
G01X25328Y23065D01*
G01X25325Y23079D01*
G01X25320Y23093D01*
G01X25314Y23105D01*
G01X25305Y23117D01*
G01X25294Y23127D01*
G01X25283Y23136D01*
G01X25270Y23143D01*
G01X25257Y23148D01*
G01X25243Y23151D01*
G01X25228Y23152D01*
G01X25210Y23151D01*
G01X25191Y23146D01*
G01X25174Y23137D01*
G01X25134Y23113D01*
G01X25092Y23091D01*
G01X25049Y23071D01*
G01X25006Y23053D01*
G01X24962Y23037D01*
G01X24917Y23023D01*
G01X24871Y23011D01*
G01X24825Y23001D01*
G01X24778Y22994D01*
G01X24731Y22989D01*
G01X24685Y22985D01*
G01X24638Y22984D01*
G01X24592Y22985D01*
G01X24546Y22988D01*
G01X24501Y22993D01*
G01X24456Y23000D01*
G01X24411Y23009D01*
G01X24367Y23021D01*
G01X24323Y23034D01*
G01X24279Y23049D01*
G01X24237Y23066D01*
G01X24196Y23085D01*
G01X24155Y23105D01*
G01X24115Y23128D01*
G01X24076Y23153D01*
G01X24039Y23179D01*
G01X24003Y23206D01*
G01X23967Y23235D01*
G01X23933Y23266D01*
G01X23901Y23298D01*
G01X23870Y23332D01*
G01X23841Y23368D01*
G01X23814Y23404D01*
G01X23788Y23441D01*
G01X23763Y23480D01*
G01X23740Y23520D01*
G01X23720Y23561D01*
G01X23701Y23602D01*
G01X23684Y23644D01*
G01X23669Y23688D01*
G01X23656Y23732D01*
G01X23644Y23776D01*
G01X23635Y23821D01*
G01X23628Y23866D01*
G01X23623Y23911D01*
G01X23620Y23957D01*
G01X23619Y24003D01*
G01X23620Y24048D01*
G01X23623Y24094D01*
G01X23628Y24139D01*
G01X23635Y24184D01*
G01X23644Y24229D01*
G01X23656Y24273D01*
G01X23669Y24317D01*
G01X23684Y24361D01*
G01X23701Y24403D01*
G01X23720Y24444D01*
G01X23740Y24485D01*
G01X23763Y24525D01*
G01X23788Y24564D01*
G01X23814Y24601D01*
G01X23841Y24638D01*
G01X23870Y24673D01*
G01X23901Y24707D01*
G01X23933Y24739D01*
G01X23967Y24770D01*
G01X24003Y24799D01*
G01X24039Y24826D01*
G01X24076Y24852D01*
G01X24115Y24877D01*
G01X24155Y24900D01*
G01X24196Y24920D01*
G01X24237Y24939D01*
G01X24279Y24956D01*
G01X24323Y24971D01*
G01X24367Y24984D01*
G01X24411Y24996D01*
G01X24456Y25005D01*
G01X24501Y25012D01*
G01X24546Y25017D01*
G01X24592Y25020D01*
G01X24638Y25021D01*
G01X24685Y25020D01*
G01X24731Y25016D01*
G01X24778Y25011D01*
G01X24825Y25004D01*
G01X24871Y24994D01*
G01X24917Y24982D01*
G01X24962Y24968D01*
G01X25006Y24952D01*
G01X25049Y24934D01*
G01X25092Y24914D01*
G01X25134Y24892D01*
G01X25174Y24868D01*
G01X25191Y24859D01*
G01X25210Y24854D01*
G01X25228Y24853D01*
G01X25243Y24854D01*
G01X25257Y24857D01*
G01X25270Y24862D01*
G01X25283Y24869D01*
G01X25294Y24878D01*
G01X25305Y24888D01*
G01X25314Y24900D01*
G01X25320Y24912D01*
G01X25325Y24926D01*
G01X25328Y24940D01*
G01X25330Y24954D01*
G01X25330Y25591D01*
G01X25328Y25605D01*
G01X25325Y25619D01*
G01X25320Y25633D01*
G01X25314Y25645D01*
G01X25305Y25657D01*
G01X25294Y25667D01*
G01X25283Y25676D01*
G01X25270Y25683D01*
G01X25257Y25688D01*
G01X25243Y25691D01*
G01X25228Y25692D01*
G01X25210Y25691D01*
G01X25191Y25686D01*
G01X25174Y25677D01*
G01X25129Y25650D01*
G01X25082Y25626D01*
G01X25082Y26098D01*
G01X25228Y26098D01*
G01X25243Y26099D01*
G01X25257Y26102D01*
G01X25270Y26107D01*
G01X25283Y26114D01*
G01X25294Y26123D01*
G01X25305Y26133D01*
G01X25314Y26145D01*
G01X25320Y26157D01*
G01X25325Y26171D01*
G01X25328Y26185D01*
G01X25330Y26200D01*
G01X25330Y26885D01*
G01X25328Y26900D01*
G01X25325Y26914D01*
G01X25320Y26928D01*
G01X25314Y26940D01*
G01X25305Y26952D01*
G01X25294Y26962D01*
G01X25283Y26971D01*
G01X25270Y26978D01*
G01X25257Y26983D01*
G01X25243Y26986D01*
G01X25228Y26987D01*
G01X25082Y26987D01*
G01X25082Y27459D01*
G01X25129Y27435D01*
G01X25174Y27408D01*
G01X25191Y27399D01*
G01X25210Y27394D01*
G01X25228Y27393D01*
G01X25243Y27394D01*
G01X25257Y27397D01*
G01X25270Y27402D01*
G01X25283Y27409D01*
G01X25294Y27418D01*
G01X25305Y27428D01*
G01X25314Y27440D01*
G01X25320Y27452D01*
G01X25325Y27466D01*
G01X25328Y27480D01*
G01X25330Y27494D01*
G01X25330Y28131D01*
G01X25328Y28145D01*
G01X25325Y28159D01*
G01X25320Y28173D01*
G01X25314Y28185D01*
G01X25305Y28197D01*
G01X25294Y28207D01*
G01X25283Y28216D01*
G01X25270Y28223D01*
G01X25257Y28228D01*
G01X25243Y28231D01*
G01X25228Y28232D01*
G01X25210Y28231D01*
G01X25191Y28226D01*
G01X25174Y28217D01*
G01X25134Y28193D01*
G01X25092Y28171D01*
G01X25049Y28151D01*
G01X25006Y28133D01*
G01X24962Y28117D01*
G01X24917Y28103D01*
G01X24871Y28091D01*
G01X24825Y28081D01*
G01X24778Y28074D01*
G01X24731Y28069D01*
G01X24685Y28065D01*
G01X24638Y28064D01*
G01X24592Y28065D01*
G01X24546Y28068D01*
G01X24501Y28073D01*
G01X24456Y28080D01*
G01X24411Y28089D01*
G01X24367Y28101D01*
G01X24323Y28114D01*
G01X24279Y28129D01*
G01X24237Y28146D01*
G01X24196Y28165D01*
G01X24155Y28185D01*
G01X24115Y28208D01*
G01X24076Y28233D01*
G01X24039Y28259D01*
G01X24003Y28286D01*
G01X23967Y28315D01*
G01X23933Y28346D01*
G01X23901Y28378D01*
G01X23870Y28412D01*
G01X23841Y28448D01*
G01X23814Y28484D01*
G01X23788Y28521D01*
G01X23763Y28560D01*
G01X23740Y28600D01*
G01X23720Y28641D01*
G01X23701Y28682D01*
G01X23684Y28724D01*
G01X23669Y28768D01*
G01X23656Y28812D01*
G01X23644Y28856D01*
G01X23635Y28901D01*
G01X23628Y28946D01*
G01X23623Y28991D01*
G01X23620Y29037D01*
G01X23619Y29083D01*
G01X23620Y29128D01*
G01X23623Y29174D01*
G01X23628Y29219D01*
G01X23635Y29264D01*
G01X23644Y29309D01*
G01X23656Y29353D01*
G01X23669Y29397D01*
G01X23684Y29441D01*
G01X23701Y29483D01*
G01X23720Y29524D01*
G01X23740Y29565D01*
G01X23763Y29605D01*
G01X23788Y29644D01*
G01X23814Y29681D01*
G01X23841Y29718D01*
G01X23870Y29753D01*
G01X23901Y29787D01*
G01X23933Y29819D01*
G01X23967Y29850D01*
G01X24003Y29879D01*
G01X24039Y29906D01*
G01X24076Y29932D01*
G01X24115Y29957D01*
G01X24155Y29980D01*
G01X24196Y30000D01*
G01X24237Y30019D01*
G01X24279Y30036D01*
G01X24323Y30051D01*
G01X24367Y30064D01*
G01X24411Y30076D01*
G01X24456Y30085D01*
G01X24501Y30092D01*
G01X24546Y30097D01*
G01X24592Y30100D01*
G01X24638Y30101D01*
G01X24685Y30100D01*
G01X24731Y30096D01*
G01X24778Y30091D01*
G01X24825Y30084D01*
G01X24871Y30074D01*
G01X24917Y30062D01*
G01X24962Y30048D01*
G01X25006Y30032D01*
G01X25049Y30014D01*
G01X25092Y29994D01*
G01X25134Y29972D01*
G01X25174Y29948D01*
G01X25191Y29939D01*
G01X25210Y29934D01*
G01X25228Y29933D01*
G01X25243Y29934D01*
G01X25257Y29937D01*
G01X25270Y29942D01*
G01X25283Y29949D01*
G01X25294Y29958D01*
G01X25305Y29968D01*
G01X25314Y29980D01*
G01X25320Y29992D01*
G01X25325Y30006D01*
G01X25328Y30020D01*
G01X25330Y30034D01*
G01X25330Y30671D01*
G01X25328Y30685D01*
G01X25325Y30699D01*
G01X25320Y30713D01*
G01X25314Y30725D01*
G01X25305Y30737D01*
G01X25294Y30747D01*
G01X25283Y30756D01*
G01X25270Y30763D01*
G01X25257Y30768D01*
G01X25243Y30771D01*
G01X25228Y30772D01*
G01X25210Y30771D01*
G01X25191Y30766D01*
G01X25174Y30757D01*
G01X25134Y30733D01*
G01X25092Y30711D01*
G01X25049Y30691D01*
G01X25006Y30673D01*
G01X24962Y30657D01*
G01X24917Y30643D01*
G01X24871Y30631D01*
G01X24825Y30621D01*
G01X24778Y30614D01*
G01X24731Y30609D01*
G01X24685Y30605D01*
G01X24638Y30604D01*
G01X24592Y30605D01*
G01X24546Y30608D01*
G01X24501Y30613D01*
G01X24456Y30620D01*
G01X24411Y30629D01*
G01X24367Y30641D01*
G01X24323Y30654D01*
G01X24279Y30669D01*
G01X24237Y30686D01*
G01X24196Y30705D01*
G01X24155Y30725D01*
G01X24115Y30748D01*
G01X24076Y30773D01*
G01X24039Y30799D01*
G01X24003Y30826D01*
G01X23967Y30855D01*
G01X23933Y30886D01*
G01X23901Y30918D01*
G01X23870Y30952D01*
G01X23841Y30988D01*
G01X23814Y31024D01*
G01X23788Y31061D01*
G01X23763Y31100D01*
G01X23740Y31140D01*
G01X23720Y31181D01*
G01X23701Y31222D01*
G01X23684Y31264D01*
G01X23669Y31308D01*
G01X23656Y31352D01*
G01X23644Y31396D01*
G01X23635Y31441D01*
G01X23628Y31486D01*
G01X23623Y31531D01*
G01X23620Y31577D01*
G01X23619Y31623D01*
G01X23620Y31668D01*
G01X23623Y31714D01*
G01X23628Y31759D01*
G01X23635Y31804D01*
G01X23644Y31849D01*
G01X23656Y31893D01*
G01X23669Y31937D01*
G01X23684Y31981D01*
G01X23701Y32023D01*
G01X23720Y32064D01*
G01X23740Y32105D01*
G01X23763Y32145D01*
G01X23788Y32184D01*
G01X23814Y32221D01*
G01X23841Y32258D01*
G01X23870Y32293D01*
G01X23901Y32327D01*
G01X23933Y32359D01*
G01X23967Y32390D01*
G01X24003Y32419D01*
G01X24039Y32446D01*
G01X24076Y32472D01*
G01X24115Y32497D01*
G01X24155Y32520D01*
G01X24196Y32540D01*
G01X24237Y32559D01*
G01X24279Y32576D01*
G01X24323Y32591D01*
G01X24367Y32604D01*
G01X24411Y32616D01*
G01X24456Y32625D01*
G01X24501Y32632D01*
G01X24546Y32637D01*
G01X24592Y32640D01*
G01X24638Y32641D01*
G01X24685Y32640D01*
G01X24731Y32636D01*
G01X24778Y32631D01*
G01X24825Y32624D01*
G01X24871Y32614D01*
G01X24917Y32602D01*
G01X24962Y32588D01*
G01X25006Y32572D01*
G01X25049Y32554D01*
G01X25092Y32534D01*
G01X25134Y32512D01*
G01X25174Y32488D01*
G01X25191Y32479D01*
G01X25210Y32474D01*
G01X25228Y32473D01*
G01X25243Y32474D01*
G01X25257Y32477D01*
G01X25270Y32482D01*
G01X25283Y32489D01*
G01X25294Y32498D01*
G01X25305Y32508D01*
G01X25314Y32520D01*
G01X25320Y32532D01*
G01X25325Y32546D01*
G01X25328Y32560D01*
G01X25330Y32574D01*
G01X25330Y33211D01*
G01X25328Y33225D01*
G01X25325Y33239D01*
G01X25320Y33253D01*
G01X25314Y33265D01*
G01X25305Y33277D01*
G01X25294Y33287D01*
G01X25283Y33296D01*
G01X25270Y33303D01*
G01X25257Y33308D01*
G01X25243Y33311D01*
G01X25228Y33312D01*
G01X25210Y33311D01*
G01X25191Y33306D01*
G01X25174Y33297D01*
G01X25134Y33273D01*
G01X25092Y33251D01*
G01X25049Y33231D01*
G01X25006Y33213D01*
G01X24962Y33197D01*
G01X24917Y33183D01*
G01X24871Y33171D01*
G01X24825Y33161D01*
G01X24778Y33154D01*
G01X24731Y33149D01*
G01X24685Y33145D01*
G01X24638Y33144D01*
G01X24592Y33145D01*
G01X24546Y33148D01*
G01X24501Y33153D01*
G01X24456Y33160D01*
G01X24411Y33169D01*
G01X24367Y33181D01*
G01X24323Y33194D01*
G01X24279Y33209D01*
G01X24237Y33226D01*
G01X24196Y33245D01*
G01X24155Y33265D01*
G01X24115Y33288D01*
G01X24076Y33313D01*
G01X24039Y33339D01*
G01X24003Y33366D01*
G01X23967Y33395D01*
G01X23933Y33426D01*
G01X23901Y33458D01*
G01X23870Y33492D01*
G01X23841Y33528D01*
G01X23814Y33564D01*
G01X23788Y33601D01*
G01X23763Y33640D01*
G01X23740Y33680D01*
G01X23720Y33721D01*
G01X23701Y33762D01*
G01X23684Y33804D01*
G01X23669Y33848D01*
G01X23656Y33892D01*
G01X23644Y33936D01*
G01X23635Y33981D01*
G01X23628Y34026D01*
G01X23623Y34071D01*
G01X23620Y34117D01*
G01X23619Y34163D01*
G01X23620Y34208D01*
G01X23623Y34254D01*
G01X23628Y34299D01*
G01X23635Y34344D01*
G01X23644Y34389D01*
G01X23656Y34433D01*
G01X23669Y34477D01*
G01X23684Y34521D01*
G01X23701Y34563D01*
G01X23720Y34604D01*
G01X23740Y34645D01*
G01X23763Y34685D01*
G01X23788Y34724D01*
G01X23814Y34761D01*
G01X23841Y34798D01*
G01X23870Y34833D01*
G01X23901Y34867D01*
G01X23933Y34899D01*
G01X23967Y34930D01*
G01X24003Y34959D01*
G01X24039Y34986D01*
G01X24076Y35012D01*
G01X24115Y35037D01*
G01X24155Y35060D01*
G01X24196Y35080D01*
G01X24237Y35099D01*
G01X24279Y35116D01*
G01X24323Y35131D01*
G01X24367Y35144D01*
G01X24411Y35156D01*
G01X24456Y35165D01*
G01X24501Y35172D01*
G01X24546Y35177D01*
G01X24592Y35180D01*
G01X24638Y35181D01*
G01X24685Y35180D01*
G01X24731Y35176D01*
G01X24778Y35171D01*
G01X24825Y35164D01*
G01X24871Y35154D01*
G01X24917Y35142D01*
G01X24962Y35128D01*
G01X25006Y35112D01*
G01X25049Y35094D01*
G01X25092Y35074D01*
G01X25134Y35052D01*
G01X25174Y35028D01*
G01X25191Y35019D01*
G01X25210Y35014D01*
G01X25228Y35013D01*
G01X25243Y35014D01*
G01X25257Y35017D01*
G01X25270Y35022D01*
G01X25283Y35029D01*
G01X25294Y35038D01*
G01X25305Y35048D01*
G01X25314Y35060D01*
G01X25320Y35072D01*
G01X25325Y35086D01*
G01X25328Y35100D01*
G01X25330Y35114D01*
G01X25330Y35751D01*
G01X25328Y35765D01*
G01X25325Y35779D01*
G01X25320Y35793D01*
G01X25314Y35805D01*
G01X25305Y35817D01*
G01X25294Y35827D01*
G01X25283Y35836D01*
G01X25270Y35843D01*
G01X25257Y35848D01*
G01X25243Y35851D01*
G01X25228Y35852D01*
G01X25210Y35851D01*
G01X25191Y35846D01*
G01X25174Y35837D01*
G01X25134Y35813D01*
G01X25092Y35791D01*
G01X25049Y35771D01*
G01X25006Y35753D01*
G01X24962Y35737D01*
G01X24917Y35723D01*
G01X24871Y35711D01*
G01X24825Y35701D01*
G01X24778Y35694D01*
G01X24731Y35689D01*
G01X24685Y35685D01*
G01X24638Y35684D01*
G01X24592Y35685D01*
G01X24546Y35688D01*
G01X24501Y35693D01*
G01X24456Y35700D01*
G01X24411Y35709D01*
G01X24367Y35721D01*
G01X24323Y35734D01*
G01X24279Y35749D01*
G01X24237Y35766D01*
G01X24196Y35785D01*
G01X24155Y35805D01*
G01X24115Y35828D01*
G01X24076Y35853D01*
G01X24039Y35879D01*
G01X24003Y35906D01*
G01X23967Y35935D01*
G01X23933Y35966D01*
G01X23901Y35998D01*
G01X23870Y36032D01*
G01X23841Y36068D01*
G01X23814Y36104D01*
G01X23788Y36141D01*
G01X23763Y36180D01*
G01X23740Y36220D01*
G01X23720Y36261D01*
G01X23701Y36302D01*
G01X23684Y36344D01*
G01X23669Y36388D01*
G01X23656Y36432D01*
G01X23644Y36476D01*
G01X23635Y36521D01*
G01X23628Y36566D01*
G01X23623Y36611D01*
G01X23620Y36657D01*
G01X23619Y36703D01*
G01X23620Y36748D01*
G01X23623Y36794D01*
G01X23628Y36839D01*
G01X23635Y36884D01*
G01X23644Y36929D01*
G01X23656Y36973D01*
G01X23669Y37017D01*
G01X23684Y37061D01*
G01X23701Y37103D01*
G01X23720Y37144D01*
G01X23740Y37185D01*
G01X23763Y37225D01*
G01X23788Y37264D01*
G01X23814Y37301D01*
G01X23841Y37338D01*
G01X23870Y37373D01*
G01X23901Y37407D01*
G01X23933Y37439D01*
G01X23967Y37470D01*
G01X24003Y37499D01*
G01X24039Y37526D01*
G01X24076Y37552D01*
G01X24115Y37577D01*
G01X24155Y37600D01*
G01X24196Y37620D01*
G01X24237Y37639D01*
G01X24279Y37656D01*
G01X24323Y37671D01*
G01X24367Y37684D01*
G01X24411Y37696D01*
G01X24456Y37705D01*
G01X24501Y37712D01*
G01X24546Y37717D01*
G01X24592Y37720D01*
G01X24638Y37721D01*
G01X24685Y37720D01*
G01X24731Y37716D01*
G01X24778Y37711D01*
G01X24825Y37704D01*
G01X24871Y37694D01*
G01X24917Y37682D01*
G01X24962Y37668D01*
G01X25006Y37652D01*
G01X25049Y37634D01*
G01X25092Y37614D01*
G01X25134Y37592D01*
G01X25174Y37568D01*
G01X25191Y37559D01*
G01X25210Y37554D01*
G01X25228Y37553D01*
G01X25243Y37554D01*
G01X25257Y37557D01*
G01X25270Y37562D01*
G01X25283Y37569D01*
G01X25294Y37578D01*
G01X25305Y37588D01*
G01X25314Y37600D01*
G01X25320Y37612D01*
G01X25325Y37626D01*
G01X25328Y37640D01*
G01X25330Y37654D01*
G01X25330Y38291D01*
G01X25328Y38305D01*
G01X25325Y38319D01*
G01X25320Y38333D01*
G01X25314Y38345D01*
G01X25305Y38357D01*
G01X25294Y38367D01*
G01X25283Y38376D01*
G01X25270Y38383D01*
G01X25257Y38388D01*
G01X25243Y38391D01*
G01X25228Y38392D01*
G01X25210Y38391D01*
G01X25191Y38386D01*
G01X25174Y38377D01*
G01X25134Y38353D01*
G01X25092Y38331D01*
G01X25049Y38311D01*
G01X25006Y38293D01*
G01X24962Y38277D01*
G01X24917Y38263D01*
G01X24871Y38251D01*
G01X24825Y38241D01*
G01X24778Y38234D01*
G01X24731Y38229D01*
G01X24685Y38225D01*
G01X24638Y38224D01*
G01X24592Y38225D01*
G01X24546Y38228D01*
G01X24501Y38233D01*
G01X24456Y38240D01*
G01X24411Y38249D01*
G01X24367Y38261D01*
G01X24323Y38274D01*
G01X24279Y38289D01*
G01X24237Y38306D01*
G01X24196Y38325D01*
G01X24155Y38345D01*
G01X24115Y38368D01*
G01X24076Y38393D01*
G01X24039Y38419D01*
G01X24003Y38446D01*
G01X23967Y38475D01*
G01X23933Y38506D01*
G01X23901Y38538D01*
G01X23870Y38572D01*
G01X23841Y38608D01*
G01X23814Y38644D01*
G01X23788Y38681D01*
G01X23763Y38720D01*
G01X23740Y38760D01*
G01X23720Y38801D01*
G01X23701Y38842D01*
G01X23684Y38884D01*
G01X23669Y38928D01*
G01X23656Y38972D01*
G01X23644Y39016D01*
G01X23635Y39061D01*
G01X23628Y39106D01*
G01X23623Y39151D01*
G01X23620Y39197D01*
G01X23619Y39243D01*
G01X23620Y39288D01*
G01X23623Y39334D01*
G01X23628Y39379D01*
G01X23635Y39424D01*
G01X23644Y39469D01*
G01X23656Y39513D01*
G01X23669Y39557D01*
G01X23684Y39601D01*
G01X23701Y39643D01*
G01X23720Y39684D01*
G01X23740Y39725D01*
G01X23763Y39765D01*
G01X23788Y39804D01*
G01X23814Y39841D01*
G01X23841Y39878D01*
G01X23870Y39913D01*
G01X23901Y39947D01*
G01X23933Y39979D01*
G01X23967Y40010D01*
G01X24003Y40039D01*
G01X24039Y40066D01*
G01X24076Y40092D01*
G01X24115Y40117D01*
G01X24155Y40140D01*
G01X24196Y40160D01*
G01X24237Y40179D01*
G01X24279Y40196D01*
G01X24323Y40211D01*
G01X24367Y40224D01*
G01X24411Y40236D01*
G01X24456Y40245D01*
G01X24501Y40252D01*
G01X24546Y40257D01*
G01X24592Y40260D01*
G01X24638Y40261D01*
G01X24685Y40260D01*
G01X24731Y40256D01*
G01X24778Y40251D01*
G01X24825Y40244D01*
G01X24871Y40234D01*
G01X24917Y40222D01*
G01X24962Y40208D01*
G01X25006Y40192D01*
G01X25049Y40174D01*
G01X25092Y40154D01*
G01X25134Y40132D01*
G01X25174Y40108D01*
G01X25191Y40099D01*
G01X25210Y40094D01*
G01X25228Y40093D01*
G01X25243Y40094D01*
G01X25257Y40097D01*
G01X25270Y40102D01*
G01X25283Y40109D01*
G01X25294Y40118D01*
G01X25305Y40128D01*
G01X25314Y40140D01*
G01X25320Y40152D01*
G01X25325Y40166D01*
G01X25328Y40180D01*
G01X25330Y40194D01*
G01X25330Y40831D01*
G01X25328Y40845D01*
G01X25325Y40859D01*
G01X25320Y40873D01*
G01X25314Y40885D01*
G01X25305Y40897D01*
G01X25294Y40907D01*
G01X25283Y40916D01*
G01X25270Y40923D01*
G01X25257Y40928D01*
G01X25243Y40931D01*
G01X25228Y40932D01*
G01X25210Y40931D01*
G01X25191Y40926D01*
G01X25174Y40917D01*
G01X25134Y40893D01*
G01X25092Y40871D01*
G01X25049Y40851D01*
G01X25006Y40833D01*
G01X24962Y40817D01*
G01X24917Y40803D01*
G01X24871Y40791D01*
G01X24825Y40781D01*
G01X24778Y40774D01*
G01X24731Y40769D01*
G01X24685Y40765D01*
G01X24638Y40764D01*
G01X24592Y40765D01*
G01X24546Y40768D01*
G01X24501Y40773D01*
G01X24456Y40780D01*
G01X24411Y40789D01*
G01X24367Y40801D01*
G01X24323Y40814D01*
G01X24279Y40829D01*
G01X24237Y40846D01*
G01X24196Y40865D01*
G01X24155Y40885D01*
G01X24115Y40908D01*
G01X24076Y40933D01*
G01X24039Y40959D01*
G01X24003Y40986D01*
G01X23967Y41015D01*
G01X23933Y41046D01*
G01X23901Y41078D01*
G01X23870Y41112D01*
G01X23841Y41148D01*
G01X23814Y41184D01*
G01X23788Y41221D01*
G01X23763Y41260D01*
G01X23740Y41300D01*
G01X23720Y41341D01*
G01X23701Y41382D01*
G01X23684Y41424D01*
G01X23669Y41468D01*
G01X23656Y41512D01*
G01X23644Y41556D01*
G01X23635Y41601D01*
G01X23628Y41646D01*
G01X23623Y41691D01*
G01X23620Y41737D01*
G01X23619Y41783D01*
G01X23620Y41828D01*
G01X23623Y41874D01*
G01X23628Y41919D01*
G01X23635Y41964D01*
G01X23644Y42009D01*
G01X23656Y42053D01*
G01X23669Y42097D01*
G01X23684Y42141D01*
G01X23701Y42183D01*
G01X23720Y42224D01*
G01X23740Y42265D01*
G01X23763Y42305D01*
G01X23788Y42344D01*
G01X23814Y42381D01*
G01X23841Y42418D01*
G01X23870Y42453D01*
G01X23901Y42487D01*
G01X23933Y42519D01*
G01X23967Y42550D01*
G01X24003Y42579D01*
G01X24039Y42606D01*
G01X24076Y42632D01*
G01X24115Y42657D01*
G01X24155Y42680D01*
G01X24196Y42700D01*
G01X24237Y42719D01*
G01X24279Y42736D01*
G01X24323Y42751D01*
G01X24367Y42764D01*
G01X24411Y42776D01*
G01X24456Y42785D01*
G01X24501Y42792D01*
G01X24546Y42797D01*
G01X24592Y42800D01*
G01X24638Y42801D01*
G01X24685Y42800D01*
G01X24731Y42796D01*
G01X24778Y42791D01*
G01X24825Y42784D01*
G01X24871Y42774D01*
G01X24917Y42762D01*
G01X24962Y42748D01*
G01X25006Y42732D01*
G01X25049Y42714D01*
G01X25092Y42694D01*
G01X25134Y42672D01*
G01X25174Y42648D01*
G01X25191Y42639D01*
G01X25210Y42634D01*
G01X25228Y42633D01*
G01X25243Y42634D01*
G01X25257Y42637D01*
G01X25270Y42642D01*
G01X25283Y42649D01*
G01X25294Y42658D01*
G01X25305Y42668D01*
G01X25314Y42680D01*
G01X25320Y42692D01*
G01X25325Y42706D01*
G01X25328Y42720D01*
G01X25330Y42734D01*
G01X25330Y43008D01*
G01X25328Y43024D01*
G01X25325Y43040D01*
G01X25319Y43055D01*
G01X25310Y43068D01*
G01X25300Y43080D01*
G01X22970Y45411D01*
G01X22951Y45430D01*
G01X22935Y45451D01*
G01X22920Y45473D01*
G01X22908Y45495D01*
G01X22897Y45519D01*
G01X22887Y45544D01*
G01X22880Y45570D01*
G01X22875Y45596D01*
G01X22872Y45622D01*
G01X22871Y45648D01*
G01X22871Y49991D01*
G01X22870Y50005D01*
G01X22867Y50020D01*
G01X22862Y50033D01*
G01X22855Y50046D01*
G01X22846Y50057D01*
G01X22836Y50068D01*
G01X22824Y50077D01*
G01X22812Y50083D01*
G01X22798Y50088D01*
G01X22784Y50091D01*
G01X22770Y50093D01*
G01X22753Y50091D01*
G01X22738Y50088D01*
G01X22723Y50082D01*
G01X22710Y50073D01*
G01X22697Y50063D01*
G01X22639Y50004D01*
G01X22620Y49987D01*
G01X22600Y49972D01*
G01X22578Y49959D01*
G01X22555Y49948D01*
G01X22532Y49940D01*
G01X22507Y49934D01*
G01X22482Y49930D01*
G01X22457Y49929D01*
G01X21738Y49929D01*
G01X21713Y49930D01*
G01X21688Y49934D01*
G01X21663Y49940D01*
G01X21640Y49948D01*
G01X21617Y49959D01*
G01X21595Y49972D01*
G01X21575Y49987D01*
G01X21556Y50004D01*
G01X21048Y50512D01*
G01X21031Y50531D01*
G01X21016Y50551D01*
G01X21003Y50573D01*
G01X20992Y50596D01*
G01X20984Y50619D01*
G01X20978Y50644D01*
G01X20974Y50669D01*
G01X20973Y50694D01*
G01X20973Y51413D01*
G01X20974Y51438D01*
G01X20978Y51463D01*
G01X20984Y51488D01*
G01X20992Y51511D01*
G01X21003Y51534D01*
G01X21016Y51556D01*
G01X21031Y51576D01*
G01X21048Y51595D01*
G01X21556Y52103D01*
G01X21575Y52120D01*
G01X21595Y52135D01*
G01X21617Y52148D01*
G01X21640Y52159D01*
G01X21663Y52167D01*
G01X21688Y52173D01*
G01X21713Y52177D01*
G01X21738Y52178D01*
G01X22457Y52178D01*
G01X22482Y52177D01*
G01X22507Y52173D01*
G01X22532Y52167D01*
G01X22555Y52159D01*
G01X22578Y52148D01*
G01X22600Y52135D01*
G01X22620Y52120D01*
G01X22639Y52103D01*
G01X22697Y52044D01*
G01X22710Y52034D01*
G01X22723Y52025D01*
G01X22738Y52019D01*
G01X22753Y52016D01*
G01X22770Y52014D01*
G01X22784Y52016D01*
G01X22798Y52019D01*
G01X22812Y52024D01*
G01X22824Y52030D01*
G01X22836Y52039D01*
G01X22846Y52050D01*
G01X22855Y52061D01*
G01X22862Y52074D01*
G01X22867Y52087D01*
G01X22870Y52102D01*
G01X22871Y52116D01*
G01X22871Y52531D01*
G01X22870Y52545D01*
G01X22867Y52560D01*
G01X22862Y52573D01*
G01X22855Y52586D01*
G01X22846Y52597D01*
G01X22836Y52608D01*
G01X22824Y52617D01*
G01X22812Y52623D01*
G01X22798Y52628D01*
G01X22784Y52631D01*
G01X22770Y52633D01*
G01X22753Y52631D01*
G01X22738Y52628D01*
G01X22723Y52622D01*
G01X22710Y52613D01*
G01X22697Y52603D01*
G01X22639Y52544D01*
G01X22620Y52527D01*
G01X22600Y52512D01*
G01X22578Y52499D01*
G01X22555Y52488D01*
G01X22532Y52480D01*
G01X22507Y52474D01*
G01X22482Y52470D01*
G01X22457Y52469D01*
G01X21738Y52469D01*
G01X21713Y52470D01*
G01X21688Y52474D01*
G01X21663Y52480D01*
G01X21640Y52488D01*
G01X21617Y52499D01*
G01X21595Y52512D01*
G01X21575Y52527D01*
G01X21556Y52544D01*
G01X21048Y53052D01*
G01X21031Y53071D01*
G01X21016Y53091D01*
G01X21003Y53113D01*
G01X20992Y53136D01*
G01X20984Y53159D01*
G01X20978Y53184D01*
G01X20974Y53209D01*
G01X20973Y53234D01*
G01X20973Y53953D01*
G01X20974Y53978D01*
G01X20978Y54003D01*
G01X20984Y54028D01*
G01X20992Y54051D01*
G01X21003Y54074D01*
G01X21016Y54096D01*
G01X21031Y54116D01*
G01X21048Y54135D01*
G01X21556Y54643D01*
G01X21576Y54660D01*
G01X21597Y54676D01*
G01X21619Y54689D01*
G01X21642Y54700D01*
G01X21667Y54708D01*
G01X21692Y54714D01*
G01X21718Y54717D01*
G01X21733Y54720D01*
G01X21747Y54724D01*
G01X21761Y54731D01*
G01X21773Y54740D01*
G01X21785Y54750D01*
G01X21794Y54761D01*
G01X21802Y54775D01*
G01X21807Y54789D01*
G01X21810Y54804D01*
G01X21812Y54819D01*
G01X21810Y54835D01*
G01X21806Y54851D01*
G01X21800Y54866D01*
G01X21784Y54902D01*
G01X21772Y54939D01*
G01X21767Y54952D01*
G01X21761Y54965D01*
G01X21753Y54977D01*
G01X21731Y54997D01*
G01X21719Y55004D01*
G01X21706Y55009D01*
G01X21692Y55013D01*
G01X21667Y55019D01*
G01X21642Y55027D01*
G01X21618Y55038D01*
G01X21597Y55051D01*
G01X21576Y55067D01*
G01X21556Y55084D01*
G01X21048Y55592D01*
G01X21031Y55611D01*
G01X21016Y55631D01*
G01X21003Y55653D01*
G01X20992Y55676D01*
G01X20984Y55699D01*
G01X20978Y55724D01*
G01X20974Y55749D01*
G01X20973Y55774D01*
G01X20973Y56493D01*
G01X20974Y56518D01*
G01X20978Y56543D01*
G01X20984Y56568D01*
G01X20992Y56591D01*
G01X21003Y56614D01*
G01X21016Y56636D01*
G01X21031Y56656D01*
G01X21048Y56675D01*
G01X21556Y57183D01*
G01X21575Y57200D01*
G01X21595Y57215D01*
G01X21617Y57228D01*
G01X21640Y57239D01*
G01X21663Y57247D01*
G01X21688Y57253D01*
G01X21713Y57257D01*
G01X21738Y57258D01*
G01X22457Y57258D01*
G01X22482Y57257D01*
G01X22507Y57253D01*
G01X22532Y57247D01*
G01X22555Y57239D01*
G01X22578Y57228D01*
G01X22600Y57215D01*
G01X22620Y57200D01*
G01X22639Y57183D01*
G01X23147Y56675D01*
G01X23164Y56656D01*
G01X23179Y56636D01*
G01X23192Y56614D01*
G01X23203Y56591D01*
G01X23211Y56568D01*
G01X23217Y56543D01*
G01X23221Y56518D01*
G01X23222Y56493D01*
G01X23222Y55774D01*
G01X23221Y55749D01*
G01X23217Y55724D01*
G01X23211Y55699D01*
G01X23203Y55676D01*
G01X23192Y55653D01*
G01X23179Y55631D01*
G01X23164Y55611D01*
G01X23147Y55592D01*
G01X22786Y55231D01*
G01X22776Y55219D01*
G01X22768Y55206D01*
G01X22761Y55191D01*
G01X22757Y55175D01*
G01X22756Y55160D01*
G01X22757Y55144D01*
G01X22761Y55128D01*
G01X22768Y55113D01*
G01X22776Y55100D01*
G01X22786Y55088D01*
G01X23445Y54428D01*
G01X23464Y54408D01*
G01X23481Y54386D01*
G01X23496Y54363D01*
G01X23509Y54339D01*
G01X23520Y54314D01*
G01X23530Y54288D01*
G01X23535Y54274D01*
G01X23542Y54262D01*
G01X23550Y54250D01*
G01X23561Y54240D01*
G01X23572Y54232D01*
G01X23585Y54224D01*
G01X23599Y54220D01*
G01X23612Y54217D01*
G01X23627Y54216D01*
G01X23643Y54217D01*
G01X23658Y54220D01*
G01X23673Y54226D01*
G01X23687Y54235D01*
G01X23699Y54245D01*
G01X24096Y54643D01*
G01X24116Y54660D01*
G01X24137Y54676D01*
G01X24159Y54689D01*
G01X24182Y54700D01*
G01X24207Y54708D01*
G01X24232Y54714D01*
G01X24258Y54717D01*
G01X24273Y54720D01*
G01X24287Y54724D01*
G01X24301Y54731D01*
G01X24313Y54740D01*
G01X24325Y54750D01*
G01X24334Y54761D01*
G01X24342Y54775D01*
G01X24347Y54789D01*
G01X24350Y54804D01*
G01X24352Y54819D01*
G01X24350Y54835D01*
G01X24346Y54851D01*
G01X24340Y54866D01*
G01X24324Y54902D01*
G01X24312Y54939D01*
G01X24307Y54952D01*
G01X24301Y54965D01*
G01X24293Y54977D01*
G01X24271Y54997D01*
G01X24259Y55004D01*
G01X24246Y55009D01*
G01X24232Y55013D01*
G01X24207Y55019D01*
G01X24182Y55027D01*
G01X24158Y55038D01*
G01X24137Y55051D01*
G01X24116Y55067D01*
G01X24096Y55084D01*
G01X23588Y55592D01*
G01X23571Y55611D01*
G01X23556Y55631D01*
G01X23543Y55653D01*
G01X23532Y55676D01*
G01X23524Y55699D01*
G01X23518Y55724D01*
G01X23514Y55749D01*
G01X23513Y55774D01*
G01X23513Y56493D01*
G01X23514Y56518D01*
G01X23518Y56543D01*
G01X23524Y56568D01*
G01X23532Y56591D01*
G01X23543Y56614D01*
G01X23556Y56636D01*
G01X23571Y56656D01*
G01X23588Y56675D01*
G01X24096Y57183D01*
G01X24115Y57200D01*
G01X24135Y57215D01*
G01X24157Y57228D01*
G01X24180Y57239D01*
G01X24203Y57247D01*
G01X24228Y57253D01*
G01X24253Y57257D01*
G01X24278Y57258D01*
G01X24997Y57258D01*
G01X25022Y57257D01*
G01X25047Y57253D01*
G01X25072Y57247D01*
G01X25095Y57239D01*
G01X25118Y57228D01*
G01X25140Y57215D01*
G01X25160Y57200D01*
G01X25179Y57183D01*
G01X25687Y56675D01*
G01X25704Y56656D01*
G01X25719Y56636D01*
G01X25732Y56614D01*
G01X25743Y56591D01*
G01X25751Y56568D01*
G01X25757Y56543D01*
G01X25761Y56518D01*
G01X25762Y56493D01*
G01X25762Y55774D01*
G01X25761Y55749D01*
G01X25757Y55724D01*
G01X25751Y55699D01*
G01X25743Y55676D01*
G01X25732Y55653D01*
G01X25719Y55631D01*
G01X25704Y55611D01*
G01X25687Y55592D01*
G01X25326Y55231D01*
G01X25316Y55219D01*
G01X25308Y55206D01*
G01X25301Y55191D01*
G01X25297Y55175D01*
G01X25296Y55160D01*
G01X25297Y55144D01*
G01X25301Y55128D01*
G01X25308Y55113D01*
G01X25316Y55100D01*
G01X25326Y55088D01*
G01X25986Y54428D01*
G01X25997Y54418D01*
G01X26011Y54410D01*
G01X26026Y54404D01*
G01X26042Y54400D01*
G01X26057Y54399D01*
G01X26072Y54400D01*
G01X26086Y54403D01*
G01X26100Y54408D01*
G01X26112Y54414D01*
G01X26124Y54424D01*
G01X26134Y54434D01*
G01X26143Y54445D01*
G01X26150Y54458D01*
G01X26155Y54471D01*
G01X26158Y54486D01*
G01X26159Y54500D01*
G01X26159Y64167D01*
G01X26158Y64226D01*
G01X26155Y64285D01*
G01X26150Y64345D01*
G01X26143Y64404D01*
G01X26134Y64463D01*
G01X26122Y64521D01*
G01X26109Y64580D01*
G01X26094Y64637D01*
G01X26077Y64694D01*
G01X26058Y64750D01*
G01X26038Y64806D01*
G01X26015Y64861D01*
G01X25990Y64915D01*
G01X25963Y64969D01*
G01X25935Y65021D01*
G01X25905Y65072D01*
G01X25873Y65123D01*
G01X25840Y65172D01*
G01X25805Y65220D01*
G01X25768Y65267D01*
G01X25730Y65313D01*
G01X25690Y65357D01*
G01X25606Y65441D01*
G01X25562Y65481D01*
G01X25516Y65519D01*
G01X25469Y65556D01*
G01X25421Y65591D01*
G01X25372Y65624D01*
G01X25321Y65656D01*
G01X25270Y65686D01*
G01X25218Y65714D01*
G01X25164Y65741D01*
G01X25110Y65766D01*
G01X25055Y65789D01*
G01X24999Y65809D01*
G01X24943Y65828D01*
G01X24886Y65845D01*
G01X24829Y65860D01*
G01X24770Y65873D01*
G01X24712Y65885D01*
G01X24653Y65894D01*
G01X24594Y65901D01*
G01X24534Y65906D01*
G01X24475Y65909D01*
G01X24416Y65910D01*
G37*

%LPC*%
G36*
G01X1280Y64251D02*
G01X1280Y64838D01*
G01X1257Y64822D01*
G01X1236Y64803D01*
G01X728Y64295D01*
G01X709Y64274D01*
G01X693Y64251D01*
G01X1280Y64251D01*
G37*
G36*
G01X1333Y8318D02*
G01X861Y8318D01*
G01X883Y8275D01*
G01X908Y8233D01*
G01X934Y8192D01*
G01X962Y8152D01*
G01X992Y8114D01*
G01X1024Y8077D01*
G01X1057Y8042D01*
G01X1092Y8009D01*
G01X1129Y7977D01*
G01X1167Y7947D01*
G01X1207Y7919D01*
G01X1248Y7893D01*
G01X1290Y7868D01*
G01X1333Y7846D01*
G01X1333Y8318D01*
G37*
G36*
G01X2694Y8318D02*
G01X2222Y8318D01*
G01X2222Y7846D01*
G01X2265Y7868D01*
G01X2307Y7893D01*
G01X2348Y7919D01*
G01X2388Y7947D01*
G01X2426Y7977D01*
G01X2463Y8009D01*
G01X2498Y8042D01*
G01X2531Y8077D01*
G01X2563Y8114D01*
G01X2593Y8152D01*
G01X2621Y8192D01*
G01X2647Y8233D01*
G01X2672Y8275D01*
G01X2694Y8318D01*
G37*
G36*
G01X25554Y8318D02*
G01X25082Y8318D01*
G01X25082Y7846D01*
G01X25125Y7868D01*
G01X25167Y7893D01*
G01X25208Y7919D01*
G01X25248Y7947D01*
G01X25286Y7977D01*
G01X25323Y8009D01*
G01X25358Y8042D01*
G01X25391Y8077D01*
G01X25423Y8114D01*
G01X25453Y8152D01*
G01X25481Y8192D01*
G01X25507Y8233D01*
G01X25532Y8275D01*
G01X25554Y8318D01*
G37*
G36*
G01X24193Y8318D02*
G01X23721Y8318D01*
G01X23743Y8275D01*
G01X23768Y8233D01*
G01X23794Y8192D01*
G01X23822Y8152D01*
G01X23852Y8114D01*
G01X23884Y8077D01*
G01X23917Y8042D01*
G01X23952Y8009D01*
G01X23989Y7977D01*
G01X24027Y7947D01*
G01X24067Y7919D01*
G01X24108Y7893D01*
G01X24150Y7868D01*
G01X24193Y7846D01*
G01X24193Y8318D01*
G37*
G36*
G01X1333Y9207D02*
G01X1333Y9679D01*
G01X1290Y9657D01*
G01X1248Y9632D01*
G01X1207Y9606D01*
G01X1167Y9578D01*
G01X1129Y9548D01*
G01X1092Y9516D01*
G01X1057Y9483D01*
G01X1024Y9448D01*
G01X992Y9411D01*
G01X962Y9373D01*
G01X934Y9333D01*
G01X908Y9292D01*
G01X883Y9250D01*
G01X861Y9207D01*
G01X1333Y9207D01*
G37*
G36*
G01X2265Y9657D02*
G01X2222Y9679D01*
G01X2222Y9207D01*
G01X2694Y9207D01*
G01X2672Y9250D01*
G01X2647Y9292D01*
G01X2621Y9333D01*
G01X2593Y9373D01*
G01X2563Y9411D01*
G01X2531Y9448D01*
G01X2498Y9483D01*
G01X2463Y9516D01*
G01X2426Y9548D01*
G01X2388Y9578D01*
G01X2348Y9606D01*
G01X2307Y9632D01*
G01X2265Y9657D01*
G37*
G36*
G01X24193Y9207D02*
G01X24193Y9679D01*
G01X24150Y9657D01*
G01X24108Y9632D01*
G01X24067Y9606D01*
G01X24027Y9578D01*
G01X23989Y9548D01*
G01X23952Y9516D01*
G01X23917Y9483D01*
G01X23884Y9448D01*
G01X23852Y9411D01*
G01X23822Y9373D01*
G01X23794Y9333D01*
G01X23768Y9292D01*
G01X23743Y9250D01*
G01X23721Y9207D01*
G01X24193Y9207D01*
G37*
G36*
G01X25125Y9657D02*
G01X25082Y9679D01*
G01X25082Y9207D01*
G01X25554Y9207D01*
G01X25532Y9250D01*
G01X25507Y9292D01*
G01X25481Y9333D01*
G01X25453Y9373D01*
G01X25423Y9411D01*
G01X25391Y9448D01*
G01X25358Y9483D01*
G01X25323Y9516D01*
G01X25286Y9548D01*
G01X25248Y9578D01*
G01X25208Y9606D01*
G01X25167Y9632D01*
G01X25125Y9657D01*
G37*
G36*
G01X24683Y12320D02*
G01X24638Y12321D01*
G01X24592Y12320D01*
G01X24546Y12317D01*
G01X24501Y12312D01*
G01X24456Y12305D01*
G01X24411Y12296D01*
G01X24367Y12284D01*
G01X24323Y12271D01*
G01X24279Y12256D01*
G01X24237Y12239D01*
G01X24196Y12220D01*
G01X24155Y12200D01*
G01X24115Y12177D01*
G01X24076Y12152D01*
G01X24039Y12126D01*
G01X24003Y12099D01*
G01X23967Y12070D01*
G01X23933Y12039D01*
G01X23901Y12007D01*
G01X23870Y11973D01*
G01X23841Y11938D01*
G01X23814Y11901D01*
G01X23788Y11864D01*
G01X23763Y11825D01*
G01X23740Y11785D01*
G01X23720Y11744D01*
G01X23701Y11703D01*
G01X23684Y11661D01*
G01X23669Y11617D01*
G01X23656Y11573D01*
G01X23644Y11529D01*
G01X23635Y11484D01*
G01X23628Y11439D01*
G01X23623Y11394D01*
G01X23620Y11348D01*
G01X23619Y11303D01*
G01X23620Y11257D01*
G01X23623Y11211D01*
G01X23628Y11166D01*
G01X23635Y11121D01*
G01X23644Y11076D01*
G01X23656Y11032D01*
G01X23669Y10988D01*
G01X23684Y10944D01*
G01X23701Y10902D01*
G01X23720Y10861D01*
G01X23740Y10820D01*
G01X23763Y10780D01*
G01X23788Y10741D01*
G01X23814Y10704D01*
G01X23841Y10668D01*
G01X23870Y10632D01*
G01X23901Y10598D01*
G01X23933Y10566D01*
G01X23967Y10535D01*
G01X24003Y10506D01*
G01X24039Y10479D01*
G01X24076Y10453D01*
G01X24115Y10428D01*
G01X24155Y10405D01*
G01X24196Y10385D01*
G01X24237Y10366D01*
G01X24279Y10349D01*
G01X24323Y10334D01*
G01X24367Y10321D01*
G01X24411Y10309D01*
G01X24456Y10300D01*
G01X24501Y10293D01*
G01X24546Y10288D01*
G01X24592Y10285D01*
G01X24638Y10284D01*
G01X24683Y10285D01*
G01X24729Y10288D01*
G01X24774Y10293D01*
G01X24819Y10300D01*
G01X24864Y10309D01*
G01X24908Y10321D01*
G01X24952Y10334D01*
G01X24996Y10349D01*
G01X25038Y10366D01*
G01X25079Y10385D01*
G01X25120Y10405D01*
G01X25160Y10428D01*
G01X25199Y10453D01*
G01X25236Y10479D01*
G01X25273Y10506D01*
G01X25308Y10535D01*
G01X25342Y10566D01*
G01X25374Y10598D01*
G01X25405Y10632D01*
G01X25434Y10668D01*
G01X25461Y10704D01*
G01X25487Y10741D01*
G01X25512Y10780D01*
G01X25535Y10820D01*
G01X25555Y10861D01*
G01X25574Y10902D01*
G01X25591Y10944D01*
G01X25606Y10988D01*
G01X25619Y11032D01*
G01X25631Y11076D01*
G01X25640Y11121D01*
G01X25647Y11166D01*
G01X25652Y11211D01*
G01X25655Y11257D01*
G01X25656Y11303D01*
G01X25655Y11348D01*
G01X25652Y11394D01*
G01X25647Y11439D01*
G01X25640Y11484D01*
G01X25631Y11529D01*
G01X25619Y11573D01*
G01X25606Y11617D01*
G01X25591Y11661D01*
G01X25574Y11703D01*
G01X25555Y11744D01*
G01X25535Y11785D01*
G01X25512Y11825D01*
G01X25487Y11864D01*
G01X25461Y11901D01*
G01X25434Y11938D01*
G01X25405Y11973D01*
G01X25374Y12007D01*
G01X25342Y12039D01*
G01X25308Y12070D01*
G01X25273Y12099D01*
G01X25236Y12126D01*
G01X25199Y12152D01*
G01X25160Y12177D01*
G01X25120Y12200D01*
G01X25079Y12220D01*
G01X25038Y12239D01*
G01X24996Y12256D01*
G01X24952Y12271D01*
G01X24908Y12284D01*
G01X24864Y12296D01*
G01X24819Y12305D01*
G01X24774Y12312D01*
G01X24729Y12317D01*
G01X24683Y12320D01*
G37*
G36*
G01X1823Y12320D02*
G01X1778Y12321D01*
G01X1732Y12320D01*
G01X1686Y12317D01*
G01X1641Y12312D01*
G01X1596Y12305D01*
G01X1551Y12296D01*
G01X1507Y12284D01*
G01X1463Y12271D01*
G01X1419Y12256D01*
G01X1377Y12239D01*
G01X1336Y12220D01*
G01X1295Y12200D01*
G01X1255Y12177D01*
G01X1216Y12152D01*
G01X1179Y12126D01*
G01X1143Y12099D01*
G01X1107Y12070D01*
G01X1073Y12039D01*
G01X1041Y12007D01*
G01X1010Y11973D01*
G01X981Y11938D01*
G01X954Y11901D01*
G01X928Y11864D01*
G01X903Y11825D01*
G01X880Y11785D01*
G01X860Y11744D01*
G01X841Y11703D01*
G01X824Y11661D01*
G01X809Y11617D01*
G01X796Y11573D01*
G01X784Y11529D01*
G01X775Y11484D01*
G01X768Y11439D01*
G01X763Y11394D01*
G01X760Y11348D01*
G01X759Y11303D01*
G01X760Y11257D01*
G01X763Y11211D01*
G01X768Y11166D01*
G01X775Y11121D01*
G01X784Y11076D01*
G01X796Y11032D01*
G01X809Y10988D01*
G01X824Y10944D01*
G01X841Y10902D01*
G01X860Y10861D01*
G01X880Y10820D01*
G01X903Y10780D01*
G01X928Y10741D01*
G01X954Y10704D01*
G01X981Y10668D01*
G01X1010Y10632D01*
G01X1041Y10598D01*
G01X1073Y10566D01*
G01X1107Y10535D01*
G01X1143Y10506D01*
G01X1179Y10479D01*
G01X1216Y10453D01*
G01X1255Y10428D01*
G01X1295Y10405D01*
G01X1336Y10385D01*
G01X1377Y10366D01*
G01X1419Y10349D01*
G01X1463Y10334D01*
G01X1507Y10321D01*
G01X1551Y10309D01*
G01X1596Y10300D01*
G01X1641Y10293D01*
G01X1686Y10288D01*
G01X1732Y10285D01*
G01X1778Y10284D01*
G01X1823Y10285D01*
G01X1869Y10288D01*
G01X1914Y10293D01*
G01X1959Y10300D01*
G01X2004Y10309D01*
G01X2048Y10321D01*
G01X2092Y10334D01*
G01X2136Y10349D01*
G01X2178Y10366D01*
G01X2219Y10385D01*
G01X2260Y10405D01*
G01X2300Y10428D01*
G01X2339Y10453D01*
G01X2376Y10479D01*
G01X2413Y10506D01*
G01X2448Y10535D01*
G01X2482Y10566D01*
G01X2514Y10598D01*
G01X2545Y10632D01*
G01X2574Y10668D01*
G01X2601Y10704D01*
G01X2627Y10741D01*
G01X2652Y10780D01*
G01X2675Y10820D01*
G01X2695Y10861D01*
G01X2714Y10902D01*
G01X2731Y10944D01*
G01X2746Y10988D01*
G01X2759Y11032D01*
G01X2771Y11076D01*
G01X2780Y11121D01*
G01X2787Y11166D01*
G01X2792Y11211D01*
G01X2795Y11257D01*
G01X2796Y11303D01*
G01X2795Y11348D01*
G01X2792Y11394D01*
G01X2787Y11439D01*
G01X2780Y11484D01*
G01X2771Y11529D01*
G01X2759Y11573D01*
G01X2746Y11617D01*
G01X2731Y11661D01*
G01X2714Y11703D01*
G01X2695Y11744D01*
G01X2675Y11785D01*
G01X2652Y11825D01*
G01X2627Y11864D01*
G01X2601Y11901D01*
G01X2574Y11938D01*
G01X2545Y11973D01*
G01X2514Y12007D01*
G01X2482Y12039D01*
G01X2448Y12070D01*
G01X2413Y12099D01*
G01X2376Y12126D01*
G01X2339Y12152D01*
G01X2300Y12177D01*
G01X2260Y12200D01*
G01X2219Y12220D01*
G01X2178Y12239D01*
G01X2136Y12256D01*
G01X2092Y12271D01*
G01X2048Y12284D01*
G01X2004Y12296D01*
G01X1959Y12305D01*
G01X1914Y12312D01*
G01X1869Y12317D01*
G01X1823Y12320D01*
G37*
G36*
G01X1823Y14860D02*
G01X1778Y14861D01*
G01X1732Y14860D01*
G01X1686Y14857D01*
G01X1641Y14852D01*
G01X1596Y14845D01*
G01X1551Y14836D01*
G01X1507Y14824D01*
G01X1463Y14811D01*
G01X1419Y14796D01*
G01X1377Y14779D01*
G01X1336Y14760D01*
G01X1295Y14740D01*
G01X1255Y14717D01*
G01X1216Y14692D01*
G01X1179Y14666D01*
G01X1143Y14639D01*
G01X1107Y14610D01*
G01X1073Y14579D01*
G01X1041Y14547D01*
G01X1010Y14513D01*
G01X981Y14478D01*
G01X954Y14441D01*
G01X928Y14404D01*
G01X903Y14365D01*
G01X880Y14325D01*
G01X860Y14284D01*
G01X841Y14243D01*
G01X824Y14201D01*
G01X809Y14157D01*
G01X796Y14113D01*
G01X784Y14069D01*
G01X775Y14024D01*
G01X768Y13979D01*
G01X763Y13934D01*
G01X760Y13888D01*
G01X759Y13843D01*
G01X760Y13797D01*
G01X763Y13751D01*
G01X768Y13706D01*
G01X775Y13661D01*
G01X784Y13616D01*
G01X796Y13572D01*
G01X809Y13528D01*
G01X824Y13484D01*
G01X841Y13442D01*
G01X860Y13401D01*
G01X880Y13360D01*
G01X903Y13320D01*
G01X928Y13281D01*
G01X954Y13244D01*
G01X981Y13208D01*
G01X1010Y13172D01*
G01X1041Y13138D01*
G01X1073Y13106D01*
G01X1107Y13075D01*
G01X1143Y13046D01*
G01X1179Y13019D01*
G01X1216Y12993D01*
G01X1255Y12968D01*
G01X1295Y12945D01*
G01X1336Y12925D01*
G01X1377Y12906D01*
G01X1419Y12889D01*
G01X1463Y12874D01*
G01X1507Y12861D01*
G01X1551Y12849D01*
G01X1596Y12840D01*
G01X1641Y12833D01*
G01X1686Y12828D01*
G01X1732Y12825D01*
G01X1778Y12824D01*
G01X1823Y12825D01*
G01X1869Y12828D01*
G01X1914Y12833D01*
G01X1959Y12840D01*
G01X2004Y12849D01*
G01X2048Y12861D01*
G01X2092Y12874D01*
G01X2136Y12889D01*
G01X2178Y12906D01*
G01X2219Y12925D01*
G01X2260Y12945D01*
G01X2300Y12968D01*
G01X2339Y12993D01*
G01X2376Y13019D01*
G01X2413Y13046D01*
G01X2448Y13075D01*
G01X2482Y13106D01*
G01X2514Y13138D01*
G01X2545Y13172D01*
G01X2574Y13208D01*
G01X2601Y13244D01*
G01X2627Y13281D01*
G01X2652Y13320D01*
G01X2675Y13360D01*
G01X2695Y13401D01*
G01X2714Y13442D01*
G01X2731Y13484D01*
G01X2746Y13528D01*
G01X2759Y13572D01*
G01X2771Y13616D01*
G01X2780Y13661D01*
G01X2787Y13706D01*
G01X2792Y13751D01*
G01X2795Y13797D01*
G01X2796Y13843D01*
G01X2795Y13888D01*
G01X2792Y13934D01*
G01X2787Y13979D01*
G01X2780Y14024D01*
G01X2771Y14069D01*
G01X2759Y14113D01*
G01X2746Y14157D01*
G01X2731Y14201D01*
G01X2714Y14243D01*
G01X2695Y14284D01*
G01X2675Y14325D01*
G01X2652Y14365D01*
G01X2627Y14404D01*
G01X2601Y14441D01*
G01X2574Y14478D01*
G01X2545Y14513D01*
G01X2514Y14547D01*
G01X2482Y14579D01*
G01X2448Y14610D01*
G01X2413Y14639D01*
G01X2376Y14666D01*
G01X2339Y14692D01*
G01X2300Y14717D01*
G01X2260Y14740D01*
G01X2219Y14760D01*
G01X2178Y14779D01*
G01X2136Y14796D01*
G01X2092Y14811D01*
G01X2048Y14824D01*
G01X2004Y14836D01*
G01X1959Y14845D01*
G01X1914Y14852D01*
G01X1869Y14857D01*
G01X1823Y14860D01*
G37*
G36*
G01X1333Y18478D02*
G01X861Y18478D01*
G01X883Y18435D01*
G01X908Y18393D01*
G01X934Y18352D01*
G01X962Y18312D01*
G01X992Y18274D01*
G01X1024Y18237D01*
G01X1057Y18202D01*
G01X1092Y18169D01*
G01X1129Y18137D01*
G01X1167Y18107D01*
G01X1207Y18079D01*
G01X1248Y18053D01*
G01X1290Y18028D01*
G01X1333Y18006D01*
G01X1333Y18478D01*
G37*
G36*
G01X2694Y18478D02*
G01X2222Y18478D01*
G01X2222Y18006D01*
G01X2265Y18028D01*
G01X2307Y18053D01*
G01X2348Y18079D01*
G01X2388Y18107D01*
G01X2426Y18137D01*
G01X2463Y18169D01*
G01X2498Y18202D01*
G01X2531Y18237D01*
G01X2563Y18274D01*
G01X2593Y18312D01*
G01X2621Y18352D01*
G01X2647Y18393D01*
G01X2672Y18435D01*
G01X2694Y18478D01*
G37*
G36*
G01X2265Y19817D02*
G01X2222Y19839D01*
G01X2222Y19367D01*
G01X2694Y19367D01*
G01X2672Y19410D01*
G01X2647Y19452D01*
G01X2621Y19493D01*
G01X2593Y19533D01*
G01X2563Y19571D01*
G01X2531Y19608D01*
G01X2498Y19643D01*
G01X2463Y19676D01*
G01X2426Y19708D01*
G01X2388Y19738D01*
G01X2348Y19766D01*
G01X2307Y19792D01*
G01X2265Y19817D01*
G37*
G36*
G01X1333Y19367D02*
G01X1333Y19839D01*
G01X1290Y19817D01*
G01X1248Y19792D01*
G01X1207Y19766D01*
G01X1167Y19738D01*
G01X1129Y19708D01*
G01X1092Y19676D01*
G01X1057Y19643D01*
G01X1024Y19608D01*
G01X992Y19571D01*
G01X962Y19533D01*
G01X934Y19493D01*
G01X908Y19452D01*
G01X883Y19410D01*
G01X861Y19367D01*
G01X1333Y19367D01*
G37*
G36*
G01X1823Y22480D02*
G01X1778Y22481D01*
G01X1732Y22480D01*
G01X1686Y22477D01*
G01X1641Y22472D01*
G01X1596Y22465D01*
G01X1551Y22456D01*
G01X1507Y22444D01*
G01X1463Y22431D01*
G01X1419Y22416D01*
G01X1377Y22399D01*
G01X1336Y22380D01*
G01X1295Y22360D01*
G01X1255Y22337D01*
G01X1216Y22312D01*
G01X1179Y22286D01*
G01X1143Y22259D01*
G01X1107Y22230D01*
G01X1073Y22199D01*
G01X1041Y22167D01*
G01X1010Y22133D01*
G01X981Y22098D01*
G01X954Y22061D01*
G01X928Y22024D01*
G01X903Y21985D01*
G01X880Y21945D01*
G01X860Y21904D01*
G01X841Y21863D01*
G01X824Y21821D01*
G01X809Y21777D01*
G01X796Y21733D01*
G01X784Y21689D01*
G01X775Y21644D01*
G01X768Y21599D01*
G01X763Y21554D01*
G01X760Y21508D01*
G01X759Y21463D01*
G01X760Y21417D01*
G01X763Y21371D01*
G01X768Y21326D01*
G01X775Y21281D01*
G01X784Y21236D01*
G01X796Y21192D01*
G01X809Y21148D01*
G01X824Y21104D01*
G01X841Y21062D01*
G01X860Y21021D01*
G01X880Y20980D01*
G01X903Y20940D01*
G01X928Y20901D01*
G01X954Y20864D01*
G01X981Y20828D01*
G01X1010Y20792D01*
G01X1041Y20758D01*
G01X1073Y20726D01*
G01X1107Y20695D01*
G01X1143Y20666D01*
G01X1179Y20639D01*
G01X1216Y20613D01*
G01X1255Y20588D01*
G01X1295Y20565D01*
G01X1336Y20545D01*
G01X1377Y20526D01*
G01X1419Y20509D01*
G01X1463Y20494D01*
G01X1507Y20481D01*
G01X1551Y20469D01*
G01X1596Y20460D01*
G01X1641Y20453D01*
G01X1686Y20448D01*
G01X1732Y20445D01*
G01X1778Y20444D01*
G01X1823Y20445D01*
G01X1869Y20448D01*
G01X1914Y20453D01*
G01X1959Y20460D01*
G01X2004Y20469D01*
G01X2048Y20481D01*
G01X2092Y20494D01*
G01X2136Y20509D01*
G01X2178Y20526D01*
G01X2219Y20545D01*
G01X2260Y20565D01*
G01X2300Y20588D01*
G01X2339Y20613D01*
G01X2376Y20639D01*
G01X2413Y20666D01*
G01X2448Y20695D01*
G01X2482Y20726D01*
G01X2514Y20758D01*
G01X2545Y20792D01*
G01X2574Y20828D01*
G01X2601Y20864D01*
G01X2627Y20901D01*
G01X2652Y20940D01*
G01X2675Y20980D01*
G01X2695Y21021D01*
G01X2714Y21062D01*
G01X2731Y21104D01*
G01X2746Y21148D01*
G01X2759Y21192D01*
G01X2771Y21236D01*
G01X2780Y21281D01*
G01X2787Y21326D01*
G01X2792Y21371D01*
G01X2795Y21417D01*
G01X2796Y21463D01*
G01X2795Y21508D01*
G01X2792Y21554D01*
G01X2787Y21599D01*
G01X2780Y21644D01*
G01X2771Y21689D01*
G01X2759Y21733D01*
G01X2746Y21777D01*
G01X2731Y21821D01*
G01X2714Y21863D01*
G01X2695Y21904D01*
G01X2675Y21945D01*
G01X2652Y21985D01*
G01X2627Y22024D01*
G01X2601Y22061D01*
G01X2574Y22098D01*
G01X2545Y22133D01*
G01X2514Y22167D01*
G01X2482Y22199D01*
G01X2448Y22230D01*
G01X2413Y22259D01*
G01X2376Y22286D01*
G01X2339Y22312D01*
G01X2300Y22337D01*
G01X2260Y22360D01*
G01X2219Y22380D01*
G01X2178Y22399D01*
G01X2136Y22416D01*
G01X2092Y22431D01*
G01X2048Y22444D01*
G01X2004Y22456D01*
G01X1959Y22465D01*
G01X1914Y22472D01*
G01X1869Y22477D01*
G01X1823Y22480D01*
G37*
G36*
G01X1823Y25020D02*
G01X1778Y25021D01*
G01X1732Y25020D01*
G01X1686Y25017D01*
G01X1641Y25012D01*
G01X1596Y25005D01*
G01X1551Y24996D01*
G01X1507Y24984D01*
G01X1463Y24971D01*
G01X1419Y24956D01*
G01X1377Y24939D01*
G01X1336Y24920D01*
G01X1295Y24900D01*
G01X1255Y24877D01*
G01X1216Y24852D01*
G01X1179Y24826D01*
G01X1143Y24799D01*
G01X1107Y24770D01*
G01X1073Y24739D01*
G01X1041Y24707D01*
G01X1010Y24673D01*
G01X981Y24638D01*
G01X954Y24601D01*
G01X928Y24564D01*
G01X903Y24525D01*
G01X880Y24485D01*
G01X860Y24444D01*
G01X841Y24403D01*
G01X824Y24361D01*
G01X809Y24317D01*
G01X796Y24273D01*
G01X784Y24229D01*
G01X775Y24184D01*
G01X768Y24139D01*
G01X763Y24094D01*
G01X760Y24048D01*
G01X759Y24003D01*
G01X760Y23957D01*
G01X763Y23911D01*
G01X768Y23866D01*
G01X775Y23821D01*
G01X784Y23776D01*
G01X796Y23732D01*
G01X809Y23688D01*
G01X824Y23644D01*
G01X841Y23602D01*
G01X860Y23561D01*
G01X880Y23520D01*
G01X903Y23480D01*
G01X928Y23441D01*
G01X954Y23404D01*
G01X981Y23368D01*
G01X1010Y23332D01*
G01X1041Y23298D01*
G01X1073Y23266D01*
G01X1107Y23235D01*
G01X1143Y23206D01*
G01X1179Y23179D01*
G01X1216Y23153D01*
G01X1255Y23128D01*
G01X1295Y23105D01*
G01X1336Y23085D01*
G01X1377Y23066D01*
G01X1419Y23049D01*
G01X1463Y23034D01*
G01X1507Y23021D01*
G01X1551Y23009D01*
G01X1596Y23000D01*
G01X1641Y22993D01*
G01X1686Y22988D01*
G01X1732Y22985D01*
G01X1778Y22984D01*
G01X1823Y22985D01*
G01X1869Y22988D01*
G01X1914Y22993D01*
G01X1959Y23000D01*
G01X2004Y23009D01*
G01X2048Y23021D01*
G01X2092Y23034D01*
G01X2136Y23049D01*
G01X2178Y23066D01*
G01X2219Y23085D01*
G01X2260Y23105D01*
G01X2300Y23128D01*
G01X2339Y23153D01*
G01X2376Y23179D01*
G01X2413Y23206D01*
G01X2448Y23235D01*
G01X2482Y23266D01*
G01X2514Y23298D01*
G01X2545Y23332D01*
G01X2574Y23368D01*
G01X2601Y23404D01*
G01X2627Y23441D01*
G01X2652Y23480D01*
G01X2675Y23520D01*
G01X2695Y23561D01*
G01X2714Y23602D01*
G01X2731Y23644D01*
G01X2746Y23688D01*
G01X2759Y23732D01*
G01X2771Y23776D01*
G01X2780Y23821D01*
G01X2787Y23866D01*
G01X2792Y23911D01*
G01X2795Y23957D01*
G01X2796Y24003D01*
G01X2795Y24048D01*
G01X2792Y24094D01*
G01X2787Y24139D01*
G01X2780Y24184D01*
G01X2771Y24229D01*
G01X2759Y24273D01*
G01X2746Y24317D01*
G01X2731Y24361D01*
G01X2714Y24403D01*
G01X2695Y24444D01*
G01X2675Y24485D01*
G01X2652Y24525D01*
G01X2627Y24564D01*
G01X2601Y24601D01*
G01X2574Y24638D01*
G01X2545Y24673D01*
G01X2514Y24707D01*
G01X2482Y24739D01*
G01X2448Y24770D01*
G01X2413Y24799D01*
G01X2376Y24826D01*
G01X2339Y24852D01*
G01X2300Y24877D01*
G01X2260Y24900D01*
G01X2219Y24920D01*
G01X2178Y24939D01*
G01X2136Y24956D01*
G01X2092Y24971D01*
G01X2048Y24984D01*
G01X2004Y24996D01*
G01X1959Y25005D01*
G01X1914Y25012D01*
G01X1869Y25017D01*
G01X1823Y25020D01*
G37*
G36*
G01X1823Y27560D02*
G01X1778Y27561D01*
G01X1732Y27560D01*
G01X1686Y27557D01*
G01X1641Y27552D01*
G01X1596Y27545D01*
G01X1551Y27536D01*
G01X1507Y27524D01*
G01X1463Y27511D01*
G01X1419Y27496D01*
G01X1377Y27479D01*
G01X1336Y27460D01*
G01X1295Y27440D01*
G01X1255Y27417D01*
G01X1216Y27392D01*
G01X1179Y27366D01*
G01X1143Y27339D01*
G01X1107Y27310D01*
G01X1073Y27279D01*
G01X1041Y27247D01*
G01X1010Y27213D01*
G01X981Y27178D01*
G01X954Y27141D01*
G01X928Y27104D01*
G01X903Y27065D01*
G01X880Y27025D01*
G01X860Y26984D01*
G01X841Y26943D01*
G01X824Y26901D01*
G01X809Y26857D01*
G01X796Y26813D01*
G01X784Y26769D01*
G01X775Y26724D01*
G01X768Y26679D01*
G01X763Y26634D01*
G01X760Y26588D01*
G01X759Y26543D01*
G01X760Y26497D01*
G01X763Y26451D01*
G01X768Y26406D01*
G01X775Y26361D01*
G01X784Y26316D01*
G01X796Y26272D01*
G01X809Y26228D01*
G01X824Y26184D01*
G01X841Y26142D01*
G01X860Y26101D01*
G01X880Y26060D01*
G01X903Y26020D01*
G01X928Y25981D01*
G01X954Y25944D01*
G01X981Y25908D01*
G01X1010Y25872D01*
G01X1041Y25838D01*
G01X1073Y25806D01*
G01X1107Y25775D01*
G01X1143Y25746D01*
G01X1179Y25719D01*
G01X1216Y25693D01*
G01X1255Y25668D01*
G01X1295Y25645D01*
G01X1336Y25625D01*
G01X1377Y25606D01*
G01X1419Y25589D01*
G01X1463Y25574D01*
G01X1507Y25561D01*
G01X1551Y25549D01*
G01X1596Y25540D01*
G01X1641Y25533D01*
G01X1686Y25528D01*
G01X1732Y25525D01*
G01X1778Y25524D01*
G01X1823Y25525D01*
G01X1869Y25528D01*
G01X1914Y25533D01*
G01X1959Y25540D01*
G01X2004Y25549D01*
G01X2048Y25561D01*
G01X2092Y25574D01*
G01X2136Y25589D01*
G01X2178Y25606D01*
G01X2219Y25625D01*
G01X2260Y25645D01*
G01X2300Y25668D01*
G01X2339Y25693D01*
G01X2376Y25719D01*
G01X2413Y25746D01*
G01X2448Y25775D01*
G01X2482Y25806D01*
G01X2514Y25838D01*
G01X2545Y25872D01*
G01X2574Y25908D01*
G01X2601Y25944D01*
G01X2627Y25981D01*
G01X2652Y26020D01*
G01X2675Y26060D01*
G01X2695Y26101D01*
G01X2714Y26142D01*
G01X2731Y26184D01*
G01X2746Y26228D01*
G01X2759Y26272D01*
G01X2771Y26316D01*
G01X2780Y26361D01*
G01X2787Y26406D01*
G01X2792Y26451D01*
G01X2795Y26497D01*
G01X2796Y26543D01*
G01X2795Y26588D01*
G01X2792Y26634D01*
G01X2787Y26679D01*
G01X2780Y26724D01*
G01X2771Y26769D01*
G01X2759Y26813D01*
G01X2746Y26857D01*
G01X2731Y26901D01*
G01X2714Y26943D01*
G01X2695Y26984D01*
G01X2675Y27025D01*
G01X2652Y27065D01*
G01X2627Y27104D01*
G01X2601Y27141D01*
G01X2574Y27178D01*
G01X2545Y27213D01*
G01X2514Y27247D01*
G01X2482Y27279D01*
G01X2448Y27310D01*
G01X2413Y27339D01*
G01X2376Y27366D01*
G01X2339Y27392D01*
G01X2300Y27417D01*
G01X2260Y27440D01*
G01X2219Y27460D01*
G01X2178Y27479D01*
G01X2136Y27496D01*
G01X2092Y27511D01*
G01X2048Y27524D01*
G01X2004Y27536D01*
G01X1959Y27545D01*
G01X1914Y27552D01*
G01X1869Y27557D01*
G01X1823Y27560D01*
G37*
G36*
G01X24193Y26098D02*
G01X23721Y26098D01*
G01X23743Y26055D01*
G01X23768Y26013D01*
G01X23794Y25972D01*
G01X23822Y25932D01*
G01X23852Y25894D01*
G01X23884Y25857D01*
G01X23917Y25822D01*
G01X23952Y25789D01*
G01X23989Y25757D01*
G01X24027Y25727D01*
G01X24067Y25699D01*
G01X24108Y25673D01*
G01X24150Y25648D01*
G01X24193Y25626D01*
G01X24193Y26098D01*
G37*
G36*
G01X24193Y26987D02*
G01X24193Y27459D01*
G01X24150Y27437D01*
G01X24108Y27412D01*
G01X24067Y27386D01*
G01X24027Y27358D01*
G01X23989Y27328D01*
G01X23952Y27296D01*
G01X23917Y27263D01*
G01X23884Y27228D01*
G01X23852Y27191D01*
G01X23822Y27153D01*
G01X23794Y27113D01*
G01X23768Y27072D01*
G01X23743Y27030D01*
G01X23721Y26987D01*
G01X24193Y26987D01*
G37*
G36*
G01X1823Y30100D02*
G01X1778Y30101D01*
G01X1732Y30100D01*
G01X1686Y30097D01*
G01X1641Y30092D01*
G01X1596Y30085D01*
G01X1551Y30076D01*
G01X1507Y30064D01*
G01X1463Y30051D01*
G01X1419Y30036D01*
G01X1377Y30019D01*
G01X1336Y30000D01*
G01X1295Y29980D01*
G01X1255Y29957D01*
G01X1216Y29932D01*
G01X1179Y29906D01*
G01X1143Y29879D01*
G01X1107Y29850D01*
G01X1073Y29819D01*
G01X1041Y29787D01*
G01X1010Y29753D01*
G01X981Y29718D01*
G01X954Y29681D01*
G01X928Y29644D01*
G01X903Y29605D01*
G01X880Y29565D01*
G01X860Y29524D01*
G01X841Y29483D01*
G01X824Y29441D01*
G01X809Y29397D01*
G01X796Y29353D01*
G01X784Y29309D01*
G01X775Y29264D01*
G01X768Y29219D01*
G01X763Y29174D01*
G01X760Y29128D01*
G01X759Y29083D01*
G01X760Y29037D01*
G01X763Y28991D01*
G01X768Y28946D01*
G01X775Y28901D01*
G01X784Y28856D01*
G01X796Y28812D01*
G01X809Y28768D01*
G01X824Y28724D01*
G01X841Y28682D01*
G01X860Y28641D01*
G01X880Y28600D01*
G01X903Y28560D01*
G01X928Y28521D01*
G01X954Y28484D01*
G01X981Y28448D01*
G01X1010Y28412D01*
G01X1041Y28378D01*
G01X1073Y28346D01*
G01X1107Y28315D01*
G01X1143Y28286D01*
G01X1179Y28259D01*
G01X1216Y28233D01*
G01X1255Y28208D01*
G01X1295Y28185D01*
G01X1336Y28165D01*
G01X1377Y28146D01*
G01X1419Y28129D01*
G01X1463Y28114D01*
G01X1507Y28101D01*
G01X1551Y28089D01*
G01X1596Y28080D01*
G01X1641Y28073D01*
G01X1686Y28068D01*
G01X1732Y28065D01*
G01X1778Y28064D01*
G01X1823Y28065D01*
G01X1869Y28068D01*
G01X1914Y28073D01*
G01X1959Y28080D01*
G01X2004Y28089D01*
G01X2048Y28101D01*
G01X2092Y28114D01*
G01X2136Y28129D01*
G01X2178Y28146D01*
G01X2219Y28165D01*
G01X2260Y28185D01*
G01X2300Y28208D01*
G01X2339Y28233D01*
G01X2376Y28259D01*
G01X2413Y28286D01*
G01X2448Y28315D01*
G01X2482Y28346D01*
G01X2514Y28378D01*
G01X2545Y28412D01*
G01X2574Y28448D01*
G01X2601Y28484D01*
G01X2627Y28521D01*
G01X2652Y28560D01*
G01X2675Y28600D01*
G01X2695Y28641D01*
G01X2714Y28682D01*
G01X2731Y28724D01*
G01X2746Y28768D01*
G01X2759Y28812D01*
G01X2771Y28856D01*
G01X2780Y28901D01*
G01X2787Y28946D01*
G01X2792Y28991D01*
G01X2795Y29037D01*
G01X2796Y29083D01*
G01X2795Y29128D01*
G01X2792Y29174D01*
G01X2787Y29219D01*
G01X2780Y29264D01*
G01X2771Y29309D01*
G01X2759Y29353D01*
G01X2746Y29397D01*
G01X2731Y29441D01*
G01X2714Y29483D01*
G01X2695Y29524D01*
G01X2675Y29565D01*
G01X2652Y29605D01*
G01X2627Y29644D01*
G01X2601Y29681D01*
G01X2574Y29718D01*
G01X2545Y29753D01*
G01X2514Y29787D01*
G01X2482Y29819D01*
G01X2448Y29850D01*
G01X2413Y29879D01*
G01X2376Y29906D01*
G01X2339Y29932D01*
G01X2300Y29957D01*
G01X2260Y29980D01*
G01X2219Y30000D01*
G01X2178Y30019D01*
G01X2136Y30036D01*
G01X2092Y30051D01*
G01X2048Y30064D01*
G01X2004Y30076D01*
G01X1959Y30085D01*
G01X1914Y30092D01*
G01X1869Y30097D01*
G01X1823Y30100D01*
G37*
G36*
G01X1823Y32640D02*
G01X1778Y32641D01*
G01X1732Y32640D01*
G01X1686Y32637D01*
G01X1641Y32632D01*
G01X1596Y32625D01*
G01X1551Y32616D01*
G01X1507Y32604D01*
G01X1463Y32591D01*
G01X1419Y32576D01*
G01X1377Y32559D01*
G01X1336Y32540D01*
G01X1295Y32520D01*
G01X1255Y32497D01*
G01X1216Y32472D01*
G01X1179Y32446D01*
G01X1143Y32419D01*
G01X1107Y32390D01*
G01X1073Y32359D01*
G01X1041Y32327D01*
G01X1010Y32293D01*
G01X981Y32258D01*
G01X954Y32221D01*
G01X928Y32184D01*
G01X903Y32145D01*
G01X880Y32105D01*
G01X860Y32064D01*
G01X841Y32023D01*
G01X824Y31981D01*
G01X809Y31937D01*
G01X796Y31893D01*
G01X784Y31849D01*
G01X775Y31804D01*
G01X768Y31759D01*
G01X763Y31714D01*
G01X760Y31668D01*
G01X759Y31623D01*
G01X760Y31577D01*
G01X763Y31531D01*
G01X768Y31486D01*
G01X775Y31441D01*
G01X784Y31396D01*
G01X796Y31352D01*
G01X809Y31308D01*
G01X824Y31264D01*
G01X841Y31222D01*
G01X860Y31181D01*
G01X880Y31140D01*
G01X903Y31100D01*
G01X928Y31061D01*
G01X954Y31024D01*
G01X981Y30988D01*
G01X1010Y30952D01*
G01X1041Y30918D01*
G01X1073Y30886D01*
G01X1107Y30855D01*
G01X1143Y30826D01*
G01X1179Y30799D01*
G01X1216Y30773D01*
G01X1255Y30748D01*
G01X1295Y30725D01*
G01X1336Y30705D01*
G01X1377Y30686D01*
G01X1419Y30669D01*
G01X1463Y30654D01*
G01X1507Y30641D01*
G01X1551Y30629D01*
G01X1596Y30620D01*
G01X1641Y30613D01*
G01X1686Y30608D01*
G01X1732Y30605D01*
G01X1778Y30604D01*
G01X1823Y30605D01*
G01X1869Y30608D01*
G01X1914Y30613D01*
G01X1959Y30620D01*
G01X2004Y30629D01*
G01X2048Y30641D01*
G01X2092Y30654D01*
G01X2136Y30669D01*
G01X2178Y30686D01*
G01X2219Y30705D01*
G01X2260Y30725D01*
G01X2300Y30748D01*
G01X2339Y30773D01*
G01X2376Y30799D01*
G01X2413Y30826D01*
G01X2448Y30855D01*
G01X2482Y30886D01*
G01X2514Y30918D01*
G01X2545Y30952D01*
G01X2574Y30988D01*
G01X2601Y31024D01*
G01X2627Y31061D01*
G01X2652Y31100D01*
G01X2675Y31140D01*
G01X2695Y31181D01*
G01X2714Y31222D01*
G01X2731Y31264D01*
G01X2746Y31308D01*
G01X2759Y31352D01*
G01X2771Y31396D01*
G01X2780Y31441D01*
G01X2787Y31486D01*
G01X2792Y31531D01*
G01X2795Y31577D01*
G01X2796Y31623D01*
G01X2795Y31668D01*
G01X2792Y31714D01*
G01X2787Y31759D01*
G01X2780Y31804D01*
G01X2771Y31849D01*
G01X2759Y31893D01*
G01X2746Y31937D01*
G01X2731Y31981D01*
G01X2714Y32023D01*
G01X2695Y32064D01*
G01X2675Y32105D01*
G01X2652Y32145D01*
G01X2627Y32184D01*
G01X2601Y32221D01*
G01X2574Y32258D01*
G01X2545Y32293D01*
G01X2514Y32327D01*
G01X2482Y32359D01*
G01X2448Y32390D01*
G01X2413Y32419D01*
G01X2376Y32446D01*
G01X2339Y32472D01*
G01X2300Y32497D01*
G01X2260Y32520D01*
G01X2219Y32540D01*
G01X2178Y32559D01*
G01X2136Y32576D01*
G01X2092Y32591D01*
G01X2048Y32604D01*
G01X2004Y32616D01*
G01X1959Y32625D01*
G01X1914Y32632D01*
G01X1869Y32637D01*
G01X1823Y32640D01*
G37*
G36*
G01X1823Y35180D02*
G01X1778Y35181D01*
G01X1732Y35180D01*
G01X1686Y35177D01*
G01X1641Y35172D01*
G01X1596Y35165D01*
G01X1551Y35156D01*
G01X1507Y35144D01*
G01X1463Y35131D01*
G01X1419Y35116D01*
G01X1377Y35099D01*
G01X1336Y35080D01*
G01X1295Y35060D01*
G01X1255Y35037D01*
G01X1216Y35012D01*
G01X1179Y34986D01*
G01X1143Y34959D01*
G01X1107Y34930D01*
G01X1073Y34899D01*
G01X1041Y34867D01*
G01X1010Y34833D01*
G01X981Y34798D01*
G01X954Y34761D01*
G01X928Y34724D01*
G01X903Y34685D01*
G01X880Y34645D01*
G01X860Y34604D01*
G01X841Y34563D01*
G01X824Y34521D01*
G01X809Y34477D01*
G01X796Y34433D01*
G01X784Y34389D01*
G01X775Y34344D01*
G01X768Y34299D01*
G01X763Y34254D01*
G01X760Y34208D01*
G01X759Y34163D01*
G01X760Y34117D01*
G01X763Y34071D01*
G01X768Y34026D01*
G01X775Y33981D01*
G01X784Y33936D01*
G01X796Y33892D01*
G01X809Y33848D01*
G01X824Y33804D01*
G01X841Y33762D01*
G01X860Y33721D01*
G01X880Y33680D01*
G01X903Y33640D01*
G01X928Y33601D01*
G01X954Y33564D01*
G01X981Y33528D01*
G01X1010Y33492D01*
G01X1041Y33458D01*
G01X1073Y33426D01*
G01X1107Y33395D01*
G01X1143Y33366D01*
G01X1179Y33339D01*
G01X1216Y33313D01*
G01X1255Y33288D01*
G01X1295Y33265D01*
G01X1336Y33245D01*
G01X1377Y33226D01*
G01X1419Y33209D01*
G01X1463Y33194D01*
G01X1507Y33181D01*
G01X1551Y33169D01*
G01X1596Y33160D01*
G01X1641Y33153D01*
G01X1686Y33148D01*
G01X1732Y33145D01*
G01X1778Y33144D01*
G01X1823Y33145D01*
G01X1869Y33148D01*
G01X1914Y33153D01*
G01X1959Y33160D01*
G01X2004Y33169D01*
G01X2048Y33181D01*
G01X2092Y33194D01*
G01X2136Y33209D01*
G01X2178Y33226D01*
G01X2219Y33245D01*
G01X2260Y33265D01*
G01X2300Y33288D01*
G01X2339Y33313D01*
G01X2376Y33339D01*
G01X2413Y33366D01*
G01X2448Y33395D01*
G01X2482Y33426D01*
G01X2514Y33458D01*
G01X2545Y33492D01*
G01X2574Y33528D01*
G01X2601Y33564D01*
G01X2627Y33601D01*
G01X2652Y33640D01*
G01X2675Y33680D01*
G01X2695Y33721D01*
G01X2714Y33762D01*
G01X2731Y33804D01*
G01X2746Y33848D01*
G01X2759Y33892D01*
G01X2771Y33936D01*
G01X2780Y33981D01*
G01X2787Y34026D01*
G01X2792Y34071D01*
G01X2795Y34117D01*
G01X2796Y34163D01*
G01X2795Y34208D01*
G01X2792Y34254D01*
G01X2787Y34299D01*
G01X2780Y34344D01*
G01X2771Y34389D01*
G01X2759Y34433D01*
G01X2746Y34477D01*
G01X2731Y34521D01*
G01X2714Y34563D01*
G01X2695Y34604D01*
G01X2675Y34645D01*
G01X2652Y34685D01*
G01X2627Y34724D01*
G01X2601Y34761D01*
G01X2574Y34798D01*
G01X2545Y34833D01*
G01X2514Y34867D01*
G01X2482Y34899D01*
G01X2448Y34930D01*
G01X2413Y34959D01*
G01X2376Y34986D01*
G01X2339Y35012D01*
G01X2300Y35037D01*
G01X2260Y35060D01*
G01X2219Y35080D01*
G01X2178Y35099D01*
G01X2136Y35116D01*
G01X2092Y35131D01*
G01X2048Y35144D01*
G01X2004Y35156D01*
G01X1959Y35165D01*
G01X1914Y35172D01*
G01X1869Y35177D01*
G01X1823Y35180D01*
G37*
G36*
G01X1823Y37720D02*
G01X1778Y37721D01*
G01X1732Y37720D01*
G01X1686Y37717D01*
G01X1641Y37712D01*
G01X1596Y37705D01*
G01X1551Y37696D01*
G01X1507Y37684D01*
G01X1463Y37671D01*
G01X1419Y37656D01*
G01X1377Y37639D01*
G01X1336Y37620D01*
G01X1295Y37600D01*
G01X1255Y37577D01*
G01X1216Y37552D01*
G01X1179Y37526D01*
G01X1143Y37499D01*
G01X1107Y37470D01*
G01X1073Y37439D01*
G01X1041Y37407D01*
G01X1010Y37373D01*
G01X981Y37338D01*
G01X954Y37301D01*
G01X928Y37264D01*
G01X903Y37225D01*
G01X880Y37185D01*
G01X860Y37144D01*
G01X841Y37103D01*
G01X824Y37061D01*
G01X809Y37017D01*
G01X796Y36973D01*
G01X784Y36929D01*
G01X775Y36884D01*
G01X768Y36839D01*
G01X763Y36794D01*
G01X760Y36748D01*
G01X759Y36703D01*
G01X760Y36657D01*
G01X763Y36611D01*
G01X768Y36566D01*
G01X775Y36521D01*
G01X784Y36476D01*
G01X796Y36432D01*
G01X809Y36388D01*
G01X824Y36344D01*
G01X841Y36302D01*
G01X860Y36261D01*
G01X880Y36220D01*
G01X903Y36180D01*
G01X928Y36141D01*
G01X954Y36104D01*
G01X981Y36068D01*
G01X1010Y36032D01*
G01X1041Y35998D01*
G01X1073Y35966D01*
G01X1107Y35935D01*
G01X1143Y35906D01*
G01X1179Y35879D01*
G01X1216Y35853D01*
G01X1255Y35828D01*
G01X1295Y35805D01*
G01X1336Y35785D01*
G01X1377Y35766D01*
G01X1419Y35749D01*
G01X1463Y35734D01*
G01X1507Y35721D01*
G01X1551Y35709D01*
G01X1596Y35700D01*
G01X1641Y35693D01*
G01X1686Y35688D01*
G01X1732Y35685D01*
G01X1778Y35684D01*
G01X1823Y35685D01*
G01X1869Y35688D01*
G01X1914Y35693D01*
G01X1959Y35700D01*
G01X2004Y35709D01*
G01X2048Y35721D01*
G01X2092Y35734D01*
G01X2136Y35749D01*
G01X2178Y35766D01*
G01X2219Y35785D01*
G01X2260Y35805D01*
G01X2300Y35828D01*
G01X2339Y35853D01*
G01X2376Y35879D01*
G01X2413Y35906D01*
G01X2448Y35935D01*
G01X2482Y35966D01*
G01X2514Y35998D01*
G01X2545Y36032D01*
G01X2574Y36068D01*
G01X2601Y36104D01*
G01X2627Y36141D01*
G01X2652Y36180D01*
G01X2675Y36220D01*
G01X2695Y36261D01*
G01X2714Y36302D01*
G01X2731Y36344D01*
G01X2746Y36388D01*
G01X2759Y36432D01*
G01X2771Y36476D01*
G01X2780Y36521D01*
G01X2787Y36566D01*
G01X2792Y36611D01*
G01X2795Y36657D01*
G01X2796Y36703D01*
G01X2795Y36748D01*
G01X2792Y36794D01*
G01X2787Y36839D01*
G01X2780Y36884D01*
G01X2771Y36929D01*
G01X2759Y36973D01*
G01X2746Y37017D01*
G01X2731Y37061D01*
G01X2714Y37103D01*
G01X2695Y37144D01*
G01X2675Y37185D01*
G01X2652Y37225D01*
G01X2627Y37264D01*
G01X2601Y37301D01*
G01X2574Y37338D01*
G01X2545Y37373D01*
G01X2514Y37407D01*
G01X2482Y37439D01*
G01X2448Y37470D01*
G01X2413Y37499D01*
G01X2376Y37526D01*
G01X2339Y37552D01*
G01X2300Y37577D01*
G01X2260Y37600D01*
G01X2219Y37620D01*
G01X2178Y37639D01*
G01X2136Y37656D01*
G01X2092Y37671D01*
G01X2048Y37684D01*
G01X2004Y37696D01*
G01X1959Y37705D01*
G01X1914Y37712D01*
G01X1869Y37717D01*
G01X1823Y37720D01*
G37*
G36*
G01X1823Y40260D02*
G01X1778Y40261D01*
G01X1732Y40260D01*
G01X1686Y40257D01*
G01X1641Y40252D01*
G01X1596Y40245D01*
G01X1551Y40236D01*
G01X1507Y40224D01*
G01X1463Y40211D01*
G01X1419Y40196D01*
G01X1377Y40179D01*
G01X1336Y40160D01*
G01X1295Y40140D01*
G01X1255Y40117D01*
G01X1216Y40092D01*
G01X1179Y40066D01*
G01X1143Y40039D01*
G01X1107Y40010D01*
G01X1073Y39979D01*
G01X1041Y39947D01*
G01X1010Y39913D01*
G01X981Y39878D01*
G01X954Y39841D01*
G01X928Y39804D01*
G01X903Y39765D01*
G01X880Y39725D01*
G01X860Y39684D01*
G01X841Y39643D01*
G01X824Y39601D01*
G01X809Y39557D01*
G01X796Y39513D01*
G01X784Y39469D01*
G01X775Y39424D01*
G01X768Y39379D01*
G01X763Y39334D01*
G01X760Y39288D01*
G01X759Y39243D01*
G01X760Y39197D01*
G01X763Y39151D01*
G01X768Y39106D01*
G01X775Y39061D01*
G01X784Y39016D01*
G01X796Y38972D01*
G01X809Y38928D01*
G01X824Y38884D01*
G01X841Y38842D01*
G01X860Y38801D01*
G01X880Y38760D01*
G01X903Y38720D01*
G01X928Y38681D01*
G01X954Y38644D01*
G01X981Y38608D01*
G01X1010Y38572D01*
G01X1041Y38538D01*
G01X1073Y38506D01*
G01X1107Y38475D01*
G01X1143Y38446D01*
G01X1179Y38419D01*
G01X1216Y38393D01*
G01X1255Y38368D01*
G01X1295Y38345D01*
G01X1336Y38325D01*
G01X1377Y38306D01*
G01X1419Y38289D01*
G01X1463Y38274D01*
G01X1507Y38261D01*
G01X1551Y38249D01*
G01X1596Y38240D01*
G01X1641Y38233D01*
G01X1686Y38228D01*
G01X1732Y38225D01*
G01X1778Y38224D01*
G01X1823Y38225D01*
G01X1869Y38228D01*
G01X1914Y38233D01*
G01X1959Y38240D01*
G01X2004Y38249D01*
G01X2048Y38261D01*
G01X2092Y38274D01*
G01X2136Y38289D01*
G01X2178Y38306D01*
G01X2219Y38325D01*
G01X2260Y38345D01*
G01X2300Y38368D01*
G01X2339Y38393D01*
G01X2376Y38419D01*
G01X2413Y38446D01*
G01X2448Y38475D01*
G01X2482Y38506D01*
G01X2514Y38538D01*
G01X2545Y38572D01*
G01X2574Y38608D01*
G01X2601Y38644D01*
G01X2627Y38681D01*
G01X2652Y38720D01*
G01X2675Y38760D01*
G01X2695Y38801D01*
G01X2714Y38842D01*
G01X2731Y38884D01*
G01X2746Y38928D01*
G01X2759Y38972D01*
G01X2771Y39016D01*
G01X2780Y39061D01*
G01X2787Y39106D01*
G01X2792Y39151D01*
G01X2795Y39197D01*
G01X2796Y39243D01*
G01X2795Y39288D01*
G01X2792Y39334D01*
G01X2787Y39379D01*
G01X2780Y39424D01*
G01X2771Y39469D01*
G01X2759Y39513D01*
G01X2746Y39557D01*
G01X2731Y39601D01*
G01X2714Y39643D01*
G01X2695Y39684D01*
G01X2675Y39725D01*
G01X2652Y39765D01*
G01X2627Y39804D01*
G01X2601Y39841D01*
G01X2574Y39878D01*
G01X2545Y39913D01*
G01X2514Y39947D01*
G01X2482Y39979D01*
G01X2448Y40010D01*
G01X2413Y40039D01*
G01X2376Y40066D01*
G01X2339Y40092D01*
G01X2300Y40117D01*
G01X2260Y40140D01*
G01X2219Y40160D01*
G01X2178Y40179D01*
G01X2136Y40196D01*
G01X2092Y40211D01*
G01X2048Y40224D01*
G01X2004Y40236D01*
G01X1959Y40245D01*
G01X1914Y40252D01*
G01X1869Y40257D01*
G01X1823Y40260D01*
G37*
G36*
G01X24683Y7240D02*
G01X24638Y7241D01*
G01X24592Y7240D01*
G01X24546Y7237D01*
G01X24501Y7232D01*
G01X24456Y7225D01*
G01X24411Y7216D01*
G01X24367Y7204D01*
G01X24323Y7191D01*
G01X24279Y7176D01*
G01X24237Y7159D01*
G01X24196Y7140D01*
G01X24155Y7120D01*
G01X24115Y7097D01*
G01X24076Y7072D01*
G01X24039Y7046D01*
G01X24003Y7019D01*
G01X23967Y6990D01*
G01X23933Y6959D01*
G01X23901Y6927D01*
G01X23870Y6893D01*
G01X23841Y6858D01*
G01X23814Y6821D01*
G01X23788Y6784D01*
G01X23763Y6745D01*
G01X23740Y6705D01*
G01X23720Y6664D01*
G01X23701Y6623D01*
G01X23684Y6581D01*
G01X23669Y6537D01*
G01X23656Y6493D01*
G01X23644Y6449D01*
G01X23635Y6404D01*
G01X23628Y6359D01*
G01X23623Y6314D01*
G01X23620Y6268D01*
G01X23619Y6223D01*
G01X23620Y6177D01*
G01X23623Y6131D01*
G01X23628Y6086D01*
G01X23635Y6041D01*
G01X23644Y5996D01*
G01X23656Y5952D01*
G01X23669Y5908D01*
G01X23684Y5864D01*
G01X23701Y5822D01*
G01X23720Y5781D01*
G01X23740Y5740D01*
G01X23763Y5700D01*
G01X23788Y5661D01*
G01X23814Y5624D01*
G01X23841Y5588D01*
G01X23870Y5552D01*
G01X23901Y5518D01*
G01X23933Y5486D01*
G01X23967Y5455D01*
G01X24003Y5426D01*
G01X24039Y5399D01*
G01X24076Y5373D01*
G01X24115Y5348D01*
G01X24155Y5325D01*
G01X24196Y5305D01*
G01X24237Y5286D01*
G01X24279Y5269D01*
G01X24323Y5254D01*
G01X24367Y5241D01*
G01X24411Y5229D01*
G01X24456Y5220D01*
G01X24501Y5213D01*
G01X24546Y5208D01*
G01X24592Y5205D01*
G01X24638Y5204D01*
G01X24683Y5205D01*
G01X24729Y5208D01*
G01X24774Y5213D01*
G01X24819Y5220D01*
G01X24864Y5229D01*
G01X24908Y5241D01*
G01X24952Y5254D01*
G01X24996Y5269D01*
G01X25038Y5286D01*
G01X25079Y5305D01*
G01X25120Y5325D01*
G01X25160Y5348D01*
G01X25199Y5373D01*
G01X25236Y5399D01*
G01X25273Y5426D01*
G01X25308Y5455D01*
G01X25342Y5486D01*
G01X25374Y5518D01*
G01X25405Y5552D01*
G01X25434Y5588D01*
G01X25461Y5624D01*
G01X25487Y5661D01*
G01X25512Y5700D01*
G01X25535Y5740D01*
G01X25555Y5781D01*
G01X25574Y5822D01*
G01X25591Y5864D01*
G01X25606Y5908D01*
G01X25619Y5952D01*
G01X25631Y5996D01*
G01X25640Y6041D01*
G01X25647Y6086D01*
G01X25652Y6131D01*
G01X25655Y6177D01*
G01X25656Y6223D01*
G01X25655Y6268D01*
G01X25652Y6314D01*
G01X25647Y6359D01*
G01X25640Y6404D01*
G01X25631Y6449D01*
G01X25619Y6493D01*
G01X25606Y6537D01*
G01X25591Y6581D01*
G01X25574Y6623D01*
G01X25555Y6664D01*
G01X25535Y6705D01*
G01X25512Y6745D01*
G01X25487Y6784D01*
G01X25461Y6821D01*
G01X25434Y6858D01*
G01X25405Y6893D01*
G01X25374Y6927D01*
G01X25342Y6959D01*
G01X25308Y6990D01*
G01X25273Y7019D01*
G01X25236Y7046D01*
G01X25199Y7072D01*
G01X25160Y7097D01*
G01X25120Y7120D01*
G01X25079Y7140D01*
G01X25038Y7159D01*
G01X24996Y7176D01*
G01X24952Y7191D01*
G01X24908Y7204D01*
G01X24864Y7216D01*
G01X24819Y7225D01*
G01X24774Y7232D01*
G01X24729Y7237D01*
G01X24683Y7240D01*
G37*
G36*
G01X1823Y7240D02*
G01X1778Y7241D01*
G01X1732Y7240D01*
G01X1686Y7237D01*
G01X1641Y7232D01*
G01X1596Y7225D01*
G01X1551Y7216D01*
G01X1507Y7204D01*
G01X1463Y7191D01*
G01X1419Y7176D01*
G01X1377Y7159D01*
G01X1336Y7140D01*
G01X1295Y7120D01*
G01X1255Y7097D01*
G01X1216Y7072D01*
G01X1179Y7046D01*
G01X1143Y7019D01*
G01X1107Y6990D01*
G01X1073Y6959D01*
G01X1041Y6927D01*
G01X1010Y6893D01*
G01X981Y6858D01*
G01X954Y6821D01*
G01X928Y6784D01*
G01X903Y6745D01*
G01X880Y6705D01*
G01X860Y6664D01*
G01X841Y6623D01*
G01X824Y6581D01*
G01X809Y6537D01*
G01X796Y6493D01*
G01X784Y6449D01*
G01X775Y6404D01*
G01X768Y6359D01*
G01X763Y6314D01*
G01X760Y6268D01*
G01X759Y6223D01*
G01X760Y6177D01*
G01X763Y6131D01*
G01X768Y6086D01*
G01X775Y6041D01*
G01X784Y5996D01*
G01X796Y5952D01*
G01X809Y5908D01*
G01X824Y5864D01*
G01X841Y5822D01*
G01X860Y5781D01*
G01X880Y5740D01*
G01X903Y5700D01*
G01X928Y5661D01*
G01X954Y5624D01*
G01X981Y5588D01*
G01X1010Y5552D01*
G01X1041Y5518D01*
G01X1073Y5486D01*
G01X1107Y5455D01*
G01X1143Y5426D01*
G01X1179Y5399D01*
G01X1216Y5373D01*
G01X1255Y5348D01*
G01X1295Y5325D01*
G01X1336Y5305D01*
G01X1377Y5286D01*
G01X1419Y5269D01*
G01X1463Y5254D01*
G01X1507Y5241D01*
G01X1551Y5229D01*
G01X1596Y5220D01*
G01X1641Y5213D01*
G01X1686Y5208D01*
G01X1732Y5205D01*
G01X1778Y5204D01*
G01X1823Y5205D01*
G01X1869Y5208D01*
G01X1914Y5213D01*
G01X1959Y5220D01*
G01X2004Y5229D01*
G01X2048Y5241D01*
G01X2092Y5254D01*
G01X2136Y5269D01*
G01X2178Y5286D01*
G01X2219Y5305D01*
G01X2260Y5325D01*
G01X2300Y5348D01*
G01X2339Y5373D01*
G01X2376Y5399D01*
G01X2413Y5426D01*
G01X2448Y5455D01*
G01X2482Y5486D01*
G01X2514Y5518D01*
G01X2545Y5552D01*
G01X2574Y5588D01*
G01X2601Y5624D01*
G01X2627Y5661D01*
G01X2652Y5700D01*
G01X2675Y5740D01*
G01X2695Y5781D01*
G01X2714Y5822D01*
G01X2731Y5864D01*
G01X2746Y5908D01*
G01X2759Y5952D01*
G01X2771Y5996D01*
G01X2780Y6041D01*
G01X2787Y6086D01*
G01X2792Y6131D01*
G01X2795Y6177D01*
G01X2796Y6223D01*
G01X2795Y6268D01*
G01X2792Y6314D01*
G01X2787Y6359D01*
G01X2780Y6404D01*
G01X2771Y6449D01*
G01X2759Y6493D01*
G01X2746Y6537D01*
G01X2731Y6581D01*
G01X2714Y6623D01*
G01X2695Y6664D01*
G01X2675Y6705D01*
G01X2652Y6745D01*
G01X2627Y6784D01*
G01X2601Y6821D01*
G01X2574Y6858D01*
G01X2545Y6893D01*
G01X2514Y6927D01*
G01X2482Y6959D01*
G01X2448Y6990D01*
G01X2413Y7019D01*
G01X2376Y7046D01*
G01X2339Y7072D01*
G01X2300Y7097D01*
G01X2260Y7120D01*
G01X2219Y7140D01*
G01X2178Y7159D01*
G01X2136Y7176D01*
G01X2092Y7191D01*
G01X2048Y7204D01*
G01X2004Y7216D01*
G01X1959Y7225D01*
G01X1914Y7232D01*
G01X1869Y7237D01*
G01X1823Y7240D01*
G37*
G36*
G01X2298Y64822D02*
G01X2275Y64838D01*
G01X2275Y64251D01*
G01X2862Y64251D01*
G01X2846Y64274D01*
G01X2827Y64295D01*
G01X2319Y64803D01*
G01X2298Y64822D01*
G37*
G36*
G01X2137Y52178D02*
G01X1418Y52178D01*
G01X1393Y52177D01*
G01X1368Y52173D01*
G01X1343Y52167D01*
G01X1320Y52159D01*
G01X1297Y52148D01*
G01X1275Y52135D01*
G01X1255Y52120D01*
G01X1236Y52103D01*
G01X728Y51595D01*
G01X711Y51576D01*
G01X696Y51556D01*
G01X683Y51534D01*
G01X672Y51511D01*
G01X664Y51488D01*
G01X658Y51463D01*
G01X654Y51438D01*
G01X653Y51413D01*
G01X653Y50694D01*
G01X654Y50669D01*
G01X658Y50644D01*
G01X664Y50619D01*
G01X672Y50596D01*
G01X683Y50573D01*
G01X696Y50551D01*
G01X711Y50531D01*
G01X728Y50512D01*
G01X1236Y50004D01*
G01X1255Y49987D01*
G01X1275Y49972D01*
G01X1297Y49959D01*
G01X1320Y49948D01*
G01X1343Y49940D01*
G01X1368Y49934D01*
G01X1393Y49930D01*
G01X1418Y49929D01*
G01X2137Y49929D01*
G01X2162Y49930D01*
G01X2187Y49934D01*
G01X2212Y49940D01*
G01X2235Y49948D01*
G01X2258Y49959D01*
G01X2280Y49972D01*
G01X2300Y49987D01*
G01X2319Y50004D01*
G01X2827Y50512D01*
G01X2844Y50531D01*
G01X2859Y50551D01*
G01X2872Y50573D01*
G01X2883Y50596D01*
G01X2891Y50619D01*
G01X2897Y50644D01*
G01X2901Y50669D01*
G01X2902Y50694D01*
G01X2902Y51413D01*
G01X2901Y51438D01*
G01X2897Y51463D01*
G01X2891Y51488D01*
G01X2883Y51511D01*
G01X2872Y51534D01*
G01X2859Y51556D01*
G01X2844Y51576D01*
G01X2827Y51595D01*
G01X2319Y52103D01*
G01X2300Y52120D01*
G01X2280Y52135D01*
G01X2258Y52148D01*
G01X2235Y52159D01*
G01X2212Y52167D01*
G01X2187Y52173D01*
G01X2162Y52177D01*
G01X2137Y52178D01*
G37*
G36*
G01X4677Y52178D02*
G01X3958Y52178D01*
G01X3933Y52177D01*
G01X3908Y52173D01*
G01X3883Y52167D01*
G01X3860Y52159D01*
G01X3837Y52148D01*
G01X3815Y52135D01*
G01X3795Y52120D01*
G01X3776Y52103D01*
G01X3268Y51595D01*
G01X3251Y51576D01*
G01X3236Y51556D01*
G01X3223Y51534D01*
G01X3212Y51511D01*
G01X3204Y51488D01*
G01X3198Y51463D01*
G01X3194Y51438D01*
G01X3193Y51413D01*
G01X3193Y50694D01*
G01X3194Y50669D01*
G01X3198Y50644D01*
G01X3204Y50619D01*
G01X3212Y50596D01*
G01X3223Y50573D01*
G01X3236Y50551D01*
G01X3251Y50531D01*
G01X3268Y50512D01*
G01X3776Y50004D01*
G01X3795Y49987D01*
G01X3815Y49972D01*
G01X3837Y49959D01*
G01X3860Y49948D01*
G01X3883Y49940D01*
G01X3908Y49934D01*
G01X3933Y49930D01*
G01X3958Y49929D01*
G01X4677Y49929D01*
G01X4702Y49930D01*
G01X4727Y49934D01*
G01X4752Y49940D01*
G01X4775Y49948D01*
G01X4798Y49959D01*
G01X4820Y49972D01*
G01X4840Y49987D01*
G01X4859Y50004D01*
G01X5367Y50512D01*
G01X5384Y50531D01*
G01X5399Y50551D01*
G01X5412Y50573D01*
G01X5423Y50596D01*
G01X5431Y50619D01*
G01X5437Y50644D01*
G01X5441Y50669D01*
G01X5442Y50694D01*
G01X5442Y51413D01*
G01X5441Y51438D01*
G01X5437Y51463D01*
G01X5431Y51488D01*
G01X5423Y51511D01*
G01X5412Y51534D01*
G01X5399Y51556D01*
G01X5384Y51576D01*
G01X5367Y51595D01*
G01X4859Y52103D01*
G01X4840Y52120D01*
G01X4820Y52135D01*
G01X4798Y52148D01*
G01X4775Y52159D01*
G01X4752Y52167D01*
G01X4727Y52173D01*
G01X4702Y52177D01*
G01X4677Y52178D01*
G37*
G36*
G01X21600Y64251D02*
G01X21600Y64838D01*
G01X21577Y64822D01*
G01X21556Y64803D01*
G01X21048Y64295D01*
G01X21029Y64274D01*
G01X21013Y64251D01*
G01X21600Y64251D01*
G37*
G36*
G01X4677Y54718D02*
G01X3958Y54718D01*
G01X3933Y54717D01*
G01X3908Y54713D01*
G01X3883Y54707D01*
G01X3860Y54699D01*
G01X3837Y54688D01*
G01X3815Y54675D01*
G01X3795Y54660D01*
G01X3776Y54643D01*
G01X3268Y54135D01*
G01X3251Y54116D01*
G01X3236Y54096D01*
G01X3223Y54074D01*
G01X3212Y54051D01*
G01X3204Y54028D01*
G01X3198Y54003D01*
G01X3194Y53978D01*
G01X3193Y53953D01*
G01X3193Y53234D01*
G01X3194Y53209D01*
G01X3198Y53184D01*
G01X3204Y53159D01*
G01X3212Y53136D01*
G01X3223Y53113D01*
G01X3236Y53091D01*
G01X3251Y53071D01*
G01X3268Y53052D01*
G01X3776Y52544D01*
G01X3795Y52527D01*
G01X3815Y52512D01*
G01X3837Y52499D01*
G01X3860Y52488D01*
G01X3883Y52480D01*
G01X3908Y52474D01*
G01X3933Y52470D01*
G01X3958Y52469D01*
G01X4677Y52469D01*
G01X4702Y52470D01*
G01X4727Y52474D01*
G01X4752Y52480D01*
G01X4775Y52488D01*
G01X4798Y52499D01*
G01X4820Y52512D01*
G01X4840Y52527D01*
G01X4859Y52544D01*
G01X5367Y53052D01*
G01X5384Y53071D01*
G01X5399Y53091D01*
G01X5412Y53113D01*
G01X5423Y53136D01*
G01X5431Y53159D01*
G01X5437Y53184D01*
G01X5441Y53209D01*
G01X5442Y53234D01*
G01X5442Y53953D01*
G01X5441Y53978D01*
G01X5437Y54003D01*
G01X5431Y54028D01*
G01X5423Y54051D01*
G01X5412Y54074D01*
G01X5399Y54096D01*
G01X5384Y54116D01*
G01X5367Y54135D01*
G01X4859Y54643D01*
G01X4840Y54660D01*
G01X4820Y54675D01*
G01X4798Y54688D01*
G01X4775Y54699D01*
G01X4752Y54707D01*
G01X4727Y54713D01*
G01X4702Y54717D01*
G01X4677Y54718D01*
G37*
G36*
G01X2137Y54718D02*
G01X1418Y54718D01*
G01X1393Y54717D01*
G01X1368Y54713D01*
G01X1343Y54707D01*
G01X1320Y54699D01*
G01X1297Y54688D01*
G01X1275Y54675D01*
G01X1255Y54660D01*
G01X1236Y54643D01*
G01X728Y54135D01*
G01X711Y54116D01*
G01X696Y54096D01*
G01X683Y54074D01*
G01X672Y54051D01*
G01X664Y54028D01*
G01X658Y54003D01*
G01X654Y53978D01*
G01X653Y53953D01*
G01X653Y53234D01*
G01X654Y53209D01*
G01X658Y53184D01*
G01X664Y53159D01*
G01X672Y53136D01*
G01X683Y53113D01*
G01X696Y53091D01*
G01X711Y53071D01*
G01X728Y53052D01*
G01X1236Y52544D01*
G01X1255Y52527D01*
G01X1275Y52512D01*
G01X1297Y52499D01*
G01X1320Y52488D01*
G01X1343Y52480D01*
G01X1368Y52474D01*
G01X1393Y52470D01*
G01X1418Y52469D01*
G01X2137Y52469D01*
G01X2162Y52470D01*
G01X2187Y52474D01*
G01X2212Y52480D01*
G01X2235Y52488D01*
G01X2258Y52499D01*
G01X2280Y52512D01*
G01X2300Y52527D01*
G01X2319Y52544D01*
G01X2827Y53052D01*
G01X2844Y53071D01*
G01X2859Y53091D01*
G01X2872Y53113D01*
G01X2883Y53136D01*
G01X2891Y53159D01*
G01X2897Y53184D01*
G01X2901Y53209D01*
G01X2902Y53234D01*
G01X2902Y53953D01*
G01X2901Y53978D01*
G01X2897Y54003D01*
G01X2891Y54028D01*
G01X2883Y54051D01*
G01X2872Y54074D01*
G01X2859Y54096D01*
G01X2844Y54116D01*
G01X2827Y54135D01*
G01X2319Y54643D01*
G01X2300Y54660D01*
G01X2280Y54675D01*
G01X2258Y54688D01*
G01X2235Y54699D01*
G01X2212Y54707D01*
G01X2187Y54713D01*
G01X2162Y54717D01*
G01X2137Y54718D01*
G37*
G36*
G01X4677Y57258D02*
G01X3958Y57258D01*
G01X3933Y57257D01*
G01X3908Y57253D01*
G01X3883Y57247D01*
G01X3860Y57239D01*
G01X3837Y57228D01*
G01X3815Y57215D01*
G01X3795Y57200D01*
G01X3776Y57183D01*
G01X3268Y56675D01*
G01X3251Y56656D01*
G01X3236Y56636D01*
G01X3223Y56614D01*
G01X3212Y56591D01*
G01X3204Y56568D01*
G01X3198Y56543D01*
G01X3194Y56518D01*
G01X3193Y56493D01*
G01X3193Y55774D01*
G01X3194Y55749D01*
G01X3198Y55724D01*
G01X3204Y55699D01*
G01X3212Y55676D01*
G01X3223Y55653D01*
G01X3236Y55631D01*
G01X3251Y55611D01*
G01X3268Y55592D01*
G01X3776Y55084D01*
G01X3795Y55067D01*
G01X3815Y55052D01*
G01X3837Y55039D01*
G01X3860Y55028D01*
G01X3883Y55020D01*
G01X3908Y55014D01*
G01X3933Y55010D01*
G01X3958Y55009D01*
G01X4677Y55009D01*
G01X4702Y55010D01*
G01X4727Y55014D01*
G01X4752Y55020D01*
G01X4775Y55028D01*
G01X4798Y55039D01*
G01X4820Y55052D01*
G01X4840Y55067D01*
G01X4859Y55084D01*
G01X5367Y55592D01*
G01X5384Y55611D01*
G01X5399Y55631D01*
G01X5412Y55653D01*
G01X5423Y55676D01*
G01X5431Y55699D01*
G01X5437Y55724D01*
G01X5441Y55749D01*
G01X5442Y55774D01*
G01X5442Y56493D01*
G01X5441Y56518D01*
G01X5437Y56543D01*
G01X5431Y56568D01*
G01X5423Y56591D01*
G01X5412Y56614D01*
G01X5399Y56636D01*
G01X5384Y56656D01*
G01X5367Y56675D01*
G01X4859Y57183D01*
G01X4840Y57200D01*
G01X4820Y57215D01*
G01X4798Y57228D01*
G01X4775Y57239D01*
G01X4752Y57247D01*
G01X4727Y57253D01*
G01X4702Y57257D01*
G01X4677Y57258D01*
G37*
G36*
G01X2137Y57258D02*
G01X1418Y57258D01*
G01X1393Y57257D01*
G01X1368Y57253D01*
G01X1343Y57247D01*
G01X1320Y57239D01*
G01X1297Y57228D01*
G01X1275Y57215D01*
G01X1255Y57200D01*
G01X1236Y57183D01*
G01X728Y56675D01*
G01X711Y56656D01*
G01X696Y56636D01*
G01X683Y56614D01*
G01X672Y56591D01*
G01X664Y56568D01*
G01X658Y56543D01*
G01X654Y56518D01*
G01X653Y56493D01*
G01X653Y55774D01*
G01X654Y55749D01*
G01X658Y55724D01*
G01X664Y55699D01*
G01X672Y55676D01*
G01X683Y55653D01*
G01X696Y55631D01*
G01X711Y55611D01*
G01X728Y55592D01*
G01X1236Y55084D01*
G01X1255Y55067D01*
G01X1275Y55052D01*
G01X1297Y55039D01*
G01X1320Y55028D01*
G01X1343Y55020D01*
G01X1368Y55014D01*
G01X1393Y55010D01*
G01X1418Y55009D01*
G01X2137Y55009D01*
G01X2162Y55010D01*
G01X2187Y55014D01*
G01X2212Y55020D01*
G01X2235Y55028D01*
G01X2258Y55039D01*
G01X2280Y55052D01*
G01X2300Y55067D01*
G01X2319Y55084D01*
G01X2827Y55592D01*
G01X2844Y55611D01*
G01X2859Y55631D01*
G01X2872Y55653D01*
G01X2883Y55676D01*
G01X2891Y55699D01*
G01X2897Y55724D01*
G01X2901Y55749D01*
G01X2902Y55774D01*
G01X2902Y56493D01*
G01X2901Y56518D01*
G01X2897Y56543D01*
G01X2891Y56568D01*
G01X2883Y56591D01*
G01X2872Y56614D01*
G01X2859Y56636D01*
G01X2844Y56656D01*
G01X2827Y56675D01*
G01X2319Y57183D01*
G01X2300Y57200D01*
G01X2280Y57215D01*
G01X2258Y57228D01*
G01X2235Y57239D01*
G01X2212Y57247D01*
G01X2187Y57253D01*
G01X2162Y57257D01*
G01X2137Y57258D01*
G37*
G36*
G01X24997Y59798D02*
G01X24278Y59798D01*
G01X24253Y59797D01*
G01X24228Y59793D01*
G01X24203Y59787D01*
G01X24180Y59779D01*
G01X24157Y59768D01*
G01X24135Y59755D01*
G01X24115Y59740D01*
G01X24096Y59723D01*
G01X23588Y59215D01*
G01X23571Y59196D01*
G01X23556Y59176D01*
G01X23543Y59154D01*
G01X23532Y59131D01*
G01X23524Y59108D01*
G01X23518Y59083D01*
G01X23514Y59058D01*
G01X23513Y59033D01*
G01X23513Y58314D01*
G01X23514Y58289D01*
G01X23518Y58264D01*
G01X23524Y58239D01*
G01X23532Y58216D01*
G01X23543Y58193D01*
G01X23556Y58171D01*
G01X23571Y58151D01*
G01X23588Y58132D01*
G01X24096Y57624D01*
G01X24115Y57607D01*
G01X24135Y57592D01*
G01X24157Y57579D01*
G01X24180Y57568D01*
G01X24203Y57560D01*
G01X24228Y57554D01*
G01X24253Y57550D01*
G01X24278Y57549D01*
G01X24997Y57549D01*
G01X25022Y57550D01*
G01X25047Y57554D01*
G01X25072Y57560D01*
G01X25095Y57568D01*
G01X25118Y57579D01*
G01X25140Y57592D01*
G01X25160Y57607D01*
G01X25179Y57624D01*
G01X25687Y58132D01*
G01X25704Y58151D01*
G01X25719Y58171D01*
G01X25732Y58193D01*
G01X25743Y58216D01*
G01X25751Y58239D01*
G01X25757Y58264D01*
G01X25761Y58289D01*
G01X25762Y58314D01*
G01X25762Y59033D01*
G01X25761Y59058D01*
G01X25757Y59083D01*
G01X25751Y59108D01*
G01X25743Y59131D01*
G01X25732Y59154D01*
G01X25719Y59176D01*
G01X25704Y59196D01*
G01X25687Y59215D01*
G01X25179Y59723D01*
G01X25160Y59740D01*
G01X25140Y59755D01*
G01X25118Y59768D01*
G01X25095Y59779D01*
G01X25072Y59787D01*
G01X25047Y59793D01*
G01X25022Y59797D01*
G01X24997Y59798D01*
G37*
G36*
G01X2137Y59798D02*
G01X1418Y59798D01*
G01X1393Y59797D01*
G01X1368Y59793D01*
G01X1343Y59787D01*
G01X1320Y59779D01*
G01X1297Y59768D01*
G01X1275Y59755D01*
G01X1255Y59740D01*
G01X1236Y59723D01*
G01X728Y59215D01*
G01X711Y59196D01*
G01X696Y59176D01*
G01X683Y59154D01*
G01X672Y59131D01*
G01X664Y59108D01*
G01X658Y59083D01*
G01X654Y59058D01*
G01X653Y59033D01*
G01X653Y58314D01*
G01X654Y58289D01*
G01X658Y58264D01*
G01X664Y58239D01*
G01X672Y58216D01*
G01X683Y58193D01*
G01X696Y58171D01*
G01X711Y58151D01*
G01X728Y58132D01*
G01X1236Y57624D01*
G01X1255Y57607D01*
G01X1275Y57592D01*
G01X1297Y57579D01*
G01X1320Y57568D01*
G01X1343Y57560D01*
G01X1368Y57554D01*
G01X1393Y57550D01*
G01X1418Y57549D01*
G01X2137Y57549D01*
G01X2162Y57550D01*
G01X2187Y57554D01*
G01X2212Y57560D01*
G01X2235Y57568D01*
G01X2258Y57579D01*
G01X2280Y57592D01*
G01X2300Y57607D01*
G01X2319Y57624D01*
G01X2827Y58132D01*
G01X2844Y58151D01*
G01X2859Y58171D01*
G01X2872Y58193D01*
G01X2883Y58216D01*
G01X2891Y58239D01*
G01X2897Y58264D01*
G01X2901Y58289D01*
G01X2902Y58314D01*
G01X2902Y59033D01*
G01X2901Y59058D01*
G01X2897Y59083D01*
G01X2891Y59108D01*
G01X2883Y59131D01*
G01X2872Y59154D01*
G01X2859Y59176D01*
G01X2844Y59196D01*
G01X2827Y59215D01*
G01X2319Y59723D01*
G01X2300Y59740D01*
G01X2280Y59755D01*
G01X2258Y59768D01*
G01X2235Y59779D01*
G01X2212Y59787D01*
G01X2187Y59793D01*
G01X2162Y59797D01*
G01X2137Y59798D01*
G37*
G36*
G01X4677Y59798D02*
G01X3958Y59798D01*
G01X3933Y59797D01*
G01X3908Y59793D01*
G01X3883Y59787D01*
G01X3860Y59779D01*
G01X3837Y59768D01*
G01X3815Y59755D01*
G01X3795Y59740D01*
G01X3776Y59723D01*
G01X3268Y59215D01*
G01X3251Y59196D01*
G01X3236Y59176D01*
G01X3223Y59154D01*
G01X3212Y59131D01*
G01X3204Y59108D01*
G01X3198Y59083D01*
G01X3194Y59058D01*
G01X3193Y59033D01*
G01X3193Y58314D01*
G01X3194Y58289D01*
G01X3198Y58264D01*
G01X3204Y58239D01*
G01X3212Y58216D01*
G01X3223Y58193D01*
G01X3236Y58171D01*
G01X3251Y58151D01*
G01X3268Y58132D01*
G01X3776Y57624D01*
G01X3795Y57607D01*
G01X3815Y57592D01*
G01X3837Y57579D01*
G01X3860Y57568D01*
G01X3883Y57560D01*
G01X3908Y57554D01*
G01X3933Y57550D01*
G01X3958Y57549D01*
G01X4677Y57549D01*
G01X4702Y57550D01*
G01X4727Y57554D01*
G01X4752Y57560D01*
G01X4775Y57568D01*
G01X4798Y57579D01*
G01X4820Y57592D01*
G01X4840Y57607D01*
G01X4859Y57624D01*
G01X5367Y58132D01*
G01X5384Y58151D01*
G01X5399Y58171D01*
G01X5412Y58193D01*
G01X5423Y58216D01*
G01X5431Y58239D01*
G01X5437Y58264D01*
G01X5441Y58289D01*
G01X5442Y58314D01*
G01X5442Y59033D01*
G01X5441Y59058D01*
G01X5437Y59083D01*
G01X5431Y59108D01*
G01X5423Y59131D01*
G01X5412Y59154D01*
G01X5399Y59176D01*
G01X5384Y59196D01*
G01X5367Y59215D01*
G01X4859Y59723D01*
G01X4840Y59740D01*
G01X4820Y59755D01*
G01X4798Y59768D01*
G01X4775Y59779D01*
G01X4752Y59787D01*
G01X4727Y59793D01*
G01X4702Y59797D01*
G01X4677Y59798D01*
G37*
G36*
G01X22457Y59798D02*
G01X21738Y59798D01*
G01X21713Y59797D01*
G01X21688Y59793D01*
G01X21663Y59787D01*
G01X21640Y59779D01*
G01X21617Y59768D01*
G01X21595Y59755D01*
G01X21575Y59740D01*
G01X21556Y59723D01*
G01X21048Y59215D01*
G01X21031Y59196D01*
G01X21016Y59176D01*
G01X21003Y59154D01*
G01X20992Y59131D01*
G01X20984Y59108D01*
G01X20978Y59083D01*
G01X20974Y59058D01*
G01X20973Y59033D01*
G01X20973Y58314D01*
G01X20974Y58289D01*
G01X20978Y58264D01*
G01X20984Y58239D01*
G01X20992Y58216D01*
G01X21003Y58193D01*
G01X21016Y58171D01*
G01X21031Y58151D01*
G01X21048Y58132D01*
G01X21556Y57624D01*
G01X21575Y57607D01*
G01X21595Y57592D01*
G01X21617Y57579D01*
G01X21640Y57568D01*
G01X21663Y57560D01*
G01X21688Y57554D01*
G01X21713Y57550D01*
G01X21738Y57549D01*
G01X22457Y57549D01*
G01X22482Y57550D01*
G01X22507Y57554D01*
G01X22532Y57560D01*
G01X22555Y57568D01*
G01X22578Y57579D01*
G01X22600Y57592D01*
G01X22620Y57607D01*
G01X22639Y57624D01*
G01X23147Y58132D01*
G01X23164Y58151D01*
G01X23179Y58171D01*
G01X23192Y58193D01*
G01X23203Y58216D01*
G01X23211Y58239D01*
G01X23217Y58264D01*
G01X23221Y58289D01*
G01X23222Y58314D01*
G01X23222Y59033D01*
G01X23221Y59058D01*
G01X23217Y59083D01*
G01X23211Y59108D01*
G01X23203Y59131D01*
G01X23192Y59154D01*
G01X23179Y59176D01*
G01X23164Y59196D01*
G01X23147Y59215D01*
G01X22639Y59723D01*
G01X22620Y59740D01*
G01X22600Y59755D01*
G01X22578Y59768D01*
G01X22555Y59779D01*
G01X22532Y59787D01*
G01X22507Y59793D01*
G01X22482Y59797D01*
G01X22457Y59798D01*
G37*
G36*
G01X2137Y62338D02*
G01X1418Y62338D01*
G01X1393Y62337D01*
G01X1368Y62333D01*
G01X1343Y62327D01*
G01X1320Y62319D01*
G01X1297Y62308D01*
G01X1275Y62295D01*
G01X1255Y62280D01*
G01X1236Y62263D01*
G01X728Y61755D01*
G01X711Y61736D01*
G01X696Y61716D01*
G01X683Y61694D01*
G01X672Y61671D01*
G01X664Y61648D01*
G01X658Y61623D01*
G01X654Y61598D01*
G01X653Y61573D01*
G01X653Y60854D01*
G01X654Y60829D01*
G01X658Y60804D01*
G01X664Y60779D01*
G01X672Y60756D01*
G01X683Y60733D01*
G01X696Y60711D01*
G01X711Y60691D01*
G01X728Y60672D01*
G01X1236Y60164D01*
G01X1255Y60147D01*
G01X1275Y60132D01*
G01X1297Y60119D01*
G01X1320Y60108D01*
G01X1343Y60100D01*
G01X1368Y60094D01*
G01X1393Y60090D01*
G01X1418Y60089D01*
G01X2137Y60089D01*
G01X2162Y60090D01*
G01X2187Y60094D01*
G01X2212Y60100D01*
G01X2235Y60108D01*
G01X2258Y60119D01*
G01X2280Y60132D01*
G01X2300Y60147D01*
G01X2319Y60164D01*
G01X2827Y60672D01*
G01X2844Y60691D01*
G01X2859Y60711D01*
G01X2872Y60733D01*
G01X2883Y60756D01*
G01X2891Y60779D01*
G01X2897Y60804D01*
G01X2901Y60829D01*
G01X2902Y60854D01*
G01X2902Y61573D01*
G01X2901Y61598D01*
G01X2897Y61623D01*
G01X2891Y61648D01*
G01X2883Y61671D01*
G01X2872Y61694D01*
G01X2859Y61716D01*
G01X2844Y61736D01*
G01X2827Y61755D01*
G01X2319Y62263D01*
G01X2300Y62280D01*
G01X2280Y62295D01*
G01X2258Y62308D01*
G01X2235Y62319D01*
G01X2212Y62327D01*
G01X2187Y62333D01*
G01X2162Y62337D01*
G01X2137Y62338D01*
G37*
G36*
G01X4677Y62338D02*
G01X3958Y62338D01*
G01X3933Y62337D01*
G01X3908Y62333D01*
G01X3883Y62327D01*
G01X3860Y62319D01*
G01X3837Y62308D01*
G01X3815Y62295D01*
G01X3795Y62280D01*
G01X3776Y62263D01*
G01X3268Y61755D01*
G01X3251Y61736D01*
G01X3236Y61716D01*
G01X3223Y61694D01*
G01X3212Y61671D01*
G01X3204Y61648D01*
G01X3198Y61623D01*
G01X3194Y61598D01*
G01X3193Y61573D01*
G01X3193Y60854D01*
G01X3194Y60829D01*
G01X3198Y60804D01*
G01X3204Y60779D01*
G01X3212Y60756D01*
G01X3223Y60733D01*
G01X3236Y60711D01*
G01X3251Y60691D01*
G01X3268Y60672D01*
G01X3776Y60164D01*
G01X3795Y60147D01*
G01X3815Y60132D01*
G01X3837Y60119D01*
G01X3860Y60108D01*
G01X3883Y60100D01*
G01X3908Y60094D01*
G01X3933Y60090D01*
G01X3958Y60089D01*
G01X4677Y60089D01*
G01X4702Y60090D01*
G01X4727Y60094D01*
G01X4752Y60100D01*
G01X4775Y60108D01*
G01X4798Y60119D01*
G01X4820Y60132D01*
G01X4840Y60147D01*
G01X4859Y60164D01*
G01X5367Y60672D01*
G01X5384Y60691D01*
G01X5399Y60711D01*
G01X5412Y60733D01*
G01X5423Y60756D01*
G01X5431Y60779D01*
G01X5437Y60804D01*
G01X5441Y60829D01*
G01X5442Y60854D01*
G01X5442Y61573D01*
G01X5441Y61598D01*
G01X5437Y61623D01*
G01X5431Y61648D01*
G01X5423Y61671D01*
G01X5412Y61694D01*
G01X5399Y61716D01*
G01X5384Y61736D01*
G01X5367Y61755D01*
G01X4859Y62263D01*
G01X4840Y62280D01*
G01X4820Y62295D01*
G01X4798Y62308D01*
G01X4775Y62319D01*
G01X4752Y62327D01*
G01X4727Y62333D01*
G01X4702Y62337D01*
G01X4677Y62338D01*
G37*
G36*
G01X22457Y62338D02*
G01X21738Y62338D01*
G01X21713Y62337D01*
G01X21688Y62333D01*
G01X21663Y62327D01*
G01X21640Y62319D01*
G01X21617Y62308D01*
G01X21595Y62295D01*
G01X21575Y62280D01*
G01X21556Y62263D01*
G01X21048Y61755D01*
G01X21031Y61736D01*
G01X21016Y61716D01*
G01X21003Y61694D01*
G01X20992Y61671D01*
G01X20984Y61648D01*
G01X20978Y61623D01*
G01X20974Y61598D01*
G01X20973Y61573D01*
G01X20973Y60854D01*
G01X20974Y60829D01*
G01X20978Y60804D01*
G01X20984Y60779D01*
G01X20992Y60756D01*
G01X21003Y60733D01*
G01X21016Y60711D01*
G01X21031Y60691D01*
G01X21048Y60672D01*
G01X21556Y60164D01*
G01X21575Y60147D01*
G01X21595Y60132D01*
G01X21617Y60119D01*
G01X21640Y60108D01*
G01X21663Y60100D01*
G01X21688Y60094D01*
G01X21713Y60090D01*
G01X21738Y60089D01*
G01X22457Y60089D01*
G01X22482Y60090D01*
G01X22507Y60094D01*
G01X22532Y60100D01*
G01X22555Y60108D01*
G01X22578Y60119D01*
G01X22600Y60132D01*
G01X22620Y60147D01*
G01X22639Y60164D01*
G01X23147Y60672D01*
G01X23164Y60691D01*
G01X23179Y60711D01*
G01X23192Y60733D01*
G01X23203Y60756D01*
G01X23211Y60779D01*
G01X23217Y60804D01*
G01X23221Y60829D01*
G01X23222Y60854D01*
G01X23222Y61573D01*
G01X23221Y61598D01*
G01X23217Y61623D01*
G01X23211Y61648D01*
G01X23203Y61671D01*
G01X23192Y61694D01*
G01X23179Y61716D01*
G01X23164Y61736D01*
G01X23147Y61755D01*
G01X22639Y62263D01*
G01X22620Y62280D01*
G01X22600Y62295D01*
G01X22578Y62308D01*
G01X22555Y62319D01*
G01X22532Y62327D01*
G01X22507Y62333D01*
G01X22482Y62337D01*
G01X22457Y62338D01*
G37*
G36*
G01X24997Y64878D02*
G01X24278Y64878D01*
G01X24253Y64877D01*
G01X24228Y64873D01*
G01X24203Y64867D01*
G01X24180Y64859D01*
G01X24157Y64848D01*
G01X24135Y64835D01*
G01X24115Y64820D01*
G01X24096Y64803D01*
G01X23588Y64295D01*
G01X23571Y64276D01*
G01X23556Y64256D01*
G01X23543Y64234D01*
G01X23532Y64211D01*
G01X23524Y64188D01*
G01X23518Y64163D01*
G01X23514Y64138D01*
G01X23513Y64113D01*
G01X23513Y63394D01*
G01X23514Y63369D01*
G01X23518Y63344D01*
G01X23524Y63319D01*
G01X23532Y63296D01*
G01X23543Y63273D01*
G01X23556Y63251D01*
G01X23571Y63231D01*
G01X23588Y63212D01*
G01X24100Y62700D01*
G01X24111Y62688D01*
G01X24119Y62675D01*
G01X24126Y62660D01*
G01X24130Y62644D01*
G01X24131Y62627D01*
G01X24131Y62340D01*
G01X24130Y62323D01*
G01X24126Y62307D01*
G01X24119Y62292D01*
G01X24111Y62279D01*
G01X24100Y62267D01*
G01X23588Y61755D01*
G01X23571Y61736D01*
G01X23556Y61716D01*
G01X23543Y61694D01*
G01X23532Y61671D01*
G01X23524Y61648D01*
G01X23518Y61623D01*
G01X23514Y61598D01*
G01X23513Y61573D01*
G01X23513Y60854D01*
G01X23514Y60829D01*
G01X23518Y60804D01*
G01X23524Y60779D01*
G01X23532Y60756D01*
G01X23543Y60733D01*
G01X23556Y60711D01*
G01X23571Y60691D01*
G01X23588Y60672D01*
G01X24096Y60164D01*
G01X24115Y60147D01*
G01X24135Y60132D01*
G01X24157Y60119D01*
G01X24180Y60108D01*
G01X24203Y60100D01*
G01X24228Y60094D01*
G01X24253Y60090D01*
G01X24278Y60089D01*
G01X24997Y60089D01*
G01X25022Y60090D01*
G01X25047Y60094D01*
G01X25072Y60100D01*
G01X25095Y60108D01*
G01X25118Y60119D01*
G01X25140Y60132D01*
G01X25160Y60147D01*
G01X25179Y60164D01*
G01X25687Y60672D01*
G01X25704Y60691D01*
G01X25719Y60711D01*
G01X25732Y60733D01*
G01X25743Y60756D01*
G01X25751Y60779D01*
G01X25757Y60804D01*
G01X25761Y60829D01*
G01X25762Y60854D01*
G01X25762Y61573D01*
G01X25761Y61598D01*
G01X25757Y61623D01*
G01X25751Y61648D01*
G01X25743Y61671D01*
G01X25732Y61694D01*
G01X25719Y61716D01*
G01X25704Y61736D01*
G01X25687Y61755D01*
G01X25175Y62267D01*
G01X25164Y62279D01*
G01X25156Y62292D01*
G01X25149Y62307D01*
G01X25146Y62323D01*
G01X25144Y62340D01*
G01X25144Y62627D01*
G01X25146Y62644D01*
G01X25149Y62660D01*
G01X25156Y62675D01*
G01X25164Y62688D01*
G01X25175Y62700D01*
G01X25687Y63212D01*
G01X25704Y63231D01*
G01X25719Y63251D01*
G01X25732Y63273D01*
G01X25743Y63296D01*
G01X25751Y63319D01*
G01X25757Y63344D01*
G01X25761Y63369D01*
G01X25762Y63394D01*
G01X25762Y64113D01*
G01X25761Y64138D01*
G01X25757Y64163D01*
G01X25751Y64188D01*
G01X25743Y64211D01*
G01X25732Y64234D01*
G01X25719Y64256D01*
G01X25704Y64276D01*
G01X25687Y64295D01*
G01X25179Y64803D01*
G01X25160Y64820D01*
G01X25140Y64835D01*
G01X25118Y64848D01*
G01X25095Y64859D01*
G01X25072Y64867D01*
G01X25047Y64873D01*
G01X25022Y64877D01*
G01X24997Y64878D01*
G37*
G36*
G01X14778Y63653D02*
G01X14732Y63654D01*
G01X14685Y63653D01*
G01X14638Y63650D01*
G01X14591Y63645D01*
G01X14545Y63638D01*
G01X14499Y63628D01*
G01X14454Y63617D01*
G01X14409Y63603D01*
G01X14365Y63588D01*
G01X14321Y63571D01*
G01X14278Y63551D01*
G01X14237Y63530D01*
G01X14196Y63507D01*
G01X14156Y63482D01*
G01X14118Y63455D01*
G01X14081Y63427D01*
G01X14045Y63397D01*
G01X14010Y63365D01*
G01X13977Y63332D01*
G01X13945Y63297D01*
G01X13915Y63261D01*
G01X13887Y63224D01*
G01X13860Y63186D01*
G01X13835Y63146D01*
G01X13812Y63105D01*
G01X13791Y63064D01*
G01X13771Y63021D01*
G01X13754Y62977D01*
G01X13739Y62933D01*
G01X13725Y62888D01*
G01X13714Y62843D01*
G01X13704Y62797D01*
G01X13697Y62751D01*
G01X13692Y62704D01*
G01X13689Y62657D01*
G01X13688Y62611D01*
G01X13689Y62564D01*
G01X13692Y62517D01*
G01X13697Y62470D01*
G01X13704Y62424D01*
G01X13714Y62378D01*
G01X13725Y62333D01*
G01X13739Y62288D01*
G01X13754Y62244D01*
G01X13771Y62200D01*
G01X13791Y62157D01*
G01X13812Y62116D01*
G01X13835Y62075D01*
G01X13860Y62035D01*
G01X13887Y61997D01*
G01X13915Y61960D01*
G01X13945Y61924D01*
G01X13977Y61889D01*
G01X14010Y61856D01*
G01X14045Y61824D01*
G01X14081Y61794D01*
G01X14118Y61766D01*
G01X14156Y61739D01*
G01X14196Y61714D01*
G01X14237Y61691D01*
G01X14278Y61670D01*
G01X14321Y61650D01*
G01X14365Y61633D01*
G01X14409Y61618D01*
G01X14454Y61604D01*
G01X14499Y61593D01*
G01X14545Y61583D01*
G01X14591Y61576D01*
G01X14638Y61571D01*
G01X14685Y61568D01*
G01X14732Y61567D01*
G01X14778Y61568D01*
G01X14825Y61571D01*
G01X14872Y61576D01*
G01X14918Y61583D01*
G01X14964Y61593D01*
G01X15009Y61604D01*
G01X15054Y61618D01*
G01X15098Y61633D01*
G01X15142Y61650D01*
G01X15185Y61670D01*
G01X15226Y61691D01*
G01X15267Y61714D01*
G01X15307Y61739D01*
G01X15345Y61766D01*
G01X15382Y61794D01*
G01X15418Y61824D01*
G01X15453Y61856D01*
G01X15486Y61889D01*
G01X15518Y61924D01*
G01X15548Y61960D01*
G01X15576Y61997D01*
G01X15603Y62035D01*
G01X15628Y62075D01*
G01X15651Y62116D01*
G01X15672Y62157D01*
G01X15692Y62200D01*
G01X15709Y62244D01*
G01X15724Y62288D01*
G01X15738Y62333D01*
G01X15749Y62378D01*
G01X15759Y62424D01*
G01X15766Y62470D01*
G01X15771Y62517D01*
G01X15774Y62564D01*
G01X15775Y62611D01*
G01X15774Y62657D01*
G01X15771Y62704D01*
G01X15766Y62751D01*
G01X15759Y62797D01*
G01X15749Y62843D01*
G01X15738Y62888D01*
G01X15724Y62933D01*
G01X15709Y62977D01*
G01X15692Y63021D01*
G01X15672Y63064D01*
G01X15651Y63105D01*
G01X15628Y63146D01*
G01X15603Y63186D01*
G01X15576Y63224D01*
G01X15548Y63261D01*
G01X15518Y63297D01*
G01X15486Y63332D01*
G01X15453Y63365D01*
G01X15418Y63397D01*
G01X15382Y63427D01*
G01X15345Y63455D01*
G01X15307Y63482D01*
G01X15267Y63507D01*
G01X15226Y63530D01*
G01X15185Y63551D01*
G01X15142Y63571D01*
G01X15098Y63588D01*
G01X15054Y63603D01*
G01X15009Y63617D01*
G01X14964Y63628D01*
G01X14918Y63638D01*
G01X14872Y63645D01*
G01X14825Y63650D01*
G01X14778Y63653D01*
G37*
G36*
G01X4677Y64878D02*
G01X3958Y64878D01*
G01X3933Y64877D01*
G01X3908Y64873D01*
G01X3883Y64867D01*
G01X3860Y64859D01*
G01X3837Y64848D01*
G01X3815Y64835D01*
G01X3795Y64820D01*
G01X3776Y64803D01*
G01X3268Y64295D01*
G01X3251Y64276D01*
G01X3236Y64256D01*
G01X3223Y64234D01*
G01X3212Y64211D01*
G01X3204Y64188D01*
G01X3198Y64163D01*
G01X3194Y64138D01*
G01X3193Y64113D01*
G01X3193Y63394D01*
G01X3194Y63369D01*
G01X3198Y63344D01*
G01X3204Y63319D01*
G01X3212Y63296D01*
G01X3223Y63273D01*
G01X3236Y63251D01*
G01X3251Y63231D01*
G01X3268Y63212D01*
G01X3776Y62704D01*
G01X3795Y62687D01*
G01X3815Y62672D01*
G01X3837Y62659D01*
G01X3860Y62648D01*
G01X3883Y62640D01*
G01X3908Y62634D01*
G01X3933Y62630D01*
G01X3958Y62629D01*
G01X4677Y62629D01*
G01X4702Y62630D01*
G01X4727Y62634D01*
G01X4752Y62640D01*
G01X4775Y62648D01*
G01X4798Y62659D01*
G01X4820Y62672D01*
G01X4840Y62687D01*
G01X4859Y62704D01*
G01X5367Y63212D01*
G01X5384Y63231D01*
G01X5399Y63251D01*
G01X5412Y63273D01*
G01X5423Y63296D01*
G01X5431Y63319D01*
G01X5437Y63344D01*
G01X5441Y63369D01*
G01X5442Y63394D01*
G01X5442Y64113D01*
G01X5441Y64138D01*
G01X5437Y64163D01*
G01X5431Y64188D01*
G01X5423Y64211D01*
G01X5412Y64234D01*
G01X5399Y64256D01*
G01X5384Y64276D01*
G01X5367Y64295D01*
G01X4859Y64803D01*
G01X4840Y64820D01*
G01X4820Y64835D01*
G01X4798Y64848D01*
G01X4775Y64859D01*
G01X4752Y64867D01*
G01X4727Y64873D01*
G01X4702Y64877D01*
G01X4677Y64878D01*
G37*
G36*
G01X23182Y63256D02*
G01X22595Y63256D01*
G01X22595Y62669D01*
G01X22618Y62685D01*
G01X22639Y62704D01*
G01X23147Y63212D01*
G01X23166Y63233D01*
G01X23182Y63256D01*
G37*
G36*
G01X2862Y63256D02*
G01X2275Y63256D01*
G01X2275Y62669D01*
G01X2298Y62685D01*
G01X2319Y62704D01*
G01X2827Y63212D01*
G01X2846Y63233D01*
G01X2862Y63256D01*
G37*
G36*
G01X21600Y63256D02*
G01X21013Y63256D01*
G01X21029Y63233D01*
G01X21048Y63212D01*
G01X21556Y62704D01*
G01X21577Y62685D01*
G01X21600Y62669D01*
G01X21600Y63256D01*
G37*
G36*
G01X1280Y63256D02*
G01X693Y63256D01*
G01X709Y63233D01*
G01X728Y63212D01*
G01X1236Y62704D01*
G01X1257Y62685D01*
G01X1280Y62669D01*
G01X1280Y63256D01*
G37*
G36*
G01X22618Y64822D02*
G01X22595Y64838D01*
G01X22595Y64251D01*
G01X23182Y64251D01*
G01X23166Y64274D01*
G01X23147Y64295D01*
G01X22639Y64803D01*
G01X22618Y64822D01*
G37*
G36*
G01X1823Y42800D02*
G01X1778Y42801D01*
G01X1732Y42800D01*
G01X1686Y42797D01*
G01X1641Y42792D01*
G01X1596Y42785D01*
G01X1551Y42776D01*
G01X1507Y42764D01*
G01X1463Y42751D01*
G01X1419Y42736D01*
G01X1377Y42719D01*
G01X1336Y42700D01*
G01X1295Y42680D01*
G01X1255Y42657D01*
G01X1216Y42632D01*
G01X1179Y42606D01*
G01X1143Y42579D01*
G01X1107Y42550D01*
G01X1073Y42519D01*
G01X1041Y42487D01*
G01X1010Y42453D01*
G01X981Y42418D01*
G01X954Y42381D01*
G01X928Y42344D01*
G01X903Y42305D01*
G01X880Y42265D01*
G01X860Y42224D01*
G01X841Y42183D01*
G01X824Y42141D01*
G01X809Y42097D01*
G01X796Y42053D01*
G01X784Y42009D01*
G01X775Y41964D01*
G01X768Y41919D01*
G01X763Y41874D01*
G01X760Y41828D01*
G01X759Y41783D01*
G01X760Y41737D01*
G01X763Y41691D01*
G01X768Y41646D01*
G01X775Y41601D01*
G01X784Y41556D01*
G01X796Y41512D01*
G01X809Y41468D01*
G01X824Y41424D01*
G01X841Y41382D01*
G01X860Y41341D01*
G01X880Y41300D01*
G01X903Y41260D01*
G01X928Y41221D01*
G01X954Y41184D01*
G01X981Y41148D01*
G01X1010Y41112D01*
G01X1041Y41078D01*
G01X1073Y41046D01*
G01X1107Y41015D01*
G01X1143Y40986D01*
G01X1179Y40959D01*
G01X1216Y40933D01*
G01X1255Y40908D01*
G01X1295Y40885D01*
G01X1336Y40865D01*
G01X1377Y40846D01*
G01X1419Y40829D01*
G01X1463Y40814D01*
G01X1507Y40801D01*
G01X1551Y40789D01*
G01X1596Y40780D01*
G01X1641Y40773D01*
G01X1686Y40768D01*
G01X1732Y40765D01*
G01X1778Y40764D01*
G01X1823Y40765D01*
G01X1869Y40768D01*
G01X1914Y40773D01*
G01X1959Y40780D01*
G01X2004Y40789D01*
G01X2048Y40801D01*
G01X2092Y40814D01*
G01X2136Y40829D01*
G01X2178Y40846D01*
G01X2219Y40865D01*
G01X2260Y40885D01*
G01X2300Y40908D01*
G01X2339Y40933D01*
G01X2376Y40959D01*
G01X2413Y40986D01*
G01X2448Y41015D01*
G01X2482Y41046D01*
G01X2514Y41078D01*
G01X2545Y41112D01*
G01X2574Y41148D01*
G01X2601Y41184D01*
G01X2627Y41221D01*
G01X2652Y41260D01*
G01X2675Y41300D01*
G01X2695Y41341D01*
G01X2714Y41382D01*
G01X2731Y41424D01*
G01X2746Y41468D01*
G01X2759Y41512D01*
G01X2771Y41556D01*
G01X2780Y41601D01*
G01X2787Y41646D01*
G01X2792Y41691D01*
G01X2795Y41737D01*
G01X2796Y41783D01*
G01X2795Y41828D01*
G01X2792Y41874D01*
G01X2787Y41919D01*
G01X2780Y41964D01*
G01X2771Y42009D01*
G01X2759Y42053D01*
G01X2746Y42097D01*
G01X2731Y42141D01*
G01X2714Y42183D01*
G01X2695Y42224D01*
G01X2675Y42265D01*
G01X2652Y42305D01*
G01X2627Y42344D01*
G01X2601Y42381D01*
G01X2574Y42418D01*
G01X2545Y42453D01*
G01X2514Y42487D01*
G01X2482Y42519D01*
G01X2448Y42550D01*
G01X2413Y42579D01*
G01X2376Y42606D01*
G01X2339Y42632D01*
G01X2300Y42657D01*
G01X2260Y42680D01*
G01X2219Y42700D01*
G01X2178Y42719D01*
G01X2136Y42736D01*
G01X2092Y42751D01*
G01X2048Y42764D01*
G01X2004Y42776D01*
G01X1959Y42785D01*
G01X1914Y42792D01*
G01X1869Y42797D01*
G01X1823Y42800D01*
G37*

%LPD*%
G54D11*
G01X24638Y63754D02*
G01X24638Y61214D01*
G01X14097Y52451D02*
G01X14732Y52451D01*
G01X12192Y62611D02*
G01X13462Y61341D01*
G01X13462Y53086D01*
G01X14097Y52451D01*
G01X14097Y52451D02*
G01X14097Y28702D01*
G01X1778Y16383D01*
G54D12*
G01X22098Y55024D02*
G01X22374Y55024D01*
G01X23207Y54190D01*
G01X23207Y45648D01*
G01X25666Y43190D01*
G01X25666Y17411D01*
G01X24638Y16383D01*
G01X22098Y56134D02*
G01X22098Y55024D01*
G01X24638Y55024D02*
G01X24914Y55024D01*
G01X25989Y53949D01*
G01X25989Y16159D01*
G01X25156Y15323D01*
G01X24257Y15323D01*
G01X23535Y16045D01*
G01X23535Y17820D01*
G01X24638Y18923D01*
G01X24638Y56134D02*
G01X24638Y55024D01*
G01X24638Y21463D02*
G01X16243Y29857D01*
G01X16243Y53479D01*
G01X14732Y54991D01*
G01X14732Y54991D02*
G01X16606Y56865D01*
G01X16606Y58666D01*
G54D11*
G01X1778Y18923D02*
G01X563Y17708D01*
G01X563Y9977D01*
G01X1778Y8763D01*
G54D12*
G01X12192Y54991D02*
G01X11122Y53921D01*
G01X11122Y45712D01*
G01X12918Y43916D01*
G54D14*
G01X24638Y41783D03*
G01X24638Y39243D03*
G01X24638Y36703D03*
G01X24638Y34163D03*
G01X24638Y31623D03*
G01X24638Y29083D03*
G01X24638Y26543D03*
G01X24638Y24003D03*
G01X24638Y21463D03*
G01X24638Y18923D03*
G01X24638Y16383D03*
G01X24638Y13843D03*
G01X24638Y11303D03*
G01X24638Y8763D03*
G01X24638Y6223D03*
G01X1778Y6223D03*
G01X1778Y8763D03*
G01X1778Y11303D03*
G01X1778Y13843D03*
G01X1778Y16383D03*
G01X1778Y18923D03*
G01X1778Y21463D03*
G01X1778Y24003D03*
G01X1778Y26543D03*
G01X1778Y29083D03*
G01X1778Y31623D03*
G01X1778Y34163D03*
G01X1778Y36703D03*
G01X1778Y39243D03*
G01X1778Y41783D03*
G36*
G01X12979Y51663D02*
G01X12979Y53238D01*
G01X11404Y53238D01*
G01X11404Y51663D01*
G01X12979Y51663D01*
G37*
G54D16*
G01X14732Y52451D03*
G01X12192Y54991D03*
G01X14732Y54991D03*
G01X12192Y57531D03*
G01X14732Y57531D03*
G01X12192Y60071D03*
G01X14732Y60071D03*
G01X12192Y62611D03*
G01X14732Y62611D03*
G36*
G01X3958Y51922D02*
G01X3449Y51413D01*
G01X3449Y50694D01*
G01X3958Y50185D01*
G01X4677Y50185D01*
G01X5186Y50694D01*
G01X5186Y51413D01*
G01X4677Y51922D01*
G01X3958Y51922D01*
G37*
G36*
G01X1418Y51922D02*
G01X909Y51413D01*
G01X909Y50694D01*
G01X1418Y50185D01*
G01X2137Y50185D01*
G01X2646Y50694D01*
G01X2646Y51413D01*
G01X2137Y51922D01*
G01X1418Y51922D01*
G37*
G36*
G01X3958Y54462D02*
G01X3449Y53953D01*
G01X3449Y53234D01*
G01X3958Y52725D01*
G01X4677Y52725D01*
G01X5186Y53234D01*
G01X5186Y53953D01*
G01X4677Y54462D01*
G01X3958Y54462D01*
G37*
G36*
G01X1418Y54462D02*
G01X909Y53953D01*
G01X909Y53234D01*
G01X1418Y52725D01*
G01X2137Y52725D01*
G01X2646Y53234D01*
G01X2646Y53953D01*
G01X2137Y54462D01*
G01X1418Y54462D01*
G37*
G36*
G01X3958Y57002D02*
G01X3449Y56493D01*
G01X3449Y55774D01*
G01X3958Y55265D01*
G01X4677Y55265D01*
G01X5186Y55774D01*
G01X5186Y56493D01*
G01X4677Y57002D01*
G01X3958Y57002D01*
G37*
G36*
G01X1418Y57002D02*
G01X909Y56493D01*
G01X909Y55774D01*
G01X1418Y55265D01*
G01X2137Y55265D01*
G01X2646Y55774D01*
G01X2646Y56493D01*
G01X2137Y57002D01*
G01X1418Y57002D01*
G37*
G36*
G01X3958Y59542D02*
G01X3449Y59033D01*
G01X3449Y58314D01*
G01X3958Y57805D01*
G01X4677Y57805D01*
G01X5186Y58314D01*
G01X5186Y59033D01*
G01X4677Y59542D01*
G01X3958Y59542D01*
G37*
G36*
G01X1418Y59542D02*
G01X909Y59033D01*
G01X909Y58314D01*
G01X1418Y57805D01*
G01X2137Y57805D01*
G01X2646Y58314D01*
G01X2646Y59033D01*
G01X2137Y59542D01*
G01X1418Y59542D01*
G37*
G36*
G01X3958Y62082D02*
G01X3449Y61573D01*
G01X3449Y60854D01*
G01X3958Y60345D01*
G01X4677Y60345D01*
G01X5186Y60854D01*
G01X5186Y61573D01*
G01X4677Y62082D01*
G01X3958Y62082D01*
G37*
G36*
G01X1418Y62082D02*
G01X909Y61573D01*
G01X909Y60854D01*
G01X1418Y60345D01*
G01X2137Y60345D01*
G01X2646Y60854D01*
G01X2646Y61573D01*
G01X2137Y62082D01*
G01X1418Y62082D01*
G37*
G36*
G01X3958Y64622D02*
G01X3449Y64113D01*
G01X3449Y63394D01*
G01X3958Y62885D01*
G01X4677Y62885D01*
G01X5186Y63394D01*
G01X5186Y64113D01*
G01X4677Y64622D01*
G01X3958Y64622D01*
G37*
G36*
G01X1418Y64622D02*
G01X909Y64113D01*
G01X909Y63394D01*
G01X1418Y62885D01*
G01X2137Y62885D01*
G01X2646Y63394D01*
G01X2646Y64113D01*
G01X2137Y64622D01*
G01X1418Y64622D01*
G37*
G36*
G01X24278Y51922D02*
G01X23769Y51413D01*
G01X23769Y50694D01*
G01X24278Y50185D01*
G01X24997Y50185D01*
G01X25506Y50694D01*
G01X25506Y51413D01*
G01X24997Y51922D01*
G01X24278Y51922D01*
G37*
G36*
G01X21738Y51922D02*
G01X21229Y51413D01*
G01X21229Y50694D01*
G01X21738Y50185D01*
G01X22457Y50185D01*
G01X22966Y50694D01*
G01X22966Y51413D01*
G01X22457Y51922D01*
G01X21738Y51922D01*
G37*
G36*
G01X24278Y54462D02*
G01X23769Y53953D01*
G01X23769Y53234D01*
G01X24278Y52725D01*
G01X24997Y52725D01*
G01X25506Y53234D01*
G01X25506Y53953D01*
G01X24997Y54462D01*
G01X24278Y54462D01*
G37*
G36*
G01X21738Y54462D02*
G01X21229Y53953D01*
G01X21229Y53234D01*
G01X21738Y52725D01*
G01X22457Y52725D01*
G01X22966Y53234D01*
G01X22966Y53953D01*
G01X22457Y54462D01*
G01X21738Y54462D01*
G37*
G36*
G01X24278Y57002D02*
G01X23769Y56493D01*
G01X23769Y55774D01*
G01X24278Y55265D01*
G01X24997Y55265D01*
G01X25506Y55774D01*
G01X25506Y56493D01*
G01X24997Y57002D01*
G01X24278Y57002D01*
G37*
G36*
G01X21738Y57002D02*
G01X21229Y56493D01*
G01X21229Y55774D01*
G01X21738Y55265D01*
G01X22457Y55265D01*
G01X22966Y55774D01*
G01X22966Y56493D01*
G01X22457Y57002D01*
G01X21738Y57002D01*
G37*
G36*
G01X24278Y59542D02*
G01X23769Y59033D01*
G01X23769Y58314D01*
G01X24278Y57805D01*
G01X24997Y57805D01*
G01X25506Y58314D01*
G01X25506Y59033D01*
G01X24997Y59542D01*
G01X24278Y59542D01*
G37*
G36*
G01X21738Y59542D02*
G01X21229Y59033D01*
G01X21229Y58314D01*
G01X21738Y57805D01*
G01X22457Y57805D01*
G01X22966Y58314D01*
G01X22966Y59033D01*
G01X22457Y59542D01*
G01X21738Y59542D01*
G37*
G36*
G01X24278Y62082D02*
G01X23769Y61573D01*
G01X23769Y60854D01*
G01X24278Y60345D01*
G01X24997Y60345D01*
G01X25506Y60854D01*
G01X25506Y61573D01*
G01X24997Y62082D01*
G01X24278Y62082D01*
G37*
G36*
G01X21738Y62082D02*
G01X21229Y61573D01*
G01X21229Y60854D01*
G01X21738Y60345D01*
G01X22457Y60345D01*
G01X22966Y60854D01*
G01X22966Y61573D01*
G01X22457Y62082D01*
G01X21738Y62082D01*
G37*
G36*
G01X24278Y64622D02*
G01X23769Y64113D01*
G01X23769Y63394D01*
G01X24278Y62885D01*
G01X24997Y62885D01*
G01X25506Y63394D01*
G01X25506Y64113D01*
G01X24997Y64622D01*
G01X24278Y64622D01*
G37*
G36*
G01X21738Y64622D02*
G01X21229Y64113D01*
G01X21229Y63394D01*
G01X21738Y62885D01*
G01X22457Y62885D01*
G01X22966Y63394D01*
G01X22966Y64113D01*
G01X22457Y64622D01*
G01X21738Y64622D01*
G37*
G54D13*
G01X16606Y58666D03*
G01X12918Y43916D03*
M00*
M02*
